<svg width="2227" height="239" viewBox="0 0 2227 239" fill="none" xmlns="http://www.w3.org/2000/svg">
<path d="M4 144.562C4.83917 143.036 5.89725 142.782 7.5391 143.654C11.3336 145.688 15.0551 147.795 18.9226 149.721C33.7723 157.132 49.2786 162.654 65.4053 166.541C73.0308 168.357 80.6927 169.81 88.4642 170.827C99.9571 172.353 111.523 173.007 123.125 172.716C129.474 172.571 135.822 172.062 142.134 171.336C162.712 168.902 182.597 163.78 201.715 155.788C202.774 155.352 203.868 155.061 205.036 155.352C207.48 156.005 208.319 158.621 206.532 160.401C205.51 161.418 204.233 162.254 203.029 163.089C191.828 170.755 179.605 176.313 166.689 180.491C157.714 183.361 148.592 185.504 139.289 186.884C132.867 187.829 126.373 188.483 119.878 188.628C119.586 188.628 119.258 188.701 118.966 188.737H111.268C110.976 188.701 110.647 188.628 110.356 188.628C109.042 188.555 107.729 188.519 106.452 188.483C100.285 188.229 94.1559 187.538 88.0628 186.557C78.0658 184.923 68.2876 182.416 58.7284 178.965C38.9897 171.845 21.2942 161.309 5.60537 147.359C4.94863 146.778 4.5108 145.979 4 145.289V144.562H4ZM61.6472 50.0363C61.1365 50.109 60.5892 50.1816 60.0784 50.2543C54.9704 50.8719 50.3732 52.7609 46.2138 55.7398C45.3382 56.3574 44.5355 57.0113 43.6234 57.7016C43.5504 57.5199 43.4774 57.3383 43.4774 57.193C43.3315 56.2121 43.1855 55.1949 43.0031 54.2141C42.7477 52.543 41.9085 51.8164 40.2302 51.8164H36.0344C33.5169 51.8164 33.0425 52.2887 33.0425 54.7953V130.83C33.0425 131.193 33.0425 131.557 33.079 131.92C33.152 133.01 33.8087 133.7 34.8668 133.736C37.4208 133.773 40.0113 133.773 42.5653 133.736C43.6234 133.736 44.2801 133.01 44.3896 131.92C44.426 131.557 44.426 131.193 44.426 130.83V104.529C44.8274 104.855 45.0463 105.037 45.2287 105.219C51.7597 110.632 59.2757 112.412 67.4849 110.813C74.928 109.36 80.109 104.819 83.4656 98.1348C86.0196 93.0852 87.0777 87.7086 87.2237 82.1141C87.4061 75.902 86.7858 69.7988 84.2683 64.0227C81.167 56.9023 76.0226 52.216 68.2511 50.6176C67.0836 50.3633 65.8796 50.2543 64.6756 50.0727C63.654 50.0363 62.6688 50.0363 61.6472 50.0363V50.0363ZM44.3531 65.2578C44.3531 64.7129 44.499 64.3859 44.9733 64.059C49.9719 60.6078 55.4812 58.7914 61.6108 59.2637C67.0471 59.6633 71.4984 62.3152 73.8334 68.6727C75.2564 72.5598 75.6212 76.5922 75.6212 80.6609C75.6212 84.4391 75.3294 88.1445 74.1618 91.7773C71.6808 99.5152 65.989 102.458 58.6189 102.131C53.511 101.913 49.0597 99.9512 44.9733 97.0813C44.5355 96.7543 44.3531 96.4637 44.3531 95.8824C44.3896 90.7602 44.3531 85.6742 44.3531 80.552C44.3531 75.466 44.3896 70.3801 44.3531 65.2578V65.2578ZM119.404 50.0363C119.039 50.0727 118.674 50.1453 118.346 50.1816C114.77 50.3633 111.268 50.7992 107.802 51.6711C105.576 52.2523 103.423 53.0516 101.271 53.7781C99.9571 54.2141 99.3004 55.1586 99.3369 56.5754C99.3734 57.7742 99.3004 58.973 99.3369 60.1719C99.3734 61.9156 100.103 62.3879 101.818 61.952C104.664 61.2254 107.51 60.4262 110.392 59.8812C114.88 59.0457 119.404 58.6824 123.965 59.3727C126.336 59.7359 128.562 60.4262 130.094 62.4242C131.444 64.168 131.955 66.2387 132.028 68.382C132.137 71.3973 132.101 74.4125 132.137 77.4277C132.137 77.573 132.101 77.7547 132.064 77.9363C131.882 77.9 131.736 77.9363 131.59 77.9C127.759 76.9918 123.892 76.3379 119.915 76.1199C115.792 75.902 111.705 76.1562 107.765 77.5367C103.058 79.1715 99.2639 82.0051 97.0383 86.5824C95.3235 90.1426 95.0681 93.9207 95.6153 97.7352C96.3451 102.821 98.899 106.745 103.423 109.251C107.765 111.649 112.472 111.939 117.251 111.213C122.761 110.377 127.65 108.052 131.955 104.529C132.101 104.383 132.283 104.274 132.539 104.129C132.758 105.509 132.94 106.817 133.196 108.125C133.414 109.251 134.108 109.978 135.166 110.014C137.136 110.05 139.143 110.05 141.113 110.014C142.098 109.978 142.755 109.324 142.864 108.307C142.901 107.98 142.901 107.616 142.901 107.289V68.7816C142.901 67.2195 142.828 65.6574 142.572 64.0953C141.879 59.409 139.872 55.5582 135.64 53.0516C133.196 51.5984 130.496 50.8719 127.686 50.4723C126.373 50.2906 125.059 50.1816 123.746 50C122.323 50.0363 120.863 50.0363 119.404 50.0363V50.0363ZM132.174 96.4273C132.174 96.8996 132.028 97.2266 131.627 97.5172C127.54 100.46 123.053 102.421 117.981 102.93C115.901 103.148 113.822 103.075 111.851 102.276C109.553 101.368 108.057 99.7695 107.327 97.4445C106.598 95.1195 106.598 92.7219 107.291 90.3969C108.203 87.3816 110.356 85.6742 113.274 84.7297C116.23 83.7852 119.294 83.6398 122.323 83.9305C125.388 84.1848 128.379 84.766 131.444 85.1656C132.028 85.2383 132.21 85.5289 132.21 86.1102C132.174 87.8539 132.21 89.5613 132.21 91.3051C132.174 93.0125 132.137 94.7199 132.174 96.4273ZM227 143.436C226.635 141.62 225.249 140.929 223.68 140.421C221.199 139.585 218.608 139.222 216.018 139.004C211.238 138.604 206.459 138.822 201.715 139.694C196.498 140.675 191.536 142.346 187.121 145.361C186.61 145.725 186.1 146.124 185.771 146.633C185.516 147.032 185.443 147.65 185.589 148.086C185.735 148.631 186.355 148.776 186.902 148.74C187.158 148.74 187.45 148.74 187.705 148.704C190.551 148.413 193.36 148.086 196.206 147.795C200.365 147.396 204.561 147.141 208.721 147.468C210.472 147.577 212.26 147.977 213.975 148.449C215.835 148.958 216.675 150.338 216.748 152.227C216.893 155.134 216.237 157.931 215.471 160.692C213.975 166.286 211.822 171.699 209.706 177.076C209.56 177.439 209.414 177.802 209.341 178.166C209.159 179.219 209.779 179.909 210.837 179.655C211.457 179.51 212.15 179.183 212.588 178.747C214.194 177.185 215.835 175.623 217.222 173.879C221.892 167.921 224.628 161.055 226.234 153.68C226.526 152.373 226.745 151.029 227 149.721V143.436V143.436ZM178.803 98.6797C174.096 85.7105 169.389 72.7051 164.683 59.7359C163.953 57.6652 163.15 55.6309 162.384 53.5965C161.983 52.543 161.216 51.8527 160.049 51.8527C157.276 51.8164 154.503 51.7801 151.694 51.8164C150.782 51.8164 150.344 52.543 150.526 53.4512C150.709 54.2141 150.928 54.9406 151.219 55.6672C158.371 73.2863 165.558 90.9418 172.782 108.525C173.403 110.014 173.549 111.286 172.855 112.811C171.651 115.463 170.703 118.261 169.462 120.913C168.368 123.274 166.543 125.054 163.916 125.744C162.056 126.253 160.195 126.325 158.298 126.144C157.385 126.071 156.473 125.853 155.561 125.78C154.321 125.708 153.7 126.253 153.664 127.524C153.627 128.723 153.627 129.922 153.664 131.121C153.7 133.119 154.394 134.027 156.364 134.354C158.407 134.717 160.487 135.044 162.53 135.08C168.769 135.226 173.731 132.719 176.942 127.306C178.219 125.163 179.386 122.911 180.298 120.622C188.946 98.8977 197.483 77.1371 206.057 55.3766C206.313 54.7227 206.532 54.0687 206.641 53.3785C206.787 52.3613 206.313 51.7801 205.291 51.7801C202.883 51.7438 200.438 51.7801 198.03 51.7801C196.68 51.7801 195.732 52.3613 195.221 53.6691C195.039 54.1777 194.82 54.65 194.637 55.1586C190.405 67.2559 186.173 79.3531 181.94 91.4867C181.028 94.1023 180.08 96.7543 179.131 99.5516C178.985 99.152 178.912 98.934 178.803 98.6797V98.6797Z" fill="white"/>
<path d="M327 7H551.441L551.441 128.462H416.017L411.882 133.693L407.879 128.462H370.569V163.786H407.645L411.703 158.443L415.7 163.786H438.092V155.608H443.126C447.494 155.608 449.514 154.281 449.514 154.281V163.786H464.303V158.218L468.816 163.786H543.804C547.9 163.751 551.441 161.35 551.441 161.35L551.441 232H327V117.499L337.395 117.499L339.614 111.93H345.573L347.808 117.499H432.364V111.93L436.877 117.499H459.617V113.578C459.617 113.578 463.475 117.499 469.511 117.499H484.592L486.792 111.93H492.771L495.007 117.499H517.246V111.234L521.238 117.499H536.513V82.1738H521.238V88.4181L517.072 82.1738H501.936V93.1367L497.243 82.2661L470.899 82.1738C463.885 82.1738 459.617 86.1761 459.617 86.1761V82.1738H378.424L375.668 90.1349L372.826 82.1738H354.738V93.1886L349.964 82.1738H335.413L327 101.837V7Z" fill="white"/>
<path fill-rule="evenodd" clip-rule="evenodd" d="M327.043 112.979L338.391 86.5286H346.994L358.332 112.979H350.781L348.698 107.682H336.525L334.431 112.979H327.043ZM346.3 101.94L342.59 92.6844L338.869 101.94H346.3Z" fill="white"/>
<path d="M359.113 112.974V86.5242L369.611 86.5633L375.718 103.617L381.678 86.5242H392.093V112.974H385.497V93.4847L378.505 112.974H372.72L365.709 93.4847V112.974H359.113Z" fill="white"/>
<path d="M396.606 86.5242V112.974H418.13V107.232H403.272V102.533H417.783V96.965H403.272V92.4407H418.13V86.5242H396.606Z" fill="white"/>
<path fill-rule="evenodd" clip-rule="evenodd" d="M421.949 86.5286V112.979H428.545V103.582H431.323L439.231 112.979H447.292L438.613 103.234C442.175 102.933 445.849 99.8679 445.849 95.1097C445.849 89.5437 441.491 86.5286 436.628 86.5286H421.949ZM428.545 92.4451H436.085C437.894 92.4451 439.21 93.8635 439.21 95.2293C439.21 96.9865 437.505 98.0135 436.183 98.0135H428.545V92.4451Z" fill="white"/>
<path d="M448.542 112.974H455.277V86.5242H448.542V112.974Z" fill="white"/>
<path d="M471.247 112.974H469.793C462.759 112.974 458.488 107.419 458.488 99.858C458.488 92.1103 462.711 86.5242 471.594 86.5242H478.884V92.7887H471.327C467.721 92.7887 465.171 95.6097 465.171 99.9232C465.171 105.046 468.087 107.197 472.288 107.197H474.024L471.247 112.974Z" fill="white"/>
<path fill-rule="evenodd" clip-rule="evenodd" d="M474.252 112.979L485.6 86.5286H494.203L505.54 112.979H497.989L495.906 107.682H483.734L481.64 112.979H474.252ZM493.508 101.94L489.798 92.6844L486.077 101.94H493.508Z" fill="white"/>
<path d="M506.31 112.974V86.5242H514.696L525.404 103.143V86.5242H532V112.974H523.885L512.906 95.9209V112.974H506.31Z" fill="white"/>
<path d="M375.082 132.812V159.262H396.606V153.519H381.748V148.821H396.259V143.253H381.748V138.728H396.606V132.812H375.082Z" fill="white"/>
<path d="M502.075 159.262H480.55V132.812H502.075V138.728H487.216V143.253H501.658V148.821H487.216V153.519H502.075V159.262Z" fill="white"/>
<path d="M407.922 146.2L397.442 159.262H405.633L411.686 151.116L417.891 159.262H426.2L415.7 146.037L426.289 132.812H418.304L411.892 141.088L405.502 132.812H397.192L407.922 146.2Z" fill="white"/>
<path fill-rule="evenodd" clip-rule="evenodd" d="M426.983 132.816V159.266H433.753V150.914H440.696C446.571 150.914 451.024 147.789 451.024 141.713C451.024 136.679 447.532 132.816 441.553 132.816H426.983ZM433.753 138.798H441.065C442.963 138.798 444.32 139.964 444.32 141.843C444.32 143.609 442.97 144.888 441.043 144.888H433.753V138.798Z" fill="white"/>
<path fill-rule="evenodd" clip-rule="evenodd" d="M460.484 159.262H453.888V132.812H468.567C473.43 132.812 477.788 135.827 477.788 141.393C477.788 146.151 474.114 149.216 470.552 149.517L479.231 159.262H471.171L463.262 149.865H460.484V159.262ZM468.024 138.728H460.484V144.297H468.122C469.444 144.297 471.149 143.27 471.149 141.513C471.149 140.147 469.833 138.728 468.024 138.728Z" fill="white"/>
<path d="M505.13 159.262V153.519H518.331C520.284 153.519 521.13 152.461 521.13 151.301C521.13 150.189 520.286 149.065 518.331 149.065H512.365C507.18 149.065 504.292 145.898 504.292 141.143C504.292 136.902 506.937 132.812 514.642 132.812H527.487L524.71 138.763H513.6C511.477 138.763 510.823 139.88 510.823 140.947C510.823 142.043 511.631 143.253 513.253 143.253H519.502C525.283 143.253 527.791 146.54 527.791 150.844C527.791 155.472 524.996 159.262 519.188 159.262H505.13Z" fill="white"/>
<path d="M529.339 153.519V159.262H543.397C549.205 159.262 552 155.472 552 150.844C552 146.54 549.492 143.253 543.711 143.253H537.463C535.84 143.253 535.032 142.043 535.032 140.947C535.032 139.88 535.686 138.763 537.81 138.763H548.919L551.696 132.812H538.851C531.146 132.812 528.501 136.902 528.501 141.143C528.501 145.898 531.389 149.065 536.574 149.065H542.54C544.496 149.065 545.339 150.189 545.339 151.301C545.339 152.461 544.493 153.519 542.54 153.519H529.339Z" fill="white"/>
<path fill-rule="evenodd" clip-rule="evenodd" d="M878 49H670C665.582 49 662 52.5817 662 57V181C662 185.418 665.582 189 670 189H878C882.418 189 886 185.418 886 181V57C886 52.5817 882.418 49 878 49ZM670 44C662.82 44 657 49.8203 657 57V181C657 188.18 662.82 194 670 194H878C885.18 194 891 188.18 891 181V57C891 49.8203 885.18 44 878 44H670Z" fill="white"/>
<path d="M718.809 95.1537C716.77 97.5519 713.508 99.4434 710.245 99.1732C709.838 95.9305 711.435 92.4853 713.304 90.3573C715.343 87.8915 718.911 86.1351 721.8 86C722.14 89.3777 720.815 92.6879 718.809 95.1537ZM721.766 99.8149C717.042 99.5447 712.998 102.483 710.755 102.483C708.478 102.483 705.046 99.95 701.308 100.018C696.448 100.085 691.928 102.821 689.447 107.178C684.349 115.893 688.122 128.796 693.049 135.889C695.462 139.402 698.351 143.253 702.157 143.118C705.759 142.982 707.187 140.787 711.537 140.787C715.921 140.787 717.178 143.118 720.984 143.05C724.927 142.982 727.408 139.537 729.82 136.024C732.573 132.039 733.695 128.154 733.763 127.951C733.695 127.884 726.15 125.013 726.082 116.366C726.014 109.137 732.029 105.692 732.301 105.49C728.903 100.49 723.601 99.95 721.766 99.8149ZM749.056 90.0195V142.678H757.28V124.675H768.665C779.064 124.675 786.37 117.582 786.37 107.314C786.37 97.0452 779.2 90.0195 768.936 90.0195H749.056ZM757.28 96.9101H766.761C773.898 96.9101 777.976 100.693 777.976 107.347C777.976 114.001 773.898 117.818 766.727 117.818H757.28V96.9101ZM801.391 143.084C806.557 143.084 811.349 140.483 813.524 136.362H813.694V142.678H821.306V116.467C821.306 108.867 815.189 103.97 805.775 103.97C797.041 103.97 790.584 108.935 790.347 115.758H797.755C798.367 112.515 801.391 110.387 805.538 110.387C810.567 110.387 813.388 112.718 813.388 117.008V119.912L803.125 120.52C793.575 121.095 788.409 124.979 788.409 131.735C788.409 138.558 793.745 143.084 801.391 143.084ZM803.6 136.835C799.216 136.835 796.43 134.741 796.43 131.532C796.43 128.222 799.115 126.296 804.246 125.992L813.388 125.418V128.391C813.388 133.322 809.174 136.835 803.6 136.835ZM831.468 157C839.488 157 843.26 153.96 846.557 144.739L861 104.476H852.64L842.954 135.585H842.784L833.099 104.476H824.501L838.434 142.814L837.687 145.144C836.429 149.096 834.39 150.616 830.754 150.616C830.108 150.616 828.851 150.549 828.341 150.481V156.797C828.817 156.932 830.856 157 831.468 157Z" fill="white"/>
<path d="M1121.38 119.212H1132.38C1132.95 116.034 1131.93 113.308 1128.42 113.308C1124.9 113.308 1122.4 115.125 1121.38 119.212Z" fill="white"/>
<path d="M1058.8 125.018C1057.16 124.717 1054.28 124.191 1051.76 125.908C1048.92 127.838 1048.13 131.24 1051.08 132.38C1053.92 133.471 1058.1 131.587 1058.68 128.63L1059.36 125.114C1059.19 125.089 1059.01 125.055 1058.8 125.018Z" fill="white"/>
<path d="M1261.31 124.091C1262.22 121.141 1261.73 117.456 1260.75 116.149C1258.03 112.517 1251.77 115.387 1249.86 122.506C1248.61 127.158 1251.34 130.677 1254.4 130.677C1257.69 130.675 1259.73 128.065 1261.31 124.091Z" fill="white"/>
<path d="M1209.04 125.114C1208.88 125.089 1208.69 125.055 1208.49 125.018C1206.84 124.717 1203.96 124.191 1201.44 125.908C1198.61 127.838 1197.81 131.24 1200.76 132.38C1203.6 133.471 1207.79 131.587 1208.36 128.63L1209.04 125.114Z" fill="white"/>
<path fill-rule="evenodd" clip-rule="evenodd" d="M1196.09 31.0017C1244.64 31.0017 1284 70.4017 1284 119.003C1284 167.6 1244.64 207 1196.09 206.998C1175.02 206.998 1155.85 199.616 1140.71 187.247C1152.26 176.087 1161.08 162.111 1165.81 146.314H1158.5C1153.93 160.36 1145.89 172.749 1135.43 182.695C1124.91 172.664 1117.04 160.18 1112.51 146.358H1105.21C1109.92 162.065 1118.58 176.058 1130.04 187.186C1114.94 199.43 1095.86 207 1074.91 207C1026.36 207 987 167.6 987 119.001C987 70.4 1026.36 31 1074.91 31C1095.86 31 1114.94 38.5701 1130.04 50.8142C1118.42 62.0816 1109.87 76.1367 1105.21 91.6436H1112.51C1117.04 77.8218 1124.91 65.3376 1135.43 55.3072C1145.89 65.2507 1153.93 77.6419 1158.5 91.6859H1165.81C1161.08 75.8894 1152.26 61.9147 1140.71 50.7533C1155.85 38.3823 1175.02 31.0017 1196.09 31.0017ZM1225.46 107.055L1219.39 139.615H1228.33L1231.08 124.71C1233.58 115.457 1237.42 115.505 1239.67 115.533C1239.71 115.534 1239.75 115.534 1239.79 115.535L1239.86 115.536C1239.91 115.536 1239.96 115.536 1240.01 115.536L1242.41 107.055C1237.95 107.055 1235.31 108.656 1233.94 110.264L1233.14 107.055H1225.46ZM1110.61 98.779H1101.77L1095.64 129.655C1093.94 138.507 1100.63 139.759 1102.67 139.759C1104.71 139.759 1107.32 139.416 1109.25 138.167L1109.82 131.585C1104.71 132.38 1104.48 130.108 1104.94 127.61L1107.43 114.444H1111.97L1113.56 107.406H1108.8L1110.61 98.779ZM1127.96 106.953C1143.5 106.953 1141.11 119.891 1140.09 125.114H1120.82C1119.83 132.282 1125.15 132.272 1128.67 132.265C1128.78 132.265 1128.88 132.265 1128.98 132.265C1132.5 132.265 1137.6 131.808 1138.96 131.472L1137.6 138.165C1135.45 139.302 1130 139.757 1126.26 139.642C1110.95 139.642 1111.18 125.228 1111.52 123.183C1111.52 123.152 1111.53 123.119 1111.54 123.083C1111.54 123.046 1111.55 123.006 1111.55 122.963C1111.98 120.29 1114.11 106.953 1127.96 106.953ZM1095.42 108.086L1093.38 114.672C1090.88 113.99 1086.68 113.99 1084.64 114.219C1081.36 115.127 1082.72 118.191 1084.53 118.984C1086.34 119.781 1089.18 121.369 1090.88 122.506C1092.58 123.523 1094.66 125.688 1093.94 130.448C1092.54 139.772 1082.86 139.674 1080.11 139.646C1079.98 139.645 1079.87 139.644 1079.77 139.644C1076.71 139.644 1073.42 139.644 1069.34 138.507L1070.58 131.81C1074.25 133.032 1078.91 132.777 1081.19 132.653C1081.66 132.627 1082.03 132.607 1082.26 132.607C1085.23 132.607 1085.64 128.85 1083.4 127.726C1082.77 127.412 1082.13 127.043 1081.42 126.633C1080.07 125.861 1078.48 124.945 1076.25 123.979C1074.14 123.064 1071.94 120.576 1073.19 114.559C1074.79 106.823 1085.13 106.838 1086.62 106.84L1086.68 106.84C1086.84 106.84 1087.03 106.834 1087.25 106.828C1088.78 106.784 1091.75 106.699 1095.42 108.086ZM1043.37 100.367L1036 139.642H1026.81L1032.03 111.947L1019.67 139.642H1011.28L1008.89 111.265L1003.45 139.642H994.606L1002.2 100.367H1016.38L1018.08 124.206L1028.85 100.367H1043.37ZM1044.39 115.012L1045.75 107.975C1050.55 107.03 1053.48 106.95 1055.89 106.884C1056.38 106.87 1056.85 106.857 1057.31 106.838C1072.17 106.838 1070.69 117.509 1069.79 121.936L1066.27 139.642H1057.99L1056.86 137.825C1055.27 138.962 1054.03 139.531 1049.49 139.759C1044.95 139.984 1039.17 136.58 1040.19 129.88C1042.37 118.009 1054.71 118.383 1059.34 118.524C1060.02 118.544 1060.54 118.56 1060.83 118.531C1061.75 114.117 1059.06 114.066 1056.27 114.012C1055.98 114.007 1055.68 114.001 1055.39 113.99C1053.07 113.906 1049.2 114.404 1046.52 114.75L1046.52 114.75C1045.65 114.862 1044.91 114.957 1044.39 115.012ZM1182.28 107.86C1185.23 107.86 1186.81 108.085 1189.08 109.448L1194.87 103.661C1192.6 101.163 1189.99 98.7096 1182.73 98.439C1176.61 98.2123 1166.12 102.685 1162.77 114.897C1158.24 131.472 1168.21 139.642 1177.4 139.642C1182.28 139.642 1185.23 138.962 1188.17 137.6L1185.57 129.655C1176.49 132.717 1170.03 128.065 1171.51 118.644C1172.75 110.68 1179.33 107.86 1182.28 107.86ZM1263.24 109.634C1263.65 110.071 1264.05 110.486 1264.49 110.81L1266.87 98.3273H1276.17L1268.46 139.644H1258.93L1257.79 137.034C1255.98 138.282 1253.04 139.532 1250.09 139.644C1243.74 139.644 1237.91 130.663 1240.79 120.801C1244.87 106.833 1251.89 106.901 1256.77 106.948C1257.04 106.95 1257.31 106.953 1257.57 106.953C1260.68 106.953 1262.05 108.384 1263.24 109.634ZM1194.07 115.012L1195.43 107.975C1200.24 107.03 1203.16 106.95 1205.58 106.884C1206.07 106.87 1206.54 106.857 1207 106.838C1221.85 106.838 1220.38 117.509 1219.47 121.936L1215.95 139.642H1207.68L1206.54 137.825C1204.95 138.962 1203.71 139.531 1199.17 139.759C1194.64 139.984 1188.85 136.58 1189.88 129.88C1192.05 118.009 1204.39 118.383 1209.02 118.524C1209.71 118.544 1210.22 118.56 1210.51 118.531C1211.44 114.117 1208.74 114.066 1205.95 114.012C1205.66 114.007 1205.36 114.001 1205.07 113.99C1202.75 113.906 1198.89 114.404 1196.21 114.749L1196.21 114.749L1196.2 114.75C1195.34 114.861 1194.59 114.957 1194.07 115.012ZM1146.36 107.406L1140.35 139.642V139.644H1149.19L1151.91 124.884C1154.37 115.808 1158.23 115.876 1160.47 115.916C1160.61 115.918 1160.74 115.92 1160.87 115.92L1163.14 107.406C1158.72 107.406 1156.11 108.995 1154.75 110.585L1153.96 107.406H1146.36Z" fill="white"/>
<path d="M1370.84 88.0029H1350.85C1350.19 88.0025 1349.55 88.2368 1349.04 88.6635C1348.54 89.0903 1348.21 89.6814 1348.1 90.3305L1340.02 141.227C1339.98 141.464 1340 141.705 1340.06 141.935C1340.13 142.165 1340.24 142.378 1340.4 142.559C1340.56 142.741 1340.75 142.887 1340.97 142.986C1341.19 143.086 1341.43 143.138 1341.67 143.137H1351.21C1351.87 143.137 1352.51 142.903 1353.02 142.475C1353.52 142.048 1353.85 141.456 1353.96 140.807L1356.14 127.079C1356.24 126.43 1356.57 125.838 1357.07 125.411C1357.58 124.984 1358.22 124.749 1358.88 124.748H1365.21C1378.37 124.748 1385.97 118.422 1387.96 105.884C1388.85 100.398 1388 96.0886 1385.41 93.0703C1382.57 89.7559 1377.53 88.0029 1370.84 88.0029ZM1373.15 106.592C1372.05 113.714 1366.57 113.714 1361.27 113.714H1358.26L1360.37 100.413C1360.43 100.024 1360.63 99.6694 1360.94 99.4135C1361.24 99.1576 1361.62 99.017 1362.02 99.017H1363.4C1367.01 99.017 1370.42 99.017 1372.17 101.06C1373.22 102.279 1373.55 104.09 1373.15 106.592ZM1430.59 106.363H1421.02C1420.62 106.363 1420.24 106.503 1419.94 106.759C1419.64 107.015 1419.44 107.369 1419.37 107.759L1418.95 110.417L1418.28 109.454C1416.21 106.467 1411.59 105.469 1406.98 105.469C1396.4 105.469 1387.36 113.424 1385.6 124.583C1384.69 130.15 1385.99 135.472 1389.17 139.184C1392.09 142.597 1396.26 144.019 1401.23 144.019C1409.75 144.019 1414.48 138.578 1414.48 138.578L1414.05 141.219C1414.01 141.455 1414.02 141.696 1414.09 141.927C1414.15 142.157 1414.27 142.37 1414.43 142.552C1414.58 142.735 1414.78 142.881 1414.99 142.981C1415.21 143.082 1415.45 143.134 1415.69 143.134H1424.31C1424.98 143.135 1425.62 142.9 1426.12 142.473C1426.62 142.045 1426.96 141.453 1427.06 140.804L1432.23 108.272C1432.27 108.037 1432.26 107.796 1432.19 107.566C1432.13 107.336 1432.01 107.123 1431.86 106.942C1431.7 106.76 1431.51 106.614 1431.29 106.514C1431.07 106.414 1430.83 106.363 1430.59 106.363ZM1417.25 124.862C1416.33 130.292 1411.99 133.937 1406.45 133.937C1403.67 133.937 1401.45 133.052 1400.02 131.374C1398.61 129.708 1398.07 127.337 1398.52 124.696C1399.38 119.313 1403.8 115.548 1409.25 115.548C1411.96 115.548 1414.17 116.445 1415.63 118.137C1417.09 119.847 1417.67 122.232 1417.25 124.862ZM1481.57 106.363H1471.95C1471.5 106.363 1471.05 106.474 1470.65 106.685C1470.25 106.896 1469.91 107.201 1469.65 107.573L1456.39 126.977L1450.76 108.33C1450.59 107.762 1450.24 107.263 1449.76 106.909C1449.28 106.554 1448.7 106.363 1448.1 106.363H1438.65C1438.38 106.362 1438.12 106.424 1437.88 106.544C1437.65 106.664 1437.44 106.838 1437.29 107.052C1437.13 107.267 1437.03 107.514 1436.99 107.775C1436.95 108.035 1436.98 108.302 1437.06 108.551L1447.66 139.425L1437.7 153.388C1437.52 153.636 1437.42 153.927 1437.39 154.23C1437.37 154.532 1437.44 154.835 1437.58 155.105C1437.72 155.375 1437.93 155.601 1438.19 155.759C1438.45 155.917 1438.75 156 1439.06 156H1448.66C1449.11 156.001 1449.56 155.893 1449.95 155.687C1450.35 155.481 1450.69 155.182 1450.95 154.816L1482.94 108.96C1483.12 108.712 1483.22 108.422 1483.24 108.12C1483.25 107.819 1483.19 107.518 1483.05 107.25C1482.91 106.983 1482.7 106.759 1482.44 106.602C1482.18 106.446 1481.88 106.363 1481.57 106.363Z" fill="white"/>
<path d="M1513.42 88.0029H1493.43C1492.77 88.0032 1492.13 88.2378 1491.63 88.6645C1491.12 89.0912 1490.79 89.6819 1490.69 90.3305L1482.6 141.227C1482.57 141.463 1482.58 141.704 1482.64 141.934C1482.71 142.164 1482.82 142.377 1482.98 142.558C1483.14 142.74 1483.33 142.886 1483.55 142.985C1483.77 143.085 1484.01 143.137 1484.25 143.137H1494.5C1494.97 143.137 1495.42 142.972 1495.77 142.673C1496.12 142.374 1496.35 141.96 1496.42 141.506L1498.72 127.079C1498.82 126.43 1499.15 125.838 1499.65 125.411C1500.16 124.984 1500.8 124.749 1501.46 124.748H1507.78C1520.95 124.748 1528.55 118.422 1530.54 105.884C1531.44 100.398 1530.57 96.0886 1527.99 93.0703C1525.15 89.7559 1520.11 88.0029 1513.42 88.0029ZM1515.73 106.592C1514.64 113.714 1509.16 113.714 1503.86 113.714H1500.84L1502.96 100.413C1503.02 100.024 1503.22 99.6691 1503.52 99.4131C1503.82 99.157 1504.21 99.0165 1504.6 99.017H1505.99C1509.59 99.017 1513 99.017 1514.76 101.06C1515.81 102.279 1516.13 104.09 1515.73 106.592ZM1573.17 106.363H1563.61C1563.21 106.362 1562.82 106.502 1562.52 106.758C1562.22 107.014 1562.02 107.369 1561.96 107.759L1561.54 110.417L1560.87 109.454C1558.79 106.467 1554.18 105.469 1549.56 105.469C1538.99 105.469 1529.95 113.424 1528.19 124.583C1527.28 130.15 1528.58 135.472 1531.76 139.184C1534.68 142.597 1538.85 144.019 1543.81 144.019C1552.34 144.019 1557.06 138.578 1557.06 138.578L1556.64 141.219C1556.6 141.455 1556.61 141.697 1556.68 141.928C1556.74 142.159 1556.86 142.373 1557.02 142.555C1557.17 142.737 1557.37 142.883 1557.59 142.983C1557.81 143.083 1558.04 143.135 1558.29 143.134H1566.91C1567.57 143.134 1568.21 142.899 1568.71 142.472C1569.21 142.044 1569.54 141.453 1569.65 140.804L1574.82 108.272C1574.86 108.036 1574.85 107.795 1574.78 107.565C1574.71 107.335 1574.6 107.122 1574.44 106.94C1574.28 106.759 1574.09 106.613 1573.87 106.514C1573.65 106.414 1573.41 106.362 1573.17 106.363ZM1559.83 124.862C1558.91 130.292 1554.57 133.937 1549.03 133.937C1546.26 133.937 1544.03 133.052 1542.6 131.374C1541.19 129.708 1540.65 127.337 1541.1 124.696C1541.97 119.313 1546.38 115.548 1551.83 115.548C1554.54 115.548 1556.75 116.445 1558.21 118.137C1559.67 119.847 1560.25 122.232 1559.83 124.862ZM1584.46 89.3989L1576.25 141.227C1576.22 141.463 1576.23 141.704 1576.3 141.934C1576.36 142.164 1576.48 142.377 1576.63 142.558C1576.79 142.74 1576.98 142.886 1577.2 142.985C1577.42 143.085 1577.66 143.137 1577.9 143.137H1586.14C1587.52 143.137 1588.68 142.15 1588.89 140.807L1596.98 89.9126C1597.02 89.6767 1597 89.4355 1596.94 89.2056C1596.87 88.9757 1596.76 88.7626 1596.6 88.5808C1596.45 88.3991 1596.25 88.2531 1596.03 88.1528C1595.82 88.0526 1595.58 88.0004 1595.34 88H1586.1C1585.7 88.0014 1585.32 88.1429 1585.02 88.3993C1584.72 88.6556 1584.52 89.01 1584.46 89.3989Z" fill="white"/>
<path d="M1745.55 155.752L1757.7 84.2402H1777.13L1764.97 155.752H1745.55Z" fill="white"/>
<path d="M1835.45 86.0031C1831.6 84.5516 1825.56 83 1818.03 83C1798.83 82.9981 1785.31 92.6986 1785.19 106.599C1785.08 116.874 1794.85 122.606 1802.22 126.027C1809.78 129.529 1812.32 131.767 1812.29 134.897C1812.24 139.688 1806.25 141.88 1800.66 141.88C1792.88 141.879 1788.75 140.796 1782.37 138.127L1779.87 136.988L1777.14 152.996C1781.68 154.993 1790.07 156.723 1798.79 156.813C1819.21 156.812 1832.47 147.226 1832.62 132.382C1832.69 124.246 1827.52 118.057 1816.31 112.953C1809.52 109.643 1805.36 107.438 1805.4 104.088C1805.4 101.115 1808.92 97.9371 1816.53 97.9371C1822.88 97.8357 1827.48 99.2278 1831.07 100.677L1832.81 101.5L1835.45 86.0031Z" fill="white"/>
<path d="M1885.27 84.3082H1870.26C1865.61 84.3082 1862.13 85.5845 1860.08 90.2414L1831.23 155.774H1851.63C1851.63 155.774 1854.97 146.963 1855.72 145.029C1857.95 145.029 1877.77 145.06 1880.6 145.06C1881.19 147.563 1882.97 155.775 1882.97 155.775L1901 155.774L1885.27 84.3082ZM1861.31 130.401C1862.92 126.281 1869.05 110.413 1869.05 110.413C1868.94 110.602 1870.65 106.272 1871.63 103.588L1872.94 109.751C1872.94 109.751 1876.66 126.823 1877.44 130.402L1861.31 130.401Z" fill="white"/>
<path d="M1729.25 84.2927L1710.23 133.058L1708.2 123.149C1704.66 111.724 1693.63 99.3487 1681.29 93.1523L1698.68 155.69L1719.24 155.666L1749.83 84.2927L1729.25 84.2927Z" fill="white"/>
<path d="M1692.58 84.2495H1661.25L1661 85.7383C1685.38 91.656 1701.51 105.962 1708.2 123.149L1701.39 90.2875C1700.21 85.7596 1696.8 84.4087 1692.58 84.2495Z" fill="white"/>
<path d="M2080.32 169.542C2080.32 172.612 2083 175.113 2086.32 175.113C2089.64 175.113 2092.32 172.612 2092.32 169.542C2092.32 166.472 2089.64 163.971 2086.32 163.971C2083 163.971 2080.32 166.472 2080.32 169.542Z" fill="white"/>
<path d="M2150.15 169.542C2150.15 172.612 2152.82 175.113 2156.14 175.113C2159.47 175.113 2162.17 172.612 2162.14 169.542C2162.14 166.472 2159.47 163.971 2156.14 163.971C2152.82 163.971 2150.15 166.472 2150.15 169.542Z" fill="white"/>
<path d="M2122.49 58.7068C2123.18 56.3874 2125.63 55.0739 2127.94 55.7794C2130.08 56.4327 2131.38 58.6039 2130.95 60.8022L2123.74 97.125L2109.65 93.9683C2106.4 93.2418 2103.16 94.4546 2101.16 96.859L2098.75 93.4661L2094.73 60.4982C2094.45 58.2543 2095.96 56.1819 2098.18 55.7563C2100.46 55.3196 2102.68 56.7679 2103.19 59.0296L2109.79 88.2079C2109.99 89.095 2110.76 89.735 2111.67 89.7655C2112.58 89.7961 2113.39 89.2096 2113.65 88.338L2122.49 58.7068Z" fill="white"/>
<path d="M2088.04 122.699L2085.89 120.557C2086 121.407 2086.19 122.163 2086.43 122.74C2088.44 127.378 2091.25 130.915 2094.81 133.301C2098.37 135.684 2102.8 137 2108.18 137C2122.37 137 2133 125.869 2133 111.611C2133 109.575 2132.97 108.032 2132.94 106.833C2132.87 104.783 2131.3 102.916 2129.19 102.444L2108.77 97.8717C2106.36 97.3318 2103.96 98.7928 2103.33 101.166L2103.33 101.174L2103.33 101.183C2102.78 103.203 2103.52 105.27 2105.05 106.512C2105.63 106.977 2106.31 107.326 2107.09 107.512L2122.22 111.129C2123.26 111.377 2123.92 112.396 2123.72 113.444C2123.52 114.492 2122.54 115.201 2121.48 115.055C2119.62 114.799 2116.88 114.992 2114.68 116.266C2112.64 117.448 2110.83 119.691 2110.83 124.178C2110.83 125.282 2109.93 126.178 2108.83 126.178C2107.73 126.178 2106.83 125.282 2106.83 124.178C2106.83 118.462 2109.23 114.881 2112.49 112.915L2106.16 111.402C2105.37 111.214 2104.63 110.928 2103.95 110.561L2102.45 111.839C2102.4 111.875 2102.36 111.909 2102.32 111.944L2101.08 113.002C2102.53 116.164 2101.84 119.998 2099.18 122.456L2098.7 122.904C2095.67 125.703 2090.96 125.613 2088.04 122.699Z" fill="white"/>
<path d="M2099.26 101.098C2098.86 103.563 2099.51 105.995 2100.9 107.902L2099.75 108.884C2097.71 110.574 2094.63 110.135 2093.16 107.924L2085.63 96.6646L2085.23 96.0378C2083.92 93.9582 2084.54 91.2054 2086.64 89.8988L2086.82 89.7877C2088.53 88.7175 2090.79 89.1704 2091.96 90.8144L2099.26 101.098Z" fill="white"/>
<path d="M2089.83 110.147C2091.5 112.645 2094.24 113.947 2097 113.913C2098.27 115.636 2098.06 118.051 2096.47 119.517L2095.98 119.965C2094.53 121.309 2092.27 121.266 2090.86 119.867L2085.35 114.372L2080.58 109.765C2078.54 107.798 2078.47 104.576 2080.39 102.525L2083.4 100.526L2089.83 110.147Z" fill="white"/>
<path fill-rule="evenodd" clip-rule="evenodd" d="M1985 49C1985 43.4772 1989.48 39 1995 39H2215C2220.52 39 2225 43.4772 2225 49V189C2225 194.523 2220.52 199 2215 199H1995C1989.48 199 1985 194.523 1985 189V49ZM2041.35 149H2034V180.399H2041.35V149ZM2059.69 149H2052.5C2052.5 154.792 2049.8 160.078 2045.09 163.56L2042.25 165.649L2053.28 180.399H2062.34L2052.18 166.82C2056.98 162.136 2059.69 155.805 2059.69 149ZM2064.46 149H2071.39V180.399H2064.46V149ZM2132.19 158.084C2129.55 158.084 2127.04 158.875 2125.36 161.123V158.685H2118.78V180.399H2125.46V169.004C2125.46 165.712 2127.71 164.098 2130.42 164.098C2133.32 164.098 2135 165.807 2135 168.972V180.43H2141.61V166.598C2141.61 161.534 2137.51 158.084 2132.19 158.084ZM2092.35 160.078V158.685H2098.96V180.399H2092.35V179.006C2090.48 180.272 2088.22 181 2085.77 181C2079.32 181 2074.1 175.872 2074.1 169.542C2074.1 163.212 2079.32 158.084 2085.77 158.084C2088.22 158.084 2090.48 158.812 2092.35 160.078ZM2109.21 161.502V158.685H2102.44V180.399H2109.24V170.27C2109.24 166.852 2113.01 165.016 2115.62 165.016H2115.69V158.685C2113.01 158.685 2110.53 159.825 2109.21 161.502ZM2162.17 160.078V158.685H2168.78V180.399H2162.17V179.006C2160.3 180.272 2158.05 181 2155.6 181C2149.15 181 2143.93 175.872 2143.93 169.542C2143.93 163.212 2149.15 158.084 2155.6 158.084C2158.05 158.084 2160.3 158.812 2162.17 160.078ZM2175.84 172.707C2173.55 172.707 2171.68 174.543 2171.68 176.79C2171.68 179.038 2173.55 180.873 2175.84 180.873C2178.13 180.873 2180 179.038 2180 176.79C2180 174.511 2178.13 172.707 2175.84 172.707ZM2134.87 61.5804L2127.65 97.9992L2130.07 98.5407C2133.86 99.3895 2136.81 102.734 2136.94 106.711C2136.97 107.957 2137 109.541 2137 111.611C2137 127.962 2124.69 141 2108.18 141C2102.13 141 2096.89 139.51 2092.58 136.624C2088.28 133.741 2085.02 129.545 2082.76 124.327C2082.14 122.893 2081.88 121.179 2081.79 119.659C2081.73 118.566 2081.76 117.484 2081.84 116.544L2077.8 112.643C2074.11 109.079 2074.06 103.186 2077.69 99.5617L2077.83 99.4219L2081.29 97.1269C2079.57 93.3356 2080.89 88.7691 2084.52 86.5043L2084.7 86.3931C2087.66 84.5488 2091.4 84.914 2093.94 87.0948L2090.76 60.9823C2090.23 56.6504 2093.15 52.6496 2097.43 51.8278C2101.83 50.9848 2106.1 53.7808 2107.09 58.147L2112 79.8752L2118.65 57.5641C2119.98 53.1186 2124.67 50.6009 2129.11 51.9531C2133.22 53.2053 2135.71 57.3668 2134.87 61.5804Z" fill="white"/>
</svg>
