<svg width="29" height="30" viewBox="0 0 29 30" fill="none" xmlns="http://www.w3.org/2000/svg">
<path d="M17.2649 15L28.2649 3.99998C29.0649 3.19998 29.0649 1.99998 28.2649 1.19998C27.4649 0.399976 26.2649 0.399976 25.4649 1.19998L14.4649 12.2L3.46494 1.19998C2.66494 0.399976 1.46494 0.399976 0.664941 1.19998C-0.135059 1.99998 -0.135059 3.19998 0.664941 3.99998L11.6649 15L0.664941 26C-0.135059 26.8 -0.135059 28 0.664941 28.8C1.06494 29.2 1.56494 29.4 2.06494 29.4C2.56494 29.4 3.06494 29.2 3.46494 28.8L14.4649 17.8L25.4649 28.8C25.8649 29.2 26.3649 29.4 26.8649 29.4C27.3649 29.4 27.8649 29.2 28.2649 28.8C29.0649 28 29.0649 26.8 28.2649 26L17.2649 15V15Z" fill="black"/>
</svg>
