<svg width="36" height="38" viewBox="0 0 36 38" fill="none" xmlns="http://www.w3.org/2000/svg">
<path d="M35.9161 33.822L32.7328 7.1623H26.8637C26.1674 3.08377 22.4868 0 18.0103 0C13.5339 0 9.85327 3.08377 9.15693 7.1623H3.28782L0.104575 33.822C-0.0943774 35.3141 0.502481 36.2094 0.999863 36.8063C1.49725 37.3037 2.39253 38 4.08363 38H31.937C33.2302 38 34.3245 37.6021 35.0208 36.7068C35.7171 36.0105 36.0156 34.9162 35.9161 33.822ZM18.0103 3.97906C20.1988 3.97906 22.0889 5.37173 22.6857 7.1623H13.2355C13.9318 5.27225 15.8219 3.97906 18.0103 3.97906ZM4.08363 34.0209L6.86897 11.1414H9.05746V14.1257C9.05746 15.2199 9.95274 16.1152 11.047 16.1152C12.1412 16.1152 13.0365 15.2199 13.0365 14.1257V11.1414H22.9842V14.1257C22.9842 15.2199 23.8794 16.1152 24.9737 16.1152C26.0679 16.1152 26.9632 15.2199 26.9632 14.1257V11.1414H29.1517L31.937 34.0209H4.08363Z" fill="black"/>
</svg>
