<svg width="512" height="512" viewBox="0 0 512 512" fill="none" xmlns="http://www.w3.org/2000/svg">
<path d="M261.049 511.999C259.354 511.999 257.658 511.999 255.951 511.991C215.817 512.088 178.733 511.069 142.67 508.874C109.606 506.862 79.4249 495.436 55.3849 475.835C32.1887 456.92 16.3483 431.346 8.30501 399.831C1.30474 372.393 0.93363 345.46 0.578147 319.409C0.320324 300.717 0.0546896 278.569 0 256.045C0.0546896 233.428 0.320324 211.28 0.578147 192.588C0.93363 166.542 1.30474 139.608 8.30501 112.167C16.3483 80.6509 32.1887 55.0767 55.3849 36.1626C79.4249 16.5611 109.606 5.13528 142.673 3.12356C178.737 0.932158 215.829 -0.0912802 256.049 0.00637612C296.195 -0.0795614 333.267 0.932158 369.33 3.12356C402.394 5.13528 432.575 16.5611 456.615 36.1626C479.815 55.0767 495.652 80.6509 503.695 112.167C510.695 139.604 511.066 166.542 511.422 192.588C511.68 211.28 511.949 233.428 512 255.952V256.045C511.949 278.569 511.68 300.717 511.422 319.409C511.066 345.456 510.699 372.389 503.695 399.831C495.652 431.346 479.815 456.92 456.615 475.835C432.575 495.436 402.394 506.862 369.33 508.874C334.794 510.975 299.316 511.999 261.049 511.999V511.999ZM255.951 471.991C295.433 472.085 331.685 471.088 366.901 468.948C391.902 467.428 413.578 459.315 431.337 444.835C447.751 431.448 459.057 412.979 464.936 389.94C470.764 367.1 471.1 342.577 471.424 318.862C471.678 300.295 471.944 278.303 471.998 255.999C471.944 233.69 471.678 211.702 471.424 193.135C471.1 169.42 470.764 144.897 464.936 122.053C459.057 99.0142 447.751 80.5454 431.337 67.1587C413.578 52.6822 391.902 44.5689 366.901 43.0493C331.685 40.9048 295.433 39.9165 256.045 40.0025C216.571 39.9087 180.315 40.9048 145.099 43.0493C120.098 44.5689 98.4217 52.6822 80.6632 67.1587C64.2485 80.5454 52.9434 99.0142 47.0643 122.053C41.2359 144.897 40.9 169.417 40.5758 193.135C40.3218 211.717 40.0562 233.721 40.0015 256.045C40.0562 278.272 40.3218 300.28 40.5758 318.862C40.9 342.577 41.2359 367.1 47.0643 389.94C52.9434 412.979 64.2485 431.448 80.6632 444.835C98.4217 459.311 120.098 467.424 145.099 468.944C180.315 471.088 216.579 472.088 255.951 471.991V471.991ZM254.998 380.999C186.074 380.999 129.993 324.924 129.993 255.999C129.993 187.073 186.074 130.999 254.998 130.999C323.926 130.999 380.003 187.073 380.003 255.999C380.003 324.924 323.926 380.999 254.998 380.999V380.999ZM254.998 170.999C208.129 170.999 169.995 209.131 169.995 255.999C169.995 302.866 208.129 340.999 254.998 340.999C301.871 340.999 340.001 302.866 340.001 255.999C340.001 209.131 301.871 170.999 254.998 170.999V170.999ZM394.003 90.9986C377.436 90.9986 364.002 104.428 364.002 120.999C364.002 137.569 377.436 150.999 394.003 150.999C410.574 150.999 424.004 137.569 424.004 120.999C424.004 104.428 410.574 90.9986 394.003 90.9986Z" fill="white"/>
</svg>
