<svg width="512" height="512" viewBox="0 0 512 512" fill="none" xmlns="http://www.w3.org/2000/svg">
<path d="M256 0C114.759 0 0 114.561 0 255.559C0 360.426 62.676 450.313 153.6 489.969C152.717 472.344 153.6 450.313 158.014 430.926C163.311 409.776 190.676 291.69 190.676 291.69C190.676 291.69 182.731 274.947 182.731 251.153C182.731 213.259 204.8 185.06 232.165 185.06C255.117 185.06 266.593 202.684 266.593 223.834C266.593 246.746 251.586 281.996 243.641 314.601C237.462 341.92 256.882 363.95 284.248 363.95C332.8 363.95 365.462 301.382 365.462 228.239C365.462 171.84 327.503 130.422 258.648 130.422C180.965 130.422 132.414 188.584 132.414 252.914C132.414 274.945 138.593 290.807 149.186 303.144C153.6 308.432 154.483 311.076 152.717 317.244C151.834 321.65 148.303 333.107 147.42 337.512C145.654 343.68 140.358 346.325 134.179 343.68C97.986 328.699 82.096 289.925 82.096 245.863C82.096 173.602 143.006 86.3591 264.827 86.3591C362.813 86.3591 427.255 156.858 427.255 232.645C427.255 333.106 371.641 408.011 289.545 408.011C262.179 408.011 235.697 393.03 226.869 376.287C226.869 376.287 211.862 435.33 209.214 446.786C203.917 466.174 193.324 486.442 183.614 501.423C206.566 508.473 231.283 511.998 256 511.998C397.241 511.998 512 397.437 512 256.439C512 115.441 397.242 0 256 0Z" fill="white"/>
</svg>
