<svg width="590" height="386" viewBox="0 0 590 386" fill="none" xmlns="http://www.w3.org/2000/svg">
<path d="M3 167.8H12.576V221H3V167.8Z" fill="black"/>
<path d="M59.8694 176.616H47.2534V221H37.6774V176.616H25.0614V167.8H59.8694V176.616Z" fill="black"/>
<path d="M87.9306 208.992H75.3906L72.2746 221H62.7746L78.2026 167.42H85.7266L101.231 221H91.1986L87.9306 208.992ZM77.4426 201.088H86.2586L83.2186 188.7L82.0026 180.34H81.6986L80.4066 188.776L77.4426 201.088Z" fill="black"/>
<path d="M140.369 221H112.097V167.8H121.673V212.184H140.369V221Z" fill="black"/>
<path d="M159.432 201.24L145.144 167.8H156.544L163.916 187.94L164.676 193.716H165.056L165.892 187.788L173.112 167.8H183.372L169.008 201.164V221H159.432V201.24Z" fill="black"/>
<path d="M202.201 206.256C202.201 204.331 202.455 202.507 202.961 200.784C203.519 199.061 204.279 197.44 205.241 195.92C206.204 194.4 207.319 193.007 208.585 191.74C209.903 190.423 211.296 189.257 212.765 188.244C211.701 186.572 210.815 184.849 210.105 183.076C209.447 181.303 209.117 179.453 209.117 177.528C209.117 176.261 209.32 174.995 209.725 173.728C210.131 172.411 210.789 171.245 211.701 170.232C212.613 169.168 213.779 168.332 215.197 167.724C216.667 167.065 218.44 166.736 220.517 166.736C222.493 166.736 224.191 167.015 225.609 167.572C227.028 168.079 228.168 168.788 229.029 169.7C229.941 170.561 230.6 171.575 231.005 172.74C231.411 173.905 231.613 175.121 231.613 176.388C231.613 178.516 230.98 180.72 229.713 183C228.447 185.229 226.369 187.408 223.481 189.536C224.748 191.917 226.091 194.324 227.509 196.756C228.979 199.137 230.6 201.443 232.373 203.672C233.336 202.405 234.147 200.911 234.805 199.188C235.464 197.415 236.072 195.591 236.629 193.716L243.393 196.832C243.14 197.744 242.785 198.783 242.329 199.948C241.873 201.113 241.367 202.279 240.809 203.444C240.252 204.559 239.695 205.648 239.137 206.712C238.58 207.725 238.048 208.587 237.541 209.296C238.808 210.765 239.973 211.956 241.037 212.868C242.152 213.729 243.241 214.489 244.305 215.148L239.669 222.064C238.301 221.405 236.959 220.544 235.641 219.48C234.375 218.416 233.133 217.175 231.917 215.756C230.397 217.479 228.523 218.973 226.293 220.24C224.115 221.456 221.379 222.064 218.085 222.064C215.805 222.064 213.677 221.709 211.701 221C209.776 220.341 208.104 219.353 206.685 218.036C205.267 216.668 204.152 214.996 203.341 213.02C202.581 211.044 202.201 208.789 202.201 206.256ZM226.673 209.752C224.647 207.067 222.797 204.457 221.125 201.924C219.504 199.34 218.111 196.832 216.945 194.4C215.172 196.173 213.779 197.921 212.765 199.644C211.752 201.316 211.245 203.292 211.245 205.572C211.245 208.156 211.955 210.183 213.373 211.652C214.843 213.071 216.743 213.78 219.073 213.78C220.695 213.78 222.189 213.375 223.557 212.564C224.925 211.703 225.964 210.765 226.673 209.752ZM218.161 177.984C218.161 180.213 218.896 182.493 220.365 184.824C221.835 183.557 222.899 182.367 223.557 181.252C224.216 180.087 224.545 178.997 224.545 177.984C224.545 176.819 224.267 175.881 223.709 175.172C223.203 174.412 222.392 174.032 221.277 174.032C220.264 174.032 219.479 174.412 218.921 175.172C218.415 175.881 218.161 176.819 218.161 177.984Z" fill="black"/>
<path d="M282.988 193.488H299.404V217.048C297.529 218.821 295.325 220.113 292.792 220.924C290.309 221.684 287.826 222.064 285.344 222.064C282.354 222.064 279.644 221.532 277.212 220.468C274.78 219.404 272.702 217.757 270.98 215.528C269.308 213.248 267.99 210.385 267.028 206.94C266.116 203.444 265.66 199.264 265.66 194.4C265.66 189.333 266.217 185.052 267.332 181.556C268.446 178.06 269.916 175.223 271.74 173.044C273.614 170.815 275.768 169.219 278.2 168.256C280.682 167.243 283.292 166.736 286.028 166.736C288.46 166.736 290.664 166.964 292.64 167.42C294.666 167.825 296.338 168.307 297.656 168.864L295.68 177.148C294.666 176.692 293.476 176.312 292.108 176.008C290.79 175.704 289.169 175.552 287.244 175.552C285.47 175.552 283.849 175.907 282.38 176.616C280.961 177.325 279.745 178.44 278.732 179.96C277.769 181.48 277.009 183.456 276.452 185.888C275.945 188.269 275.692 191.132 275.692 194.476C275.692 200.911 276.654 205.648 278.58 208.688C280.556 211.728 283.14 213.248 286.332 213.248C287.345 213.248 288.308 213.096 289.22 212.792C290.182 212.488 291.018 212.007 291.728 211.348V200.48L282.988 199.264V193.488Z" fill="black"/>
<path d="M312.624 167.8H339.224V176.616H322.2V189.688H337.628V198.504H322.2V212.184H339.528V221H312.624V167.8Z" fill="black"/>
<path d="M352.88 168.332C354.958 167.876 357.187 167.547 359.568 167.344C361.95 167.141 364.002 167.04 365.724 167.04C367.903 167.04 370.031 167.268 372.108 167.724C374.186 168.129 376.01 168.915 377.58 170.08C379.202 171.195 380.494 172.74 381.456 174.716C382.47 176.641 382.976 179.099 382.976 182.088C382.976 186.395 382.166 189.916 380.544 192.652C378.974 195.337 376.795 197.187 374.008 198.2L377.048 200.632L386.852 221H375.832L366.56 200.024L362.456 199.036V221H352.88V168.332ZM362.456 192.5H365.724C368.106 192.5 369.904 191.791 371.12 190.372C372.336 188.903 372.944 186.648 372.944 183.608C372.944 181.328 372.438 179.479 371.424 178.06C370.411 176.591 368.815 175.856 366.636 175.856C365.826 175.856 365.04 175.881 364.28 175.932C363.52 175.983 362.912 176.084 362.456 176.236V192.5Z" fill="black"/>
<path d="M432.751 193.564L433.815 183.38H433.435L430.623 192.5L421.959 211.196H418.767L409.571 192.424L406.759 183.228H406.303L407.747 193.488V221H398.703V167.8H407.899L418.995 190.828L420.819 197.44H421.123L422.871 190.676L433.283 167.8H442.327V221H432.751V193.564Z" fill="black"/>
<path d="M478.28 208.992H465.74L462.624 221H453.124L468.552 167.42H476.076L491.58 221H481.548L478.28 208.992ZM467.792 201.088H476.608L473.568 188.7L472.352 180.34H472.048L470.756 188.776L467.792 201.088Z" fill="black"/>
<path d="M514.15 194.856L510.654 185.508H510.274L511.49 194.704V221H502.446V167.42H509.818L525.094 194.172L528.362 203.368H528.818L527.602 194.324V167.8H536.646V221.38H529.274L514.15 194.856Z" fill="black"/>
<path d="M561.653 201.24L547.365 167.8H558.765L566.137 187.94L566.897 193.716H567.277L568.113 187.788L575.333 167.8H585.593L571.229 201.164V221H561.653V201.24Z" fill="black"/>
<path fill-rule="evenodd" clip-rule="evenodd" d="M2 166.8H13.576V222H2V166.8ZM60.8694 177.616H48.2534V222H36.6774V177.616H24.0614V166.8H60.8694V177.616ZM37.6774 176.616V221H47.2534V176.616H59.8694V167.8H25.0614V176.616H37.6774ZM91.1986 221L87.9306 208.992H75.3906L72.2746 221H62.7746L78.2026 167.42H85.7266L101.231 221H91.1986ZM76.1642 209.992L73.0482 222H61.446L77.4499 166.42H86.4783L102.561 222H90.4344L87.1664 209.992H76.1642ZM82.2359 188.892L81.829 186.094L81.3887 188.969L78.7119 200.088H84.9835L82.2359 188.892ZM86.2586 201.088H77.4426L80.4066 188.776L81.6986 180.34H82.0026L83.2186 188.7L86.2586 201.088ZM141.369 222H111.097V166.8H122.673V211.184H141.369V222ZM121.673 212.184V167.8H112.097V221H140.369V212.184H121.673ZM169.008 201.164V221H159.432V201.24L145.144 167.8H156.544L163.916 187.94L164.676 193.716H165.056L165.892 187.788L173.112 167.8H183.372L169.008 201.164ZM164.894 187.705L164.893 187.7L157.243 166.8H143.629L158.432 201.445V222H170.008V201.37L184.891 166.8H172.41L164.916 187.546L164.894 187.705ZM202.006 200.489L202.01 200.476C202.593 198.674 203.389 196.976 204.397 195.385C205.398 193.803 206.559 192.352 207.878 191.033C209.004 189.907 210.186 188.887 211.423 187.973C210.545 186.504 209.796 184.995 209.177 183.447L209.172 183.436L209.168 183.424C208.467 181.537 208.117 179.57 208.117 177.528C208.117 176.155 208.337 174.787 208.771 173.429C209.218 171.98 209.945 170.691 210.95 169.572C211.969 168.387 213.258 167.468 214.796 166.808C216.424 166.08 218.342 165.736 220.517 165.736C222.577 165.736 224.4 166.025 225.961 166.636C227.481 167.181 228.753 167.959 229.737 168.993C230.753 169.958 231.494 171.101 231.95 172.411C232.393 173.685 232.613 175.013 232.613 176.388C232.613 178.72 231.918 181.09 230.588 183.486L230.583 183.494C229.333 185.693 227.377 187.798 224.766 189.819C225.906 191.939 227.106 194.08 228.367 196.241C229.58 198.207 230.899 200.121 232.324 201.983C232.906 201.052 233.423 200.004 233.87 198.835C234.52 197.085 235.12 195.284 235.671 193.431L236 192.325L244.585 196.28L244.357 197.1C244.092 198.053 243.725 199.125 243.261 200.312C242.795 201.501 242.279 202.689 241.711 203.875L241.708 203.883L241.704 203.891C241.144 205.011 240.584 206.106 240.023 207.176L240.018 207.185L240.014 207.194C239.601 207.944 239.198 208.62 238.804 209.22C239.844 210.389 240.799 211.344 241.669 212.092C242.753 212.929 243.807 213.663 244.832 214.298L245.713 214.844L240.017 223.341L239.236 222.965C237.791 222.269 236.383 221.365 235.013 220.258L235.006 220.252L234.998 220.246C233.943 219.359 232.909 218.358 231.896 217.243C230.449 218.711 228.743 219.998 226.787 221.109L226.781 221.113C224.413 222.435 221.496 223.064 218.085 223.064C215.703 223.064 213.462 222.694 211.371 221.944C209.323 221.242 207.53 220.185 206.005 218.769L205.998 218.762L205.991 218.756C204.465 217.284 203.275 215.493 202.416 213.4L202.412 213.389L202.408 213.379C201.596 211.268 201.201 208.889 201.201 206.256C201.201 204.242 201.466 202.323 202.002 200.502L202.006 200.489ZM211.701 221C213.677 221.709 215.805 222.064 218.085 222.064C221.379 222.064 224.115 221.456 226.293 220.24C228.199 219.157 229.845 217.908 231.232 216.493C231.468 216.252 231.696 216.006 231.917 215.756C232.138 216.014 232.36 216.266 232.583 216.512C233.586 217.62 234.605 218.609 235.641 219.48C236.959 220.544 238.301 221.405 239.669 222.064L244.305 215.148C244.026 214.975 243.745 214.796 243.463 214.609C242.668 214.084 241.86 213.503 241.037 212.868C239.973 211.956 238.808 210.765 237.541 209.296C238.048 208.587 238.58 207.725 239.137 206.712C239.695 205.648 240.252 204.559 240.809 203.444C241.367 202.279 241.873 201.113 242.329 199.948C242.785 198.783 243.14 197.744 243.393 196.832L236.629 193.716C236.533 194.04 236.435 194.362 236.336 194.682C235.861 196.219 235.35 197.721 234.805 199.188C234.289 200.539 233.679 201.75 232.975 202.821C232.781 203.115 232.581 203.399 232.373 203.672C232.158 203.401 231.945 203.129 231.734 202.856C230.208 200.882 228.8 198.848 227.509 196.756C226.091 194.324 224.748 191.917 223.481 189.536C226.369 187.408 228.447 185.229 229.713 183C230.98 180.72 231.613 178.516 231.613 176.388C231.613 175.121 231.411 173.905 231.005 172.74C230.6 171.575 229.941 170.561 229.029 169.7C228.168 168.788 227.028 168.079 225.609 167.572C224.191 167.015 222.493 166.736 220.517 166.736C218.44 166.736 216.667 167.065 215.197 167.724C213.779 168.332 212.613 169.168 211.701 170.232C210.789 171.245 210.131 172.411 209.725 173.728C209.32 174.995 209.117 176.261 209.117 177.528C209.117 179.453 209.447 181.303 210.105 183.076C210.815 184.849 211.701 186.572 212.765 188.244C211.296 189.257 209.903 190.423 208.585 191.74C207.319 193.007 206.204 194.4 205.241 195.92C204.279 197.44 203.519 199.061 202.961 200.784C202.455 202.507 202.201 204.331 202.201 206.256C202.201 208.789 202.581 211.044 203.341 213.02C204.152 214.996 205.267 216.668 206.685 218.036C208.104 219.353 209.776 220.341 211.701 221ZM220.284 202.465L220.278 202.455C218.923 200.296 217.723 198.184 216.679 196.121C215.414 197.495 214.399 198.838 213.627 200.151L213.621 200.162C212.717 201.654 212.245 203.444 212.245 205.572C212.245 207.961 212.894 209.709 214.081 210.945C215.335 212.15 216.969 212.78 219.073 212.78C220.514 212.78 221.829 212.423 223.036 211.71C224.042 211.076 224.827 210.417 225.414 209.741C223.555 207.256 221.848 204.834 220.291 202.475L220.284 202.465ZM226.673 209.752C225.964 210.765 224.925 211.703 223.557 212.564C222.189 213.375 220.695 213.78 219.073 213.78C216.743 213.78 214.843 213.071 213.373 211.652C211.955 210.183 211.245 208.156 211.245 205.572C211.245 203.292 211.752 201.316 212.765 199.644C213.633 198.169 214.779 196.676 216.204 195.164C216.443 194.91 216.69 194.655 216.945 194.4C217.097 194.716 217.252 195.033 217.411 195.351C218.476 197.485 219.715 199.675 221.125 201.924C222.797 204.457 224.647 207.067 226.673 209.752ZM222.899 175.759L222.877 175.727C222.598 175.308 222.142 175.032 221.277 175.032C220.557 175.032 220.084 175.28 219.731 175.759C219.383 176.249 219.161 176.961 219.161 177.984C219.161 179.669 219.628 181.423 220.607 183.255C221.553 182.349 222.24 181.514 222.691 180.752C223.288 179.693 223.545 178.776 223.545 177.984C223.545 176.977 223.306 176.277 222.923 175.79L222.899 175.759ZM223.557 181.252C223.018 182.166 222.205 183.13 221.121 184.146C220.882 184.369 220.63 184.595 220.365 184.824C220.181 184.532 220.008 184.24 219.847 183.95C218.723 181.922 218.161 179.934 218.161 177.984C218.161 176.819 218.415 175.881 218.921 175.172C219.479 174.412 220.264 174.032 221.277 174.032C222.392 174.032 223.203 174.412 223.709 175.172C224.267 175.881 224.545 176.819 224.545 177.984C224.545 178.997 224.216 180.087 223.557 181.252ZM281.988 192.488H300.404V217.479L300.091 217.774C298.104 219.654 295.768 221.021 293.096 221.876L293.084 221.88C290.511 222.668 287.93 223.064 285.344 223.064C282.234 223.064 279.384 222.51 276.811 221.384C274.216 220.249 272.007 218.493 270.188 216.139L270.181 216.13L270.173 216.119C268.414 213.72 267.051 210.741 266.064 207.209L266.062 207.201L266.06 207.192C265.12 203.591 264.66 199.322 264.66 194.4C264.66 189.266 265.223 184.876 266.379 181.252C267.522 177.667 269.045 174.705 270.973 172.402L270.974 172.4C272.942 170.06 275.225 168.359 277.826 167.328C280.43 166.266 283.166 165.736 286.028 165.736C288.515 165.736 290.791 165.969 292.85 166.442C294.91 166.855 296.648 167.352 298.045 167.943L298.825 168.273L296.372 178.556L295.269 178.06C294.332 177.638 293.208 177.277 291.891 176.984L291.883 176.982C290.663 176.701 289.122 176.552 287.244 176.552C285.61 176.552 284.141 176.877 282.82 177.514C281.585 178.133 280.498 179.115 279.57 180.505C278.69 181.897 277.968 183.752 277.428 186.103C276.941 188.394 276.692 191.181 276.692 194.476C276.692 200.847 277.651 205.35 279.421 208.148C281.242 210.946 283.53 212.248 286.332 212.248C287.243 212.248 288.099 212.112 288.903 211.843L288.911 211.841L288.918 211.838C289.603 211.622 290.203 211.306 290.728 210.89V201.35L281.988 200.134V192.488ZM291.728 200.48V211.348C291.018 212.007 290.182 212.488 289.22 212.792C288.308 213.096 287.345 213.248 286.332 213.248C283.14 213.248 280.556 211.728 278.58 208.688C276.654 205.648 275.692 200.911 275.692 194.476C275.692 191.132 275.945 188.269 276.452 185.888C277.009 183.456 277.769 181.48 278.732 179.96C279.745 178.44 280.961 177.325 282.38 176.616C283.849 175.907 285.47 175.552 287.244 175.552C289.169 175.552 290.79 175.704 292.108 176.008C293.074 176.223 293.953 176.476 294.742 176.766C295.07 176.887 295.382 177.014 295.68 177.148L297.656 168.864C296.338 168.307 294.666 167.825 292.64 167.42C290.664 166.964 288.46 166.736 286.028 166.736C283.292 166.736 280.682 167.243 278.2 168.256C275.768 169.219 273.614 170.815 271.74 173.044C269.916 175.223 268.446 178.06 267.332 181.556C266.217 185.052 265.66 189.333 265.66 194.4C265.66 199.264 266.116 203.444 267.028 206.94C267.99 210.385 269.308 213.248 270.98 215.528C272.702 217.757 274.78 219.404 277.212 220.468C279.644 221.532 282.354 222.064 285.344 222.064C287.826 222.064 290.309 221.684 292.792 220.924C295.325 220.113 297.529 218.821 299.404 217.048V193.488H282.988V199.264L291.728 200.48ZM311.624 166.8H340.224V177.616H323.2V188.688H338.628V199.504H323.2V211.184H340.528V222H311.624V166.8ZM322.2 212.184V198.504H337.628V189.688H322.2V176.616H339.224V167.8H312.624V221H339.528V212.184H322.2ZM351.88 167.528L352.666 167.355C354.791 166.889 357.064 166.554 359.483 166.348C361.883 166.143 363.965 166.04 365.724 166.04C367.969 166.04 370.165 166.275 372.311 166.745C374.512 167.176 376.468 168.013 378.162 169.266C379.93 170.486 381.323 172.164 382.348 174.264C383.455 176.374 383.976 179.001 383.976 182.088C383.976 186.513 383.144 190.226 381.405 193.162C380.028 195.514 378.198 197.286 375.926 198.453L377.851 199.993L388.443 222H375.181L365.845 200.88L363.456 200.305V222H351.88V167.528ZM362.456 199.036L366.56 200.024L375.832 221H386.852L377.048 200.632L374.008 198.2C374.37 198.068 374.722 197.923 375.063 197.763C377.35 196.692 379.177 194.989 380.544 192.652C382.166 189.916 382.976 186.395 382.976 182.088C382.976 179.099 382.47 176.641 381.456 174.716C380.494 172.74 379.202 171.195 377.58 170.08C376.01 168.915 374.186 168.129 372.108 167.724C370.031 167.268 367.903 167.04 365.724 167.04C364.002 167.04 361.95 167.141 359.568 167.344C357.187 167.547 354.958 167.876 352.88 168.332V221H362.456V199.036ZM370.606 178.635L370.601 178.628C369.817 177.49 368.568 176.856 366.636 176.856C365.846 176.856 365.083 176.881 364.347 176.93C364.005 176.953 363.709 176.986 363.456 177.026V191.5H365.724C367.896 191.5 369.379 190.863 370.355 189.728C371.354 188.517 371.944 186.54 371.944 183.608C371.944 181.473 371.47 179.845 370.611 178.641L370.606 178.635ZM371.12 190.372C369.904 191.791 368.106 192.5 365.724 192.5H362.456V176.236C362.912 176.084 363.52 175.983 364.28 175.932C365.04 175.881 365.826 175.856 366.636 175.856C368.815 175.856 370.411 176.591 371.424 178.06C372.438 179.479 372.944 181.328 372.944 183.608C372.944 186.648 372.336 188.903 371.12 190.372ZM431.751 193.512L431.953 191.581L431.559 192.859L422.598 212.196H418.143L408.667 192.853L408.747 193.418V222H397.703V166.8H408.527L419.935 190.475L420.944 194.134L421.925 190.341L432.639 166.8H443.327V222H431.751V193.512ZM422.871 190.676L433.283 167.8H442.327V221H432.751V193.564L433.815 183.38H433.435L430.623 192.5L421.959 211.196H418.767L409.571 192.424L406.759 183.228H406.303L407.747 193.488V221H398.703V167.8H407.899L418.995 190.828L420.819 197.44H421.123L422.871 190.676ZM481.548 221L478.28 208.992H465.74L462.624 221H453.124L468.552 167.42H476.076L491.58 221H481.548ZM466.513 209.992L463.397 222H451.795L467.799 166.42H476.827L492.91 222H480.783L477.515 209.992H466.513ZM472.585 188.892L472.178 186.094L471.738 188.969L469.061 200.088H475.333L472.585 188.892ZM476.608 201.088H467.792L470.756 188.776L472.048 180.34H472.352L473.568 188.7L476.608 201.088ZM513.241 195.282L512.21 192.525L512.49 194.638V222H501.446V166.42H510.398L526.006 193.753L526.826 196.061L526.602 194.391V166.8H537.646V222.38H528.693L513.241 195.282ZM528.818 203.368H528.362L525.094 194.172L509.818 167.42H502.446V221H511.49V194.704L510.274 185.508H510.654L514.15 194.856L529.274 221.38H536.646V167.8H527.602V194.324L528.818 203.368ZM571.229 201.164V221H561.653V201.24L547.365 167.8H558.765L566.137 187.94L566.897 193.716H567.277L568.113 187.788L575.333 167.8H585.593L571.229 201.164ZM567.115 187.705L567.114 187.7L559.464 166.8H545.85L560.653 201.445V222H572.229V201.37L587.112 166.8H574.631L567.137 187.546L567.115 187.705ZM3 167.8V221H12.576V167.8H3Z" fill="black"/>
<path fill-rule="evenodd" clip-rule="evenodd" d="M112.609 123H79.5209V135H505.521V123H472.433C444.408 51.0224 374.43 0 292.521 0C210.611 0 140.634 51.0224 112.609 123ZM125.552 123H203.086C223.603 97.4054 255.147 81 290.521 81C325.895 81 357.439 97.4054 377.956 123H459.49C432.117 57.7875 367.659 12 292.521 12C217.383 12 152.924 57.7875 125.552 123ZM361.936 123C343.781 104.479 318.492 93 290.521 93C262.55 93 237.261 104.479 219.106 123H361.936ZM79.5209 251H505.521V263H472.433C444.408 334.978 374.43 386 292.521 386C210.611 386 140.634 334.978 112.609 263H79.5209V251ZM125.552 263C152.924 328.213 217.383 374 292.521 374C367.659 374 432.117 328.213 459.49 263H377.956C357.439 288.595 325.895 305 290.521 305C255.147 305 223.603 288.595 203.086 263H125.552ZM219.106 263C237.261 281.521 262.55 293 290.521 293C318.492 293 343.781 281.521 361.936 263H219.106Z" fill="black"/>
<path d="M208.721 333.8L203.721 330L214.221 316L220.321 308.4L220.221 308.3L196.421 324.5L191.821 321.1L200.821 293.8L200.721 293.7L195.121 301.7L184.621 315.7L179.521 311.9L199.621 285.1L207.721 291.2L201.521 309.4L198.721 316.7L198.821 316.8L205.121 312.1L220.921 301.1L228.821 307L208.721 333.8Z" fill="black"/>
<path d="M244.821 340.2L232.721 335.8L227.321 342.5L220.621 340L243.621 312.8L251.521 315.7L251.421 351.4L244.621 348.9L244.821 340.2ZM245.021 334.7L245.321 324.8L245.621 319.5H245.521L242.521 323.7L236.221 331.5L245.021 334.7Z" fill="black"/>
<path d="M291.521 327C294.121 330.2 295.221 334.4 294.721 339.7C294.221 345 292.421 349 289.321 351.6C286.221 354.2 282.021 355.3 276.821 354.9L263.921 353.8L266.921 320.4L279.821 321.6C285.021 322 288.921 323.9 291.521 327ZM284.421 347.1C286.221 345.3 287.221 342.7 287.521 339.1C287.821 335.5 287.321 332.7 285.821 330.6C284.421 328.6 282.121 327.4 278.921 327.1L273.321 326.6L271.321 348.8L276.921 349.3C280.121 349.6 282.621 348.9 284.421 347.1Z" fill="black"/>
<path d="M332.321 345.7L333.221 351.3L307.721 355.5L302.321 322.5L327.121 318.4L328.021 324L310.121 326.9L311.421 335.1L325.521 332.8L326.421 338.1L312.321 340.4L313.721 348.8L332.321 345.7Z" fill="black"/>
<path d="M369.821 336.4L363.621 339.6L348.521 309.7L354.721 306.5L369.821 336.4Z" fill="black"/>
<path d="M405.621 311.4L399.321 316.4L377.921 308.2L372.121 305.6L375.921 310.1L387.921 325.3L383.021 329.2L362.221 303L368.421 298.1L389.821 306.2L395.621 308.9L395.721 308.8L391.921 304.3L379.921 289.1L384.821 285.2L405.621 311.4Z" fill="black"/>
<path d="M225.921 80.6L220.921 84.6L209.621 70.9L203.521 63L203.421 63.1L213.621 90.6L209.121 94.3L184.321 78.6L184.221 78.7L190.821 86.2L202.121 100L197.121 104.1L175.521 77.6L183.521 71.1L200.121 81.6L206.621 86.2L206.721 86.1L203.621 78.8L196.521 60.5L204.321 54.2L225.921 80.6Z" fill="black"/>
<path d="M248.721 62.3L236.521 67.1L236.921 75.9L230.121 78.5L229.321 42.2L237.221 39.1L261.221 66.4L254.321 69.1L248.721 62.3ZM245.121 58L238.621 50.2L235.321 45.9H235.221L235.721 51.1L236.221 61.4L245.121 58Z" fill="black"/>
<path d="M288.821 33.6C292.021 36.3 293.821 40.3 294.321 45.8C294.821 51.2 293.721 55.5 291.121 58.8C288.521 62 284.521 63.9 279.221 64.4L266.121 65.5L262.921 31.5L276.121 30.3C281.421 29.8 285.621 30.9 288.821 33.6ZM285.421 55.1C286.821 53 287.421 50.1 287.121 46.5C286.821 42.8 285.721 40.1 283.921 38.3C282.121 36.5 279.621 35.8 276.321 36.1L270.621 36.6L272.721 59.3L278.421 58.8C281.621 58.4 283.921 57.2 285.421 55.1Z" fill="black"/>
<path d="M330.021 62.5L329.021 68.2L303.121 63.6L309.121 30L334.321 34.5L333.321 40.2L315.121 37L313.621 45.4L327.921 47.9L326.921 53.3L312.621 50.8L311.121 59.4L330.021 62.5Z" fill="black"/>
<path d="M356.921 81.1L350.621 77.7L367.121 47.8L373.421 51.2L356.921 81.1Z" fill="black"/>
<path d="M387.221 104.7L381.021 99.3L385.221 76.3L386.721 70L382.921 74.7L369.921 89.6L365.121 85.4L387.521 59.6L393.621 64.9L389.521 87.8L387.921 94.1L388.021 94.2L391.821 89.5L404.821 74.6L409.621 78.8L387.221 104.7Z" fill="black"/>
<path fill-rule="evenodd" clip-rule="evenodd" d="M308.312 28.8398L335.478 33.6908L334.133 41.3581L315.93 38.1576L314.782 44.5878L329.088 47.0889L327.724 54.4556L313.434 51.9573L312.28 58.5767L331.181 61.6769L329.833 69.3598L301.961 64.4096L308.312 28.8398ZM309.93 31.1602L304.281 62.7904L328.209 67.0402L328.861 63.3232L309.962 60.2233L311.808 49.6427L326.118 52.1444L326.754 48.7111L312.46 46.2122L314.312 35.8424L332.509 39.0419L333.164 35.3092L309.93 31.1602ZM288.176 34.3643C285.232 31.8802 281.322 30.8138 276.215 31.2956L276.211 31.2959L264.01 32.4051L267.024 64.4207L279.127 63.4044C279.129 63.4043 279.13 63.4041 279.132 63.4039C284.236 62.9214 287.953 61.1093 290.34 58.1752C292.741 55.124 293.807 51.0997 293.325 45.8922L293.325 45.8905C292.841 40.5652 291.117 36.8454 288.176 34.3643ZM276.029 29.3043C281.521 28.7864 286.01 29.9201 289.466 32.8357C292.925 35.7545 294.801 40.0344 295.317 45.7087C295.834 51.2973 294.702 55.871 291.906 59.4189L291.902 59.4248L291.897 59.4306C289.085 62.8921 284.805 64.8777 279.315 65.3956L279.305 65.3965L265.218 66.5793L261.831 30.5949L276.027 29.3044C276.028 29.3044 276.028 29.3043 276.029 29.3043ZM276.232 35.104C279.72 34.7872 282.553 35.518 284.628 37.5929C286.649 39.6136 287.805 42.5696 288.118 46.418C288.429 50.1591 287.818 53.3075 286.253 55.6547L286.244 55.6681L286.235 55.6812C284.53 58.0671 281.942 59.3677 278.545 59.7923L278.527 59.7946L271.817 60.3831L269.533 35.6916L276.23 35.1041C276.231 35.1041 276.231 35.104 276.232 35.104ZM283.214 39.0071C281.689 37.4824 279.522 36.8131 276.411 37.0959L276.408 37.0962L271.709 37.5084L273.625 58.2169L278.315 57.8055C281.301 57.4288 283.304 56.3346 284.598 54.5318C285.827 52.6798 286.412 50.0331 286.124 46.583L286.124 46.5808C285.836 43.0298 284.793 40.5862 283.214 39.0071ZM237.509 37.9128L262.914 66.8113L254.01 70.2955L248.411 63.4966L237.552 67.7688L237.953 76.5761L229.152 79.9409L228.306 41.5241L237.509 37.9128ZM230.336 42.8759L231.089 77.0591L235.889 75.2239L235.489 66.4312L249.031 61.1034L254.632 67.9045L259.528 65.9887L236.933 40.2872L230.336 42.8759ZM234.12 44.9H235.814L239.402 49.5752L246.785 58.4348L235.289 62.8265L234.723 51.1722L234.12 44.9ZM236.536 49.1254L237.84 50.8248L243.457 57.5652L237.153 59.9735L236.719 51.0279L236.536 49.1254ZM366.724 46.4495L374.784 50.7994L357.318 82.4505L349.258 78.1006L366.724 46.4495ZM367.518 49.1505L351.984 77.2994L356.524 79.7495L372.058 51.6006L367.518 49.1505ZM204.466 52.7977L227.335 80.7493L220.776 85.9963L208.839 71.5239L206.477 68.4653L214.806 90.9201L209.197 95.5319L189.256 82.9075L191.583 85.5527L203.528 100.14L196.979 105.509L174.113 77.4555L183.448 69.8707L200.677 80.7687L204.528 83.4935L202.694 79.1764L195.324 60.1809L204.466 52.7977ZM197.717 60.8191L204.547 78.4236L207.905 86.3301L206.732 87.5035L199.564 82.4313L183.594 72.3293L176.929 77.7445L197.262 102.691L200.714 99.8604L190.058 86.8473L182.85 78.6563L184.18 77.327L209.045 93.0681L212.436 90.2799L202.26 62.8464L203.618 61.4891L210.403 70.2761L221.065 83.2037L224.507 80.4507L204.176 55.6023L197.717 60.8191ZM387.422 58.189L394.705 64.5175L390.499 88.0115L389.931 90.2466L391.055 88.8567L404.726 73.188L411.028 78.7021L387.321 106.113L379.935 99.6803L384.242 76.0942L384.727 74.0566L383.687 75.3433L370.016 91.012L363.713 85.4966L387.422 58.189ZM387.62 61.011L366.529 85.3034L369.826 88.188L382.155 74.0569L388.715 65.9435L386.2 76.5058L382.107 98.9197L387.121 103.287L408.214 78.8979L404.916 76.012L392.587 90.1431L388.1 95.6931L386.812 94.405L388.543 87.5884L392.536 65.2826L387.62 61.011ZM199.422 283.699L208.901 290.837L202.461 309.741L200.798 314.078L204.523 311.299L204.536 311.289L204.55 311.279L220.941 299.867L230.222 306.798L208.917 335.205L202.325 330.195L213.431 315.387L215.652 312.62L196.397 325.726L190.645 321.474L197.895 299.48L195.931 302.287L184.823 317.098L178.119 312.103L199.422 283.699ZM384.982 283.794L407.026 311.562L399.496 317.538L377.537 309.124L375.716 308.308L376.696 309.467L376.706 309.48L389.323 325.462L382.86 330.606L360.815 302.837L368.245 296.964L390.209 305.278L392.233 306.22L391.157 304.945L391.146 304.933L391.136 304.92L378.519 288.938L384.982 283.794ZM199.82 286.502L180.923 311.698L184.419 314.303L194.311 301.113L200.585 292.15L201.963 293.528L192.997 320.726L196.445 323.274L220.343 307.008L221.662 308.327L215.011 316.613L205.117 329.805L208.525 332.395L227.42 307.202L220.9 302.333L205.706 312.911L198.725 318.119L197.555 316.948L200.58 309.06L206.541 291.563L199.82 286.502ZM381.323 289.262L392.696 303.668L397.078 308.857L395.833 310.102L389.432 307.122L368.597 299.236L363.627 303.163L383.182 327.794L386.519 325.138L375.146 310.733L368.526 302.893L378.304 307.276L399.146 315.262L404.216 311.239L384.66 286.606L381.323 289.262ZM355.159 305.149L371.16 336.834L363.183 340.951L347.181 309.266L355.159 305.149ZM349.86 310.134L364.059 338.249L368.481 335.966L354.283 307.851L349.86 310.134ZM243.309 311.62L252.523 315.003L252.417 352.832L243.605 349.592L243.805 340.895L233.051 336.984L227.647 343.689L218.939 340.44L243.309 311.62ZM243.933 313.98L222.302 339.56L226.995 341.311L232.391 334.616L245.837 339.506L245.637 348.208L250.425 349.969L250.519 316.398L243.933 313.98ZM327.949 317.25L329.167 324.828L311.265 327.728L312.251 333.951L326.34 331.653L327.575 338.925L313.472 341.226L314.543 347.649L333.149 344.548L334.366 352.125L306.896 356.65L301.173 321.676L327.949 317.25ZM303.469 323.324L308.546 354.351L332.075 350.475L331.493 346.852L312.899 349.951L311.169 339.575L325.266 337.275L324.701 333.947L310.59 336.249L308.977 326.072L326.875 323.173L326.293 319.551L303.469 323.324ZM245.006 318.5H246.679L246.32 324.83L246.319 324.857L245.979 336.112L234.563 331.961L241.724 323.095L245.006 318.5ZM244.436 322.74L243.317 324.305L237.879 331.039L244.063 333.288L244.322 324.757L244.436 322.74ZM266.015 319.311L279.898 320.603C279.9 320.603 279.903 320.604 279.906 320.604C285.314 321.022 289.483 323.014 292.287 326.358L292.292 326.363L292.297 326.37C295.101 329.82 296.235 334.301 295.716 339.794C295.2 345.266 293.325 349.547 289.964 352.366C286.609 355.18 282.124 356.311 276.744 355.897L276.736 355.897L262.835 354.711L266.015 319.311ZM267.827 321.489L265.007 352.889L276.898 353.903C276.9 353.903 276.903 353.903 276.905 353.904C281.922 354.288 285.835 353.219 288.678 350.834C291.517 348.453 293.242 344.734 293.725 339.606C294.207 334.503 293.142 330.585 290.75 327.637C288.355 324.786 284.728 322.981 279.744 322.597L279.736 322.597L267.827 321.489ZM272.415 325.515L279.014 326.104C282.42 326.424 285.025 327.723 286.637 330.022C288.329 332.393 288.827 335.468 288.517 339.183C288.206 342.918 287.155 345.78 285.128 347.807C283.056 349.879 280.225 350.614 276.828 350.296C276.828 350.296 276.828 350.296 276.828 350.296L270.235 349.707L272.415 325.515ZM274.227 327.685L272.407 347.893L277.014 348.304C280.017 348.586 282.186 347.921 283.714 346.393C285.287 344.82 286.236 342.482 286.524 339.017C286.815 335.534 286.313 333.01 285.007 331.181L285.002 331.174C283.813 329.476 281.82 328.376 278.828 328.096C278.828 328.096 278.828 328.096 278.828 328.096L274.227 327.685Z" fill="black"/>
</svg>
