<svg viewBox="0 0 658 386" fill="none" xmlns="http://www.w3.org/2000/svg"><path d="M2 167.8h26.6v8.8h-17v13.8h15.6v8.9H11.6V221H2v-53.2zM41.4 168.3a51.7 51.7 0 0119.3-.6c2 .4 3.9 1.2 5.4 2.4 1.7 1 3 2.6 4 4.6 1 2 1.4 4.4 1.4 7.4 0 4.3-.8 7.8-2.4 10.6a12.3 12.3 0 01-6.5 5.5l3 2.4 9.8 20.4h-11L55 200l-4-1v22h-9.7v-52.7zm9.6 24.2h3.3c2.4 0 4.2-.7 5.4-2.1 1.2-1.5 1.8-3.8 1.8-6.8 0-2.3-.5-4.1-1.5-5.5-1-1.5-2.6-2.2-4.8-2.2a35.2 35.2 0 00-4.2.3v16.3zM106.3 209H93.8l-3.1 12h-9.5l15.4-53.6h7.5l15.5 53.6h-10l-3.3-12zm-10.5-8h8.8l-3-12.3-1.2-8.4h-.3l-1.3 8.5-3 12.3zM142.2 194.9l-3.5-9.4h-.4l1.2 9.2V221h-9v-53.6h7.4l15.2 26.8 3.3 9.2h.5l-1.3-9v-26.6h9v53.6h-7.3l-15.1-26.5zM209.3 218.9c-1.3 1-3 1.9-5.3 2.4-2.2.5-4.4.8-6.6.8-2.7 0-5.2-.5-7.6-1.4-2.4-1-4.4-2.5-6.2-4.7-1.8-2.2-3.2-5-4.2-8.6-1-3.6-1.5-8-1.5-13 0-5.4.6-10 1.7-13.5a24 24 0 014.5-8.4c1.8-2.1 4-3.6 6.4-4.5 2.3-.8 4.7-1.3 7.2-1.3a30.1 30.1 0 0111 2l-2 8.4a19.8 19.8 0 00-8-1.6 9 9 0 00-8 4.6 28 28 0 00-2.8 14.3c0 2.8.2 5.3.7 7.7.4 2.3 1 4.2 2 5.9 1 1.7 2.2 3 3.6 3.9 1.4.9 3.2 1.3 5.2 1.3a13.5 13.5 0 008-2.4l1.9 8zM221.5 167.8H248v8.8h-17v13h15.4v8.9H231v13.7h17.4v8.8h-27v-53.2zM271.6 206.3a19.3 19.3 0 016.4-14.6 30 30 0 014.2-3.5c-1-1.6-2-3.4-2.7-5.1-.6-1.8-1-3.6-1-5.6 0-1.2.2-2.5.6-3.8.4-1.3 1-2.5 2-3.5s2-1.9 3.5-2.5a13 13 0 015.3-1c2 0 3.7.3 5.1.9 1.4.5 2.6 1.2 3.4 2.1 1 .9 1.6 1.9 2 3 .4 1.2.6 2.4.6 3.7 0 2.1-.6 4.3-1.9 6.6a22 22 0 01-6.2 6.5l4 7.3a71 71 0 004.9 6.9 18 18 0 002.4-4.5 86 86 0 001.8-5.5l6.8 3.1a32.6 32.6 0 01-2.6 6.6 193.4 193.4 0 01-3.3 5.9c1.3 1.5 2.5 2.7 3.5 3.6 1.2.8 2.2 1.6 3.3 2.2l-4.6 7c-1.4-.7-2.7-1.6-4-2.6-1.3-1-2.6-2.3-3.8-3.7a21.7 21.7 0 01-5.6 4.4c-2.2 1.3-5 1.9-8.2 1.9-2.3 0-4.4-.4-6.4-1.1-2-.7-3.6-1.6-5-3-1.4-1.3-2.5-3-3.4-5-.7-2-1-4.2-1-6.7zm24.5 3.5a76 76 0 01-9.7-15.4 26.6 26.6 0 00-4.2 5.2c-1 1.7-1.5 3.7-1.5 6 0 2.6.7 4.6 2 6a7.9 7.9 0 005.8 2.2c1.6 0 3.1-.4 4.5-1.2 1.3-.9 2.4-1.8 3-2.8zm-8.5-31.8c0 2.2.7 4.5 2.2 6.8 1.4-1.2 2.5-2.4 3.2-3.5.6-1.2 1-2.3 1-3.3 0-1.2-.3-2.1-.9-2.8-.5-.8-1.3-1.2-2.4-1.2-1 0-1.8.4-2.4 1.2-.5.7-.7 1.6-.7 2.8zM352.4 193.5h16.4V217a17 17 0 01-6.6 4c-2.5.7-5 1-7.5 1-3 0-5.7-.5-8-1.5-2.5-1.1-4.6-2.7-6.3-5-1.7-2.3-3-5.1-4-8.6-.9-3.5-1.3-7.6-1.3-12.5 0-5 .5-9.3 1.6-12.8a25 25 0 014.4-8.6c2-2.2 4-3.8 6.5-4.7 2.5-1 5.1-1.6 7.8-1.6a29.5 29.5 0 0111.7 2.2l-2 8.2a18.5 18.5 0 00-8.5-1.5 9.5 9.5 0 00-8.5 4.4 19 19 0 00-2.2 5.9 42 42 0 00-.8 8.6c0 6.4 1 11.1 2.9 14.2 2 3 4.5 4.5 7.7 4.5 1 0 2-.1 3-.4.9-.3 1.7-.8 2.4-1.5v-10.8l-8.7-1.2v-5.8zM382 167.8h26.6v8.8h-17v13H407v8.9h-15.4v13.7H409v8.8H382v-53.2zM422.3 168.3a51.7 51.7 0 0119.2-.6c2 .4 4 1.2 5.5 2.4 1.6 1 2.9 2.6 3.9 4.6 1 2 1.5 4.4 1.5 7.4 0 4.3-.8 7.8-2.4 10.6a12.3 12.3 0 01-6.6 5.5l3 2.4 9.9 20.4h-11l-9.3-21-4.1-1v22h-9.6v-52.7zm9.6 24.2h3.2c2.4 0 4.2-.7 5.4-2.1 1.2-1.5 1.9-3.8 1.9-6.8 0-2.3-.6-4.1-1.6-5.5-1-1.5-2.6-2.2-4.8-2.2a35.2 35.2 0 00-4.1.3v16.3zM502.2 193.6l1-10.2h-.4l-2.8 9.1-8.6 18.7h-3.2l-9.2-18.8-2.8-9.2h-.5l1.5 10.3V221h-9v-53.2h9.1l11.1 23 1.8 6.6h.3l1.8-6.7 10.4-22.9h9V221h-9.5v-27.4zM547.7 209H535l-3 12h-9.6l15.5-53.6h7.5L561 221h-10l-3.3-12zm-10.5-8h8.8l-3-12.3-1.2-8.4h-.3l-1.3 8.5-3 12.3zM583.6 194.9l-3.5-9.4h-.4l1.2 9.2V221h-9v-53.6h7.3l15.3 26.8 3.3 9.2h.4l-1.2-9v-26.6h9v53.6h-7.3l-15.1-26.5zM631 201.2l-14.2-33.4h11.4l7.3 20.1.8 5.8h.4l.8-6 7.2-19.9H655l-14.4 33.4V221h-9.5v-19.8z" fill="#000"/><path fill-rule="evenodd" clip-rule="evenodd" d="M1 166.8h28.6v10.8h-17v11.8h15.6v10.9H12.6V222H1v-55.2zm10.6 32.5h15.6v-8.9H11.6v-13.8h17v-8.8H2V221h9.6v-21.7zm28.8-31.8l.8-.1a52.7 52.7 0 0119.7-.7c2.2.5 4.1 1.3 5.8 2.6 1.8 1.2 3.2 2.9 4.2 5 1.1 2 1.6 4.7 1.6 7.8 0 4.4-.8 8.1-2.5 11a13.4 13.4 0 01-5.5 5.4l2 1.5L77 222H63.7l-9.3-21.1-2.4-.6V222H40.4v-54.5zM51 199l4.1 1 9.3 21h11l-9.8-20.4-3-2.4 1-.4c2.3-1.1 4.1-2.8 5.5-5.1 1.6-2.8 2.4-6.3 2.4-10.6 0-3-.5-5.5-1.5-7.4a13.3 13.3 0 00-9.3-7c-2.1-.4-4.2-.7-6.4-.7a74 74 0 00-12.9 1.3V221H51v-22zm8.2-20.4c-.8-1.1-2-1.7-4-1.7a34.5 34.5 0 00-3.2.1v14.5h2.3c2.2 0 3.6-.6 4.6-1.8 1-1.2 1.6-3.2 1.6-6 0-2.2-.5-3.9-1.3-5zm.5 11.8c-1.2 1.4-3 2.1-5.4 2.1H51v-16.3l1.8-.3h2.4c2.2 0 3.8.7 4.8 2.2 1 1.4 1.5 3.2 1.5 5.5 0 3-.6 5.3-1.8 6.8zm49.9 30.6l-3.3-12H93.8l-3.1 12h-9.5l15.4-53.6h7.5l15.5 53.6h-10zm-15-11l-3.2 12H79.8l16-55.6h9L121 222h-12.2l-3.2-12h-11zm6-21.1l-.4-2.8-.4 2.9-2.7 11h6.3l-2.8-11.1zm4 12.2h-8.8l3-12.3 1.3-8.5h.3l1.2 8.4 3 12.4zm36.7-5.8l-1-2.8.2 2.1V222h-11v-55.6h9l15.5 27.4.9 2.3-.3-1.7v-27.6h11v55.6h-8.9l-15.4-27.1zm15.6 8h-.5l-3.3-9.1-15.2-26.8h-7.4V221h9v-26.3l-1.2-9.2h.4l3.5 9.4 15.1 26.5h7.4v-53.6h-9v26.5l1.2 9zm53.5 16l-.5.3a13.3 13.3 0 01-5.7 2.7c-2.2.5-4.5.8-6.8.8-2.8 0-5.5-.5-8-1.5s-4.7-2.7-6.6-5a24.8 24.8 0 01-4.3-9c-1-3.6-1.6-8-1.6-13.3 0-5.4.6-10 1.7-13.7a25 25 0 014.7-8.7c2-2.3 4.3-3.9 6.8-4.8a22 22 0 017.6-1.4 31 31 0 0111.4 2l.8.4-2.4 10.5-1.2-.6a18.8 18.8 0 00-7.5-1.5 8 8 0 00-7.2 4.1 27.1 27.1 0 00-2.7 13.8c0 2.7.2 5.2.6 7.5.5 2.2 1.1 4 2 5.6a10 10 0 003.2 3.5c1.3.8 2.9 1.2 4.7 1.2 1.7 0 3.1-.2 4.2-.6 1.2-.5 2.3-1 3.3-1.6l1.1-.8 2.4 10zm-6.4-6.7c-1.3.4-2.8.6-4.6.6-2 0-3.8-.4-5.2-1.3a11 11 0 01-3.6-3.9c-1-1.7-1.6-3.6-2-6a45 45 0 01-.7-7.6 28 28 0 012.9-14.3 9 9 0 018-4.5 19.8 19.8 0 018 1.5l1.9-8.4a30.1 30.1 0 00-11-2c-2.5 0-4.9.5-7.2 1.3-2.4.9-4.6 2.4-6.4 4.5a24 24 0 00-4.5 8.4c-1.1 3.6-1.7 8-1.7 13.4 0 5.2.5 9.5 1.5 13.1 1 3.5 2.4 6.4 4.2 8.6 1.8 2.2 3.8 3.7 6.2 4.7 2.4 1 5 1.4 7.6 1.4 2.2 0 4.4-.3 6.6-.8 2.2-.5 4-1.3 5.3-2.4l-1.9-8a16.7 16.7 0 01-3.4 1.7zm16.5-45.8H249v10.8h-17v11h15.4v10.9H232v11.7h17.4V222h-29v-55.2zm10.5 45.4v-13.7h15.5v-8.8H231v-13h17v-8.9h-26.5V221h26.9v-8.8H231zm40.4-11.7a22.3 22.3 0 015.9-9.5l3.5-3a32 32 0 01-2.2-4.6c-.7-1.9-1-3.8-1-5.9 0-1.3.1-2.7.6-4a10.4 10.4 0 016-6.6 14 14 0 015.7-1.2c2 0 4 .3 5.5 1 1.5.5 2.8 1.3 3.7 2.3 1 1 1.8 2.1 2.3 3.4.4 1.3.6 2.6.6 4 0 2.3-.7 4.7-2 7a22 22 0 01-5.8 6.4 69.4 69.4 0 007.6 12.2l1.5-3.2 1.8-5.4.3-1 8.6 3.9-.2.8a33.7 33.7 0 01-2.7 6.8l-1.7 3.3-1.2 2c1 1.2 2 2.1 2.9 2.9l3.1 2.2 1 .5-5.8 8.5-.8-.3c-1.4-.7-2.8-1.6-4.2-2.7l-3.1-3a17.7 17.7 0 01-13.8 5.8c-2.4 0-4.6-.4-6.7-1.2-2-.7-3.9-1.7-5.4-3.1a15.5 15.5 0 01-3.6-5.4c-.8-2.1-1.2-4.5-1.2-7.1 0-2 .3-4 .8-5.8zm29.2 16l.7-.7a35.9 35.9 0 003.7 3.7c1.4 1 2.7 2 4 2.6l4.7-7a32.7 32.7 0 01-3.3-2.2c-1-1-2.2-2.1-3.5-3.6.6-.7 1-1.6 1.6-2.6a193.4 193.4 0 003.2-6.8l1.1-3-6.8-3.2a90.8 90.8 0 01-1.8 5.5 19 19 0 01-2.4 4.5 81.7 81.7 0 01-9-14.2 22 22 0 006.3-6.5c1.3-2.3 2-4.5 2-6.6a11 11 0 00-.7-3.7c-.4-1.1-1-2.1-2-3-.8-1-2-1.6-3.4-2.1a14 14 0 00-5-.9c-2.2 0-4 .4-5.4 1a9.4 9.4 0 00-3.5 2.5c-1 1-1.6 2.2-2 3.5-.4 1.3-.6 2.6-.6 3.8 0 2 .4 3.8 1 5.6.7 1.7 1.6 3.5 2.7 5.1a30 30 0 00-7.6 7.7 19.3 19.3 0 00-3 10.3c0 2.6.4 4.8 1.1 6.8.9 2 2 3.7 3.4 5 1.4 1.4 3 2.3 5 3 2 .7 4.1 1 6.4 1a16.7 16.7 0 0013.1-5.5zm-11-14a79.4 79.4 0 01-3.5-6.4 24 24 0 00-3 4c-1 1.6-1.4 3.3-1.4 5.5 0 2.4.6 4.1 1.8 5.3a6.9 6.9 0 005 1.9c1.4 0 2.7-.4 4-1 1-.7 1.7-1.4 2.3-2l-5.1-7.3zm6.5 7.3c-.7 1-1.8 1.9-3.1 2.8a8.6 8.6 0 01-4.5 1.2c-2.4 0-4.3-.7-5.7-2.1a8.4 8.4 0 01-2.1-6.1c0-2.3.5-4.3 1.5-6a25.4 25.4 0 014.2-5.2 59.2 59.2 0 004.1 7.5 152 152 0 005.6 7.9zm-3.8-34c-.3-.5-.8-.8-1.6-.8-.7 0-1.2.3-1.6.8-.3.4-.5 1.2-.5 2.2 0 1.7.4 3.4 1.4 5.3 1-1 1.6-1.8 2.1-2.5.6-1.1.9-2 .9-2.8 0-1-.3-1.7-.7-2.2zm-1.8 8.3l-.7.7-.5-.9c-1.2-2-1.7-4-1.7-6 0-1 .2-2 .7-2.7.6-.8 1.4-1.2 2.4-1.2 1.1 0 2 .4 2.4 1.2.6.7.9 1.6.9 2.8 0 1-.4 2-1 3.3-.6.9-1.4 1.8-2.5 2.8zm60.9 8.4h18.4v25l-.3.3a18 18 0 01-7 4c-2.6.9-5.2 1.3-7.8 1.3-3 0-6-.6-8.5-1.7a16.8 16.8 0 01-6.6-5.3 27.4 27.4 0 01-4.1-8.9c-1-3.6-1.4-7.9-1.4-12.8 0-5.1.5-9.5 1.7-13.1a26 26 0 014.6-8.9c2-2.3 4.2-4 6.8-5 2.6-1.1 5.4-1.7 8.2-1.7a30.5 30.5 0 0112 2.2l.8.4-2.4 10.3-1.1-.5a21 21 0 00-8-1.5 10 10 0 00-4.5 1 8.5 8.5 0 00-3.2 3 18 18 0 00-2.2 5.5c-.5 2.3-.7 5-.7 8.4 0 6.3 1 10.8 2.7 13.6a8 8 0 009.5 3.7c.7-.2 1.3-.5 1.8-1v-9.5l-8.7-1.2v-7.6zm9.7 8v10.8c-.7.7-1.5 1.2-2.5 1.5a9 9 0 01-2.9.4c-3.2 0-5.7-1.5-7.7-4.5s-2.9-7.8-2.9-14.2c0-3.4.3-6.2.8-8.6a19 19 0 012.2-6 9.5 9.5 0 018.5-4.3 22 22 0 018.5 1.5l2-8.2c-1.4-.6-3-1-5-1.5-2-.4-4.2-.7-6.7-.7-2.7 0-5.3.5-7.8 1.6-2.4 1-4.6 2.5-6.5 4.7a25 25 0 00-4.4 8.6 42.7 42.7 0 00-1.6 12.8c0 4.9.4 9 1.3 12.5 1 3.5 2.3 6.3 4 8.6 1.7 2.3 3.8 3.9 6.2 5a20 20 0 008.1 1.6c2.5 0 5-.4 7.5-1.2a17 17 0 006.6-3.9v-23.5h-16.4v5.8l8.7 1.2zm20-33.7h28.5v10.8h-17v11H408v10.9h-15.4v11.7H410V222H381v-55.2zm10.5 45.4v-13.7H407v-8.8h-15.4v-13h17v-8.9H382V221h27v-8.8h-17.4zm29.7-44.7l.8-.1a52.7 52.7 0 0119.6-.7c2.2.5 4.2 1.3 5.9 2.6 1.7 1.2 3.1 2.9 4.2 5 1 2 1.6 4.7 1.6 7.8 0 4.4-.8 8.1-2.6 11a13.4 13.4 0 01-5.5 5.4l2 1.5 10.5 22h-13.2l-9.3-21.1-2.4-.6V222h-11.6v-54.5zm10.6 31.5l4 1 9.3 21h11l-9.7-20.4-3-2.4 1-.4c2.3-1.1 4-2.8 5.4-5.1 1.7-2.8 2.5-6.3 2.5-10.6 0-3-.5-5.5-1.5-7.4-1-2-2.3-3.5-4-4.6-1.5-1.2-3.3-2-5.4-2.4-2-.4-4.2-.7-6.4-.7a73.9 73.9 0 00-12.8 1.3V221h9.6v-22zm8.1-20.4c-.8-1.1-2-1.7-4-1.7a34.5 34.5 0 00-3.1.1v14.5h2.2c2.2 0 3.7-.6 4.7-1.8 1-1.2 1.6-3.2 1.6-6 0-2.2-.5-3.9-1.4-5zm.5 11.8c-1.2 1.4-3 2.1-5.4 2.1H432v-16.3l1.8-.3h2.3c2.2 0 3.8.7 4.8 2.2 1 1.4 1.6 3.2 1.6 5.5 0 3-.7 5.3-1.9 6.8zm60.7 3.1l.2-2-.4 1.4-9 19.3h-4.5l-9.4-19.3V222h-11v-55.2H478l11.4 23.7 1 3.6 1-3.8 10.7-23.5h10.7V222h-11.5v-28.5zm-9-2.8l10.5-22.9h9V221h-9.5v-27.4l1-10.2h-.4l-2.8 9.1-8.6 18.7h-3.2l-9.2-18.8-2.8-9.2h-.5l1.5 10.3V221h-9v-53.2h9.1l11.1 23 1.8 6.6h.3l1.8-6.7zM551 221l-3.3-12H535l-3 12h-9.6l15.5-53.6h7.5L561 221h-10zm-15-11l-3.2 12h-11.6l16-55.6h9l16.1 55.6h-12.1l-3.3-12h-11zm6-21.1l-.4-2.8-.5 2.9-2.6 11h6.2L542 189zm4 12.2h-8.8l3-12.3 1.3-8.5h.3l1.2 8.4 3 12.4zm36.6-5.8l-1-2.8.3 2.1V222h-11v-55.6h8.9l15.6 27.4.8 2.3-.2-1.7v-27.6h11v55.6h-8.9l-15.5-27.1zm15.6 8h-.4l-3.3-9.1-15.3-26.8H572V221h9v-26.3l-1.2-9.2h.4l3.5 9.4 15 26.5h7.5v-53.6h-9v26.5l1.1 9zm42.4-2.1V221h-9.5v-19.8l-14.3-33.4h11.4l7.3 20.1.8 5.8h.4l.8-6 7.2-19.9H655l-14.4 33.4zm-4-13.5l-7.7-20.9h-13.6l14.8 34.6V222h11.5v-20.6l15-34.6H644l-7.5 20.7v.2zM147.2 123h-33v12h426v-12H507a193 193 0 00-359.9 0zm13 0h77.5a111.8 111.8 0 01174.9 0H494a181 181 0 00-334 0zm236.4 0a99.7 99.7 0 00-142.9 0h142.9zM114 251h426v12h-33a193 193 0 01-359.9 0h-33v-12zm46 12a181 181 0 00334 0h-81.5a111.8 111.8 0 01-174.9 0h-77.5zm93.6 0a99.7 99.7 0 00142.9 0H253.7z" fill="#000"/><path d="M243.3 333.8l-5-3.8 10.5-14 6.1-7.6v-.1L231 324.5l-4.6-3.4 9-27.3v-.1l-5.7 8-10.5 14-5-3.8 20-26.8 8.1 6.1-6.2 18.2-2.8 7.3.1.1 6.3-4.7 15.8-11 8 5.9-20.2 26.8zM279.4 340.2l-12-4.4-5.5 6.7-6.7-2.5 23-27.2 8 2.9-.2 35.7-6.8-2.5.2-8.7zm.2-5.5l.3-9.9.3-5.3-3 4.2-6.4 7.8 8.8 3.2zM326.1 327c2.6 3.2 3.7 7.4 3.2 12.7-.5 5.3-2.3 9.3-5.4 11.9a16.8 16.8 0 01-12.5 3.3l-12.9-1.1 3-33.4 13 1.2c5.1.4 9 2.3 11.6 5.4zm-7 20.1c1.7-1.8 2.7-4.4 3-8 .3-3.6-.2-6.4-1.7-8.5-1.4-2-3.7-3.2-6.9-3.5l-5.6-.5-2 22.2 5.6.5c3.2.3 5.7-.4 7.5-2.2zM367 345.7l.8 5.6-25.5 4.2-5.4-33 24.8-4.1 1 5.6-18 2.9 1.3 8.2 14.1-2.3 1 5.3-14.2 2.3 1.4 8.4 18.6-3.1zM404.4 336.4l-6.2 3.2-15-29.9 6.1-3.2 15.1 29.9zM440.2 311.4l-6.3 5-21.4-8.2-5.8-2.6 3.8 4.5 12 15.2-4.9 3.9-20.8-26.2 6.2-4.9 21.4 8.1 5.8 2.7.1-.1-3.8-4.5-12-15.2 5-3.9 20.7 26.2zM260.5 80.6l-5 4-11.3-13.7-6-7.9-.2.1 10.2 27.5-4.5 3.7L219 78.6v.1l6.5 7.5 11.3 13.8-5 4.1-21.6-26.5 8-6.5 16.6 10.5 6.5 4.6.1-.1-3-7.3-7.2-18.3 7.8-6.3 21.6 26.4zM283.3 62.3l-12.2 4.8.4 8.8-6.8 2.6-.8-36.3 8-3.1 24 27.3-7 2.7-5.6-6.8zm-3.6-4.3l-6.5-7.8-3.3-4.3.4 5.2.5 10.3 9-3.4zM323.4 33.6c3.2 2.7 5 6.7 5.5 12.2.5 5.4-.6 9.7-3.2 13a16.6 16.6 0 01-11.9 5.6l-13 1.1-3.3-34 13.2-1.2c5.3-.5 9.5.6 12.7 3.3zM320 55.1c1.4-2.1 2-5 1.7-8.6-.3-3.7-1.4-6.4-3.2-8.2-1.8-1.8-4.3-2.5-7.6-2.2l-5.7.5 2.1 22.7 5.7-.5c3.2-.4 5.5-1.6 7-3.7zM364.6 62.5l-1 5.7-25.9-4.6 6-33.6 25.2 4.5-1 5.7-18.2-3.2-1.5 8.4 14.3 2.5-1 5.4-14.3-2.5-1.5 8.6 19 3.1zM391.5 81.1l-6.3-3.4 16.5-29.9 6.3 3.4-16.5 29.9zM421.8 104.7l-6.2-5.4 4.2-23 1.5-6.3-3.8 4.7-13 14.9-4.8-4.2 22.4-25.8 6.1 5.3-4 22.9-1.7 6.3.1.1 3.8-4.7 13-14.9 4.8 4.2-22.4 25.9z" fill="#000"/><path fill-rule="evenodd" clip-rule="evenodd" d="M343 28.8l27.1 4.9-1.3 7.7-18.2-3.2-1.2 6.4 14.3 2.5-1.4 7.4-14.2-2.5-1.2 6.6 18.9 3-1.3 7.8-28-5 6.4-35.6zm1.6 2.4l-5.7 31.6 24 4.2.6-3.7-19-3 2-10.7 14.2 2.5.7-3.4-14.3-2.5 1.8-10.4 18.2 3.2.7-3.7-23.3-4.1zm-21.8 3.2c-3-2.5-6.9-3.6-12-3.1l-12.2 1.1 3 32 12.1-1c5.2-.5 8.9-2.3 11.3-5.2 2.4-3 3.4-7.1 3-12.3-.5-5.3-2.3-9-5.2-11.5zm-12.2-5.1c5.5-.5 10 .6 13.5 3.5 3.4 3 5.3 7.2 5.8 13 .6 5.5-.6 10-3.4 13.6-2.8 3.5-7 5.5-12.6 6l-14 1.2-3.4-36 14.1-1.3zm.3 5.8c3.4-.3 6.3.4 8.3 2.5 2 2 3.2 5 3.5 8.8.4 3.8-.3 7-1.8 9.3a10.5 10.5 0 01-7.7 4l-6.8.7-2.2-24.7 6.7-.6zm7 4c-1.6-1.6-3.8-2.3-6.9-2l-4.7.4 2 20.7 4.6-.4c3-.4 5-1.5 6.3-3.3 1.2-1.8 1.8-4.5 1.5-8-.2-3.5-1.3-6-2.9-7.5zM272 37.8l25.4 29-8.9 3.4-5.6-6.8-10.8 4.3.4 8.8-8.8 3.3-.9-38.4 9.2-3.6zm-7.1 5l.7 34.2 4.8-1.9-.4-8.8 13.6-5.3 5.6 6.8 4.8-2-22.5-25.6-6.6 2.6zm3.7 2h1.7l3.6 4.7 7.4 8.8-11.5 4.4-.6-11.6-.6-6.3zm2.5 4.2l1.3 1.7 5.6 6.8-6.3 2.4-.5-9-.1-1.9zm130.1-2.7l8.1 4.4-17.5 31.7-8-4.4 17.4-31.7zm.8 2.8l-15.5 28.1 4.5 2.4 15.6-28.1-4.6-2.4zm-163 3.6l22.9 28-6.6 5.2-12-14.5-2.3-3 8.3 22.4-5.6 4.6-20-12.6 2.4 2.7 12 14.5-6.6 5.4-22.9-28 9.4-7.6 17.2 10.9 3.8 2.7-1.8-4.3-7.4-19 9.2-7.4zm-6.8 8l6.9 17.6 3.3 8-1.1 1.1-7.2-5-16-10.2-6.6 5.4 20.3 25 3.4-2.8-10.6-13-7.2-8.2 1.3-1.4 24.9 15.8 3.4-2.8-10.2-27.5 1.3-1.3 6.8 8.8 10.7 12.9 3.4-2.7-20.3-24.9-6.5 5.2zM422 58.2l7.3 6.3-4.2 23.5-.5 2.2 1-1.3 13.7-15.7 6.3 5.5-23.7 27.4-7.3-6.4 4.3-23.6.4-2-1 1.2L404.6 91l-6.3-5.5L422 58.2zm.2 2.8l-21 24.3 3.2 2.9L416.8 74l6.5-8.2-2.5 10.6-4 22.4 5 4.4 21-24.4-3.3-2.9-12.3 14.1-4.5 5.6-1.3-1.3 1.8-6.8 4-22.3-5-4.3zM234 283.7l9.5 7.1-6.4 19-1.7 4.3 3.7-2.8 16.5-11.4 9.2 6.9-21.3 28.4-6.6-5 11.2-14.8 2.2-2.8-19.3 13.1-5.7-4.2 7.2-22-2 2.8-11 14.8-6.8-5 21.3-28.4zm185.6 0l22 27.9-7.5 6-22-8.5-1.8-.8 1 1.2 12.6 16-6.4 5.1-22-27.8 7.4-5.8 22 8.3 2 1-1.1-1.4-12.7-16 6.5-5.1zm-185.2 2.8l-18.9 25.2 3.5 2.6 10-13.2 6.2-9 1.4 1.4-9 27.2 3.5 2.6L255 307l1.3 1.3-6.7 8.3-9.9 13.2 3.4 2.6 19-25.2-6.6-4.9-15.2 10.6-7 5.2-1.1-1.2 3-7.8 6-17.5-6.8-5.1zm181.5 2.8l11.4 14.4 4.4 5.2-1.2 1.2-6.4-3-20.9-7.9-5 4 19.6 24.6 3.3-2.7-11.3-14.4-6.7-7.8 9.8 4.4 20.9 8 5-4-19.5-24.7-3.4 2.7zM389.8 305l16 31.7-8 4.2-16-31.7 8-4.2zm-5.3 5l14.2 28.1 4.4-2.2-14.2-28.1-4.4 2.2zm-106.6 1.5l9.2 3.4v37.8l-8.9-3.2.2-8.7-10.7-4-5.4 6.8-8.7-3.3 24.3-28.8zm.7 2.4l-21.7 25.6 4.7 1.7 5.4-6.7 13.5 5-.2 8.6 4.7 1.8.1-33.6-6.5-2.4zm84 3.3l1.2 7.5-18 3 1 6.2 14.2-2.3 1.2 7.2-14.1 2.3 1 6.4 18.7-3 1.2 7.5-27.5 4.5-5.7-35 26.8-4.4zm-24.5 6l5 31 23.6-3.8-.6-3.6-18.6 3-1.7-10.3 14-2.3-.5-3.4-14 2.3-1.7-10.1 17.9-3-.6-3.5-22.8 3.7zm-58.5-4.8h1.7l-.4 6.3-.3 11.3-11.4-4.1 7.1-8.9 3.3-4.6zm-.5 4.2l-1.2 1.6-5.4 6.7 6.2 2.3.2-8.5.2-2zm21.5-3.4l14 1.3c5.3.4 9.5 2.4 12.3 5.8 2.8 3.4 4 7.9 3.4 13.4-.5 5.5-2.4 9.7-5.7 12.6-3.4 2.8-7.9 4-13.2 3.5l-14-1.2 3.2-35.4zm1.8 2.2l-2.8 31.4 12 1c5 .4 8.9-.7 11.7-3 2.8-2.4 4.6-6.2 5-11.3.5-5.1-.5-9-3-12-2.3-2.8-6-4.6-11-5l-11.9-1.1zm4.6 4l6.6.6c3.4.3 6 1.6 7.7 4 1.6 2.3 2.1 5.4 1.8 9-.3 3.8-1.3 6.7-3.4 8.7-2 2-4.9 2.8-8.3 2.5l-6.5-.6 2.1-24.2zm1.8 2.2l-1.8 20.2 4.6.4c3 .3 5.2-.4 6.7-2 1.6-1.5 2.6-3.8 2.8-7.3.3-3.5-.2-6-1.5-7.8-1.2-1.7-3.2-2.8-6.2-3.1l-4.6-.4z" fill="#000"/></svg>