<svg xmlns="http://www.w3.org/2000/svg" fill="none" viewBox="0 0 1701 381">
  <path fill="#000" d="M1685.5 200.7c2.6-1.3 5.2-2.6 6.8-5.2a23.9 23.9 0 007.5-16.9 22 22 0 00-6.8-16.6c-4.2-4.2-9.1-6.4-14.6-7.4h-20.1v69.1h11v-21.4h5.8l13.7 21.4h12.6l-15.9-23zm-10.7-8.5h-6.8v-27.9h6.8a11 11 0 019.1 4.2 13 13 0 014.2 9.8c0 3.5-1.3 7.4-4.2 10a11.3 11.3 0 01-9 4zM501.4 164.3h16V224h11v-59.7h16.2V155h-43.2v9.4zM623.8 184.4h-25.3V155H588V224h10.4v-29.8h25.3V224h11v-69h-11v29.4zM681.9 224h38.3v-9.7h-27.3v-20.1h27.3v-9.8h-27.3v-20h27.3v-9.5h-38.3V224zM828 179.6c-2.3-1-4.3-2.3-5.9-3.6a7.4 7.4 0 01-2-5.2c0-2 .4-3.6 2-5.2 2-2.3 5.5-2.6 7.8-.3.3 0 .3.3.3.3 1 1.3 2 2.6 2.3 4.6v1.3l10-3.6v-1c-.9-2.6-2.2-5.5-4.1-7.5a17.7 17.7 0 00-12.4-5.1c-4.5 0-9 1.9-12.3 5.1a14.5 14.5 0 00-5.2 11.4c0 4.6 2 8.8 5.2 11.4 3.2 3.2 7.4 5.5 12 6.8 3.2 1.3 5.8 3.2 8.1 5.8 2.3 2.3 3.6 5.2 3.6 8.1 0 3.3-1.3 6.5-3.6 8.8a11.3 11.3 0 01-8.1 3.3c-3 0-5.8-1-8.1-3.3a14.4 14.4 0 01-3.6-9.7v-2l-10.4 3.6v1.3c.3 5.2 2.6 9.7 5.9 12.7 4.2 4.5 10 6.8 15.9 6.8 5.8 0 11.3-2.3 15.9-6.5 4.2-4.2 6.5-9.8 6.5-15.6 0-5.8-2.3-11.4-6.5-15.3-3-3.5-7.8-6.1-13.3-7.4zM890.3 164.3h15.9V224h11v-59.7h15.6V155h-42.5v9.4zM993.2 155l-25.3 69h11.3l10.4-27.9h16.6l10 28h11.4l-25.3-69.2h-9.1zm0 31.4l4.5-12.7 5.2 12.7h-9.7zM1104.8 195.2a26.9 26.9 0 007.5-17c0-6.4-2.6-12.3-7.5-16.5-4.2-4.2-9-6.5-14.6-7.4h-20v69h11V202h5.8l14.3 21.4h12.6l-15.6-23.7c2.3-.7 5-2.3 6.5-4.5zm-16.8-3h-7.5v-27.9h7.5a11 11 0 019 4.2c2.7 2.6 4.3 5.9 3.6 9.8 0 3.5-1.3 7.4-4.2 10-1.6 2.6-4.9 4-8.4 4zM1216.5 155h-20.1v69h11v-21.4h6.8c6.5 0 12.7-2.6 17.5-7.4a23.3 23.3 0 006.9-17 22 22 0 00-6.8-16.5 25.2 25.2 0 00-15.3-6.8zm7.1 33.7c-2.2 2.2-5.8 4.2-9 3.5h-6.9v-27.9h6.8a11 11 0 019.1 4.2 13 13 0 014.3 9.8c-.4 3.9-1.7 7.4-4.3 10.4zM1317.8 154a35.2 35.2 0 00-35.7 34.7v1c0 9 3.5 18.1 10.4 24.6 6.8 6.8 15.9 11 25.6 10.4 9.7 0 18.8-3.6 25.6-10.4 6.8-6.5 11-15.6 10.4-24.7 0-9.7-3.5-18.8-10.4-25.3a37.1 37.1 0 00-26-10.4zm17.8 53.5a24.6 24.6 0 01-35.4 0 23.8 23.8 0 01-7.4-18.2 25.5 25.5 0 0125-25.6c6.8 0 13.3 2.6 17.8 7.4a27.6 27.6 0 017.5 18.2c0 7.2-3 13.6-7.5 18.2zM1421.3 179.6c-2.3-1-4.2-2.3-5.8-3.6a7.4 7.4 0 01-2-5.2c0-2 .3-3.6 2-5.2 2-2.3 5.5-2.6 7.8-.3.3 0 .3.3.3.3 1 1.3 2 2.6 2.3 4.6v1.3l10-3.6v-1c-1-2.6-2.3-5.5-4.2-7.5a17.7 17.7 0 00-12.3-5.1c-4.6 0-9.1 1.9-12.4 5.1a14.5 14.5 0 00-5.2 11.4c0 4.6 2 8.8 5.2 11.4 3.3 3.2 7.5 5.5 12 6.8 3.3 1.3 5.9 3.2 8.2 5.8 2.2 2.3 3.5 5.2 3.5 8.1 0 3.3-1.3 6.5-3.5 8.8a11 11 0 01-16 0 14.4 14.4 0 01-3.5-9.7v-2l-10.4 3.6v1.3c.3 12.3 11 22 23.4 21 12.3-.2 22-11 21-23.3 0-5.8-2.2-11.3-6.4-15.2a28.4 28.4 0 00-14-7.8zM1483 164.3h16.2V224h11v-59.7h16V155H1483v9.4zM1570 224h39v-9.7h-28v-20.1h28v-9.8h-28v-20h28v-9.5h-39V224zM395.6 249a209.5 209.5 0 01-53.2 30.8 191.5 191.5 0 01-48 12.3l-38.1-65.5c2-1.8 3.2-4.4 3.2-7.4 0-1.2-.3-2.3-.9-3.5l11.2 4.1h2a6 6 0 005.6-4.1l3.9-10.6c.8-3-.6-6.5-3.6-7.6l-16.7-6h-1.2l-20.9-7.6c0-.3 0-.3-.3-.3l-60.2-42.3c-1.2-.9-2.7-.6-3.8.3l-1.2.6a103 103 0 00-14.4 24.7c-3.8 10-6.2 20.3-6.8 30.9 0 .5 0 1.1.3 1.7a3.2 3.2 0 003 1.8l74.3 3.5 1.2.6 11.8 4.4a10.4 10.4 0 00-5.3 9.1c0 2.4.8 4.4 2 6.5l-30.3 58.8A200.4 200.4 0 0181.1 165.4a199.3 199.3 0 011.7-151.7l5.3-12.3-10.6 8.5a207.5 207.5 0 00-62.9 238.4c10.6 27.4 27 52.3 48.2 72.6 0 .6.6 1 1 1.2h.2a208.2 208.2 0 00336.6-69l5.3-12.7-10.3 8.5zM256 293.2l-3.8-60.3 35 60c-10.4.9-21 .9-31.2.3zm-7.7-70.6c-2 0-3.5-1.4-3.5-3.5-.3-2 1.2-3.5 3.2-3.8h.3c2 0 3.9 1.8 3.9 3.8 0 2-1.5 3.5-3.6 3.5h-.3zm22.7-10.2l-11-3.9 3-8.5 11 4.1-3 8.3zM177.2 149l54 37.9-.2.9-3.8 10v.5l-67.6-3.2a96.3 96.3 0 0117.6-46.1zm60.3 42l15.2 5.6-2.9 8.2-15.3-5.6 3-8.2zm7.6 38.8l3.8 63a213.1 213.1 0 01-33.2-6.3l29.4-56.7zm37 130A200.7 200.7 0 0170 318.5l5-8c.9-1.7.3-3.8-1.2-4.7-1.7-.8-3.8-.3-4.7 1.2l-4 6.8-6-6.5 8.6-14.1c.8-1.5.5-3.5-1-4.4a3.7 3.7 0 00-4.6.9l-7.7 12-6.1-7.6 12.3-20a3.7 3.7 0 00.6-5 3.7 3.7 0 00-5-.6c-.6.3-.9.9-1.2 1.8l-11.2 17.9c-1.7-2.6-3.5-5-5.2-8l15.8-25c1-1.7.3-3.7-1.2-4.6-1.4-1.2-3.5-1-4.4.6 0 0 0 .3-.3.3l-13.8 22.3-5.3-9.4 17.7-28c.9-1.4.6-3.5-1-4.3 0 0-.2 0-.2-.3-1.5-1.2-3.5-1-4.4.5 0 0 0 .3-.3.3l-15.3 24.7-4.4-10L41.1 216c.9-1.8.3-3.5-1.2-4.7-1.4-.9-3.5-.6-4.4.9 0 0 0 .3-.3.3l-16.7 26.7A200.6 200.6 0 0171.7 24a208.2 208.2 0 00195.2 276.3l.8 38.3c.3 1.7 1.8 3.2 3.6 3.2 2 0 3.5-1.5 3.5-3.5l-1.2-38h8.8l1 33.9c0 1.7 1.4 3.2 3.1 3.2h.3c1.8 0 3.3-1.5 3.3-3.2v-.3l-1-33.8v-.6l9.2-1.2.9 30c-.3 1.7 1.2 3.2 3 3.5h.5c1.8-.3 3.3-1.8 3.3-3.5l-1-30.9 8.6-1.8.6 23.3c0 1.7 1.5 3.2 3.2 3.2h.3c1.8-.3 3.2-1.8 3.2-3.5l-.5-24.7c3.2-.6 6.1-1.5 9-2.7l.7 14.4c-.3 1.8 1.1 3.3 2.9 3.6h.3c1.8 0 3.5-1.8 3.5-3.6l-.6-16.4 8.6-3v8.3c0 1.7 1.4 3.2 3.2 3.2h.3c1.7 0 3.2-1.5 3.2-3.2V283.3a202 202 0 0037.3-20.9 198.8 198.8 0 01-106.7 97.3z"/>
  <path fill="#000" d="M80.5 318a3.3 3.3 0 00-3.2 3.2c0 1.8 1.4 3.3 3.2 3.3 1.8 0 3.2-1.5 3.2-3.3 0-1.7-1.4-3.2-3.2-3.2zM360 290.6c1.5 1 3.6.6 4.7-.8 1-1.5.6-3.6-1.1-4.7a3.3 3.3 0 00-4.4 1.1 3 3 0 00.8 4.4zM102.8 132l-19 8.1 20.8-1.4c2-.3 4.4.9 5 3 2.3 6 5.3 12.3 8.2 19.3-.6-7-.9-13-1.5-18.8-.5-5.9.6-6.8 4.8-8.2l17.6-7.4-21.2 1.5c-2 .6-4.4-.6-5-2.7-2.3-6.4-5.3-12.6-8.2-19.4.3 7.1.9 14.2 1.5 21 .6 2-1 4.3-3 5zM208 74.6l23.3-13a5.2 5.2 0 017.3 1c6.2 5.8 12.7 11.4 19.7 17.6-4-7.4-7.6-14.4-11.7-20.9-4.1-6.5-2.7-8 1.1-11.8 3.9-3.8 10.6-11.1 16.5-17.9l-23.5 13.2c-2.4 1.5-5.3 1.2-7-.8-6.2-6-13-11.5-20-18 4.4 8.3 8.5 15.9 12.9 23.3 1.7 2.3 1.5 5.5-.9 7.3l-17.6 20zM343.9 78.1c.6 5 1.4 10.3 2.3 15.9.9-5.6 2-10.9 3-15.9 0-1.7 1.4-3.2 3.2-3.2l15.9-2.4-14.1-2.6c-2.7.3-5-2-5.3-4.7v-.3c-.3-4.7-1.2-9.1-1.8-14.7l-3.2 16.2c0 1.4-1.5 2.9-3 2.9l-16.1 2.4 15.8 3.2c1.8 0 3.3 1.5 3.3 3.2zM340.3 211.3c4.2-3.5 7.7-6.5 11-9.7 1.4-2.4 4.6-2.7 7-1.2l.3.3 12.9 7.3c-4.1-4.7-7.3-8.5-11.2-12.3-1.1-1.2-1.1-3-.3-4.4l8-14.4-12 10.9a3.3 3.3 0 01-4.8.6c-4.7-3-9.4-5.6-14-8 3.7 4.1 7 8.2 10.8 12a3.6 3.6 0 01.3 4.8l-8 14zM186 236.3c0-1.8-1.5-3.3-3.2-3.3a3.3 3.3 0 00-3.3 3.3 3.3 3.3 0 006.5 0zM233.3 133c-.8 3 1.2 6.3 4.2 7.1 2.9.6 5.8-1.1 6.7-4 .6-3-1.2-6-4.1-6.8-3-.6-5.9.8-6.8 3.8zM328.9 244c3 .5 5.9-1.3 6.7-4.2.6-3-1.1-5.9-4-6.8-3-.6-6 1.2-6.5 3.9-1 2.9.8 6.1 3.8 7 0 0-.3 0 0 0zM156 7a4.5 4.5 0 000-5.9 4.5 4.5 0 00-5.8 0 4.5 4.5 0 000 5.9 4.5 4.5 0 005.8 0zM303 122c1.2 0 2.4-1.3 2.4-2.4.3-1.2-1-2.4-2-2.7h-.4a2.6 2.6 0 00-2.6 2.7c.3 1.4 1.1 2.3 2.6 2.3zM186.6 169l32.6 20.8c1.8.6 3.9-.3 4.4-2.3a4 4 0 00-.5-3.3l-32.7-20.8c-1.4-1.2-3.5-1-4.4.6 0 0 0 .2-.3.2-1.2 1.5-.9 3.6.9 4.8 0 0-.3 0 0 0zM180.4 164c1.8.2 3.6-1.2 3.9-3a4 4 0 00-3.3-3.8c-2 .3-3.2 2.3-3 4.1.4 1.2 1.3 2.4 2.4 2.7z"/>
</svg>