<svg xmlns="http://www.w3.org/2000/svg" viewBox="0 0 613 386" fill="none"><script/><path d="M31 207H18.6l-3 12H5.8l15.4-53.6H29L44.4 219h-10L31 207zm-10.4-8h8.8l-3-12.3-1.3-8.4h-.3l-1.2 8.5-3 12.3zM73.9 205.3a6 6 0 00-1.5-4c-1-1.2-2.2-2.3-3.6-3.4l-4.7-3c-1.7-1.1-3.3-2.4-4.8-3.8-1.4-1.4-2.6-3-3.5-5-1-2-1.5-4.3-1.5-7s.4-4.8 1.2-6.6c.8-1.8 1.9-3.3 3.2-4.4 1.4-1.2 3-2 4.9-2.5a21 21 0 016-.9c2.6 0 5 .3 7.2.8 2.3.5 4.1 1.2 5.6 2l-3 8.5a18.8 18.8 0 00-9.3-2.4c-2 0-3.5.4-4.6 1.2-1 .8-1.6 2-1.6 3.5s.5 2.7 1.5 3.8c1 1.1 2.1 2.1 3.5 3.2l4.7 3.1a24.2 24.2 0 018.4 9c1 1.9 1.4 4.2 1.4 6.9 0 2.6-.4 5-1.2 7-.7 2-1.9 3.6-3.3 4.9a14.3 14.3 0 01-5.2 2.9c-2 .6-4.3 1-6.8 1-3 0-5.9-.3-8.2-1-2.4-.6-4.2-1.2-5.4-2l3-8.6c1.1.6 2.5 1.2 4.3 1.8 1.7.6 3.6 1 5.7 1 5 0 7.6-2 7.6-6zM128.2 174.6h-12.6V219H106v-44.4H93.4v-8.8h34.8v8.8zM139.8 166.3a51.7 51.7 0 0119.2-.6c2 .4 3.9 1.2 5.5 2.4 1.6 1 2.9 2.6 3.8 4.6 1 2 1.6 4.4 1.6 7.4 0 4.3-.9 7.8-2.5 10.6a12.3 12.3 0 01-6.5 5.5l3 2.4 9.8 20.4h-11l-9.3-21-4-1v22h-9.6v-52.7zm9.5 24.2h3.3c2.4 0 4.2-.7 5.4-2.1 1.2-1.5 1.8-3.8 1.8-6.8 0-2.3-.5-4.1-1.5-5.5-1-1.5-2.6-2.2-4.8-2.2a35.2 35.2 0 00-4.2.3v16.3zM182.4 192.4c0-9 1.5-15.9 4.6-20.6 3-4.7 7.8-7 14.1-7 3.3 0 6.2.6 8.6 2 2.3 1.2 4.3 3 5.8 5.5 1.5 2.3 2.6 5.3 3.3 8.7.8 3.4 1.2 7.2 1.2 11.4 0 9-1.6 15.9-4.8 20.6-3.1 4.7-7.8 7-14 7a18 18 0 01-8.6-1.8 16.3 16.3 0 01-5.8-5.6 26.6 26.6 0 01-3.4-8.7 57 57 0 01-1-11.5zm10 0c0 2.7.2 5.2.5 7.5a23 23 0 001.5 6 11 11 0 002.6 3.9 6 6 0 004.1 1.4c3 0 5.2-1.4 6.7-4.4a55.3 55.3 0 001.7-21.7 23 23 0 00-1.5-6c-.7-1.7-1.6-3-2.7-4a6 6 0 00-4.2-1.5c-5.8 0-8.7 6.2-8.7 18.8zM244.9 192.9l-3.5-9.4h-.4l1.2 9.2V219h-9v-53.6h7.4l15.2 26.8 3.3 9.2h.5l-1.3-9v-26.6h9v53.6H260L245 192.9zM280.6 192.4c0-9 1.6-15.9 4.7-20.6 3-4.7 7.8-7 14-7 3.4 0 6.2.6 8.6 2 2.4 1.2 4.3 3 5.9 5.5 1.5 2.3 2.6 5.3 3.3 8.7.8 3.4 1.1 7.2 1.1 11.4 0 9-1.6 15.9-4.8 20.6-3 4.7-7.8 7-14 7a18 18 0 01-8.6-1.8 16.3 16.3 0 01-5.8-5.6 26.6 26.6 0 01-3.3-8.7 57 57 0 01-1-11.5zm10 0c0 2.7.2 5.2.5 7.5a23 23 0 001.5 6 11 11 0 002.7 3.9 6 6 0 004 1.4c3 0 5.2-1.4 6.7-4.4a55.3 55.3 0 001.7-21.7 23 23 0 00-1.5-6c-.6-1.7-1.5-3-2.6-4a6 6 0 00-4.2-1.5c-5.8 0-8.8 6.2-8.8 18.8zM365.5 191.6l1-10.2h-.3l-2.8 9.1-8.7 18.7h-3.2l-9.2-18.8-2.8-9.2h-.5l1.5 10.3V219h-9v-53.2h9.1l11.1 23 1.9 6.6h.3l1.7-6.7 10.4-22.9h9V219h-9.5v-27.4zM390.3 165.8h9.6V219h-9.6v-53.2zM445.4 216.9c-1.3 1-3.1 1.9-5.3 2.4-2.2.5-4.4.8-6.6.8-2.7 0-5.3-.5-7.6-1.4-2.4-1-4.4-2.5-6.2-4.7-1.8-2.2-3.2-5-4.2-8.6-1-3.6-1.5-8-1.5-13 0-5.4.6-10 1.7-13.5a24 24 0 014.5-8.4c1.8-2.1 4-3.6 6.3-4.5a21 21 0 017.3-1.3 30.1 30.1 0 0111 2l-2 8.4a19.8 19.8 0 00-8-1.6 9 9 0 00-8 4.6 28 28 0 00-2.8 14.3c0 2.8.2 5.3.6 7.7.5 2.3 1.2 4.2 2 5.9a9.7 9.7 0 008.8 5.2 13.5 13.5 0 008-2.4l2 8zM476.2 207h-12.6l-3 12H451l15.4-53.6h7.6l15.5 53.6h-10l-3.3-12zm-10.5-8h8.8l-3-12.3-1.3-8.4h-.3l-1.3 8.5-3 12.3zM528.6 219h-28.3v-53.2h9.6v44.4h18.7v8.8zM568.4 219h-28.3v-53.2h9.6v44.4h18.7v8.8zM582.2 199.2L568 165.8h11.4l7.4 20.1.8 5.8h.3l.9-6 7.2-19.9H606l-14.3 33.4V219h-9.6v-19.8z" fill="#000"/><path fill-rule="evenodd" clip-rule="evenodd" d="M34.3 219l-3.2-12H18.5l-3 12H5.8l15.4-53.6H29L44.4 219h-10zm-15-11l-3.1 12H4.6l16-55.6h9L45.7 220H33.6l-3.3-12h-11zm6-21.1L25 184l-.5 2.9-2.6 11H28L25.4 187zm4.1 12.2h-8.8l3-12.3 1.2-8.5h.3l1.3 8.4 3 12.4zm42.3 2.8c-1-1.1-2-2.2-3.5-3.1l-4.7-3.1a30.8 30.8 0 01-4.8-3.9 16.7 16.7 0 01-5.3-12.8c0-2.7.3-5 1.2-7a13.3 13.3 0 018.8-7.5c1.9-.5 4-.8 6.2-.8 2.7 0 5.1.3 7.4.8 2.3.5 4.3 1.3 5.9 2.2l.7.4-3.7 10.5-1-.8a17.8 17.8 0 00-8.8-2.2c-1.9 0-3.2.3-4 1-.8.6-1.2 1.4-1.2 2.7 0 1.2.4 2.2 1.2 3.2.9 1 2 2 3.4 3l4.7 3.1a25.3 25.3 0 018.7 9.3c1 2 1.5 4.6 1.5 7.4 0 2.7-.4 5.2-1.2 7.3-.9 2.1-2 3.9-3.7 5.3A15.3 15.3 0 0174 220c-2.1.7-4.5 1-7 1-3.3 0-6.1-.2-8.6-.9a22 22 0 01-5.6-2.1l-.8-.5L56 207l1 .7 4 1.7c1.6.6 3.4.8 5.4.8 2.4 0 4-.4 5-1.2 1-.8 1.6-2 1.6-3.7a5 5 0 00-1.2-3.4zm10.3-4.6a24.2 24.2 0 00-8.4-8.9 369 369 0 01-4.7-3.1c-1.4-1-2.6-2.1-3.5-3.2a5.7 5.7 0 01-1.5-3.8c0-1.5.5-2.7 1.6-3.5 1-.8 2.6-1.2 4.6-1.2a18.8 18.8 0 019.3 2.4l3-8.5c-1.5-.8-3.3-1.5-5.6-2-2.2-.5-4.6-.8-7.2-.8a21 21 0 00-6 .9 12.4 12.4 0 00-8.1 6.9c-.8 1.8-1.2 4-1.2 6.5a15.7 15.7 0 005 12.1c1.5 1.4 3 2.7 4.8 3.7a85 85 0 014.7 3.1c1.4 1 2.7 2.2 3.6 3.3a6 6 0 011.5 4.1c0 4-2.6 6-7.6 6-2 0-4-.4-5.7-1a27.1 27.1 0 01-4.2-1.8l-3.1 8.6c1.2.8 3 1.4 5.4 2 2.3.7 5.1 1 8.2 1 2.5 0 4.8-.4 6.8-1 2-.7 3.8-1.6 5.2-3 1.4-1.2 2.6-2.9 3.3-4.9.8-2 1.2-4.3 1.2-7 0-2.6-.4-5-1.4-6.9zm47.2-21.7h-12.6V220H105v-44.4H92.4v-10.8h36.8v10.8zm-23.2-1V219h9.6v-44.4h12.6v-8.8H93.4v8.8H106zm32.8-9l.7-.2a52.7 52.7 0 0119.7-.7c2.2.5 4.2 1.3 5.8 2.6 1.8 1.2 3.2 2.9 4.2 5 1.1 2 1.7 4.7 1.7 7.8 0 4.4-.9 8.1-2.6 11a13.4 13.4 0 01-5.5 5.4l2 1.5 10.5 22h-13.2l-9.4-21.1-2.4-.6V220h-11.5v-54.5zm10.5 31.4l4.1 1 9.3 21h11l-9.8-20.4-3-2.4 1-.4c2.3-1.1 4.2-2.8 5.5-5.1 1.6-2.8 2.5-6.3 2.5-10.6 0-3-.5-5.5-1.6-7.4-1-2-2.2-3.5-3.8-4.6-1.6-1.2-3.4-2-5.5-2.4-2-.4-4.2-.7-6.4-.7a74 74 0 00-12.8 1.3V219h9.5v-22zm8.2-20.4c-.8-1.1-2-1.7-4-1.7a34.5 34.5 0 00-3.2.1v14.5h2.3c2.2 0 3.7-.6 4.6-1.8 1-1.2 1.6-3.2 1.6-6 0-2.2-.4-3.9-1.3-5zm.5 11.8c-1.2 1.4-3 2.1-5.4 2.1h-3.3v-16.3l1.9-.3h2.3c2.2 0 3.8.7 4.8 2.2 1 1.4 1.5 3.2 1.5 5.5 0 3-.6 5.3-1.8 6.8zm34 30.6a17.3 17.3 0 01-6-5.8 27.7 27.7 0 01-3.5-9.1 58 58 0 01-1.1-11.7c0-9.1 1.5-16.2 4.8-21.1 3.3-5 8.3-7.6 15-7.6 3.4 0 6.4.7 9 2.1 2.5 1.4 4.5 3.4 6.1 6 1.6 2.4 2.8 5.5 3.5 9 .8 3.5 1.2 7.3 1.2 11.6 0 9.1-1.6 16.2-5 21.2-3.3 5-8.3 7.5-14.9 7.5a19 19 0 01-9-2zm23.2-6a36.7 36.7 0 004.8-20.6c0-4.2-.4-8-1.2-11.4-.7-3.4-1.8-6.4-3.3-8.7a15.3 15.3 0 00-5.8-5.6c-2.4-1.3-5.3-2-8.6-2-6.3 0-11 2.4-14.1 7.1-3 4.7-4.6 11.6-4.6 20.6 0 4.2.3 8 1 11.5.7 3.4 1.9 6.3 3.4 8.7 1.5 2.4 3.4 4.2 5.8 5.6a18 18 0 008.5 1.9c6.3 0 11-2.4 14.1-7.1zm-6.7-27.8c-.3-2.2-.8-4.1-1.4-5.7a8.9 8.9 0 00-2.4-3.7 5 5 0 00-3.6-1.2c-1.2 0-2.3.3-3.2 1-1 .6-1.7 1.6-2.4 3-1.4 3-2.1 7.6-2.1 13.8 0 2.6.1 5.1.4 7.4a22 22 0 001.5 5.7 10 10 0 002.4 3.6 5 5 0 003.4 1.1c1.3 0 2.4-.3 3.3-.9 1-.6 1.8-1.6 2.5-3a54.4 54.4 0 001.7-21zM197 209.8c-1-1-2-2.3-2.6-4a23 23 0 01-1.5-5.9c-.3-2.3-.5-4.8-.5-7.5 0-12.6 3-18.8 8.7-18.8a6 6 0 014.2 1.5c1.1 1 2 2.3 2.7 4a23 23 0 011.5 6 55.3 55.3 0 01-1.8 21.7c-1.4 3-3.6 4.4-6.6 4.4a6 6 0 01-4-1.4zm47-16.5l-1-2.8.2 2.1V220h-11v-55.6h9l15.6 27.4.8 2.3-.3-1.7v-27.6h11v55.6h-8.9L244 193.3zm15.6 8h-.5l-3.3-9.1-15.2-26.8h-7.4V219h9v-26.3l-1.2-9.2h.4l3.5 9.4 15.1 26.5h7.4v-53.6h-9v26.5l1.2 9zm30.7 17.7a17.3 17.3 0 01-6.1-5.8 27.7 27.7 0 01-3.5-9.1 58 58 0 01-1-11.7c0-9.1 1.5-16.2 4.7-21.1 3.3-5 8.4-7.6 15-7.6 3.4 0 6.4.7 9 2.1 2.5 1.4 4.6 3.4 6.2 6 1.6 2.4 2.7 5.5 3.5 9 .8 3.5 1.1 7.3 1.1 11.6 0 9.1-1.6 16.2-5 21.2-3.3 5-8.3 7.5-14.8 7.5a19 19 0 01-9-2zm23.1-6a36.7 36.7 0 004.8-20.6c0-4.2-.3-8-1.1-11.4-.7-3.4-1.8-6.4-3.3-8.7a15.3 15.3 0 00-5.9-5.6c-2.4-1.3-5.2-2-8.5-2-6.3 0-11 2.4-14.1 7.1-3.1 4.7-4.7 11.6-4.7 20.6 0 4.2.4 8 1 11.5.8 3.4 1.9 6.3 3.4 8.7 1.5 2.4 3.5 4.2 5.8 5.6a18 18 0 008.6 1.9c6.2 0 11-2.4 14-7.1zm-7.2-33.9c-.6-1.7-1.5-3-2.6-4a6 6 0 00-4.2-1.5c-5.8 0-8.8 6.2-8.8 18.8 0 2.7.2 5.2.5 7.5a23 23 0 001.5 6 11 11 0 002.7 3.9 6 6 0 004 1.4c3 0 5.2-1.4 6.7-4.4a55.3 55.3 0 001.7-21.7 23 23 0 00-1.5-6zm.6 6.1a22 22 0 00-1.5-5.7 8.8 8.8 0 00-2.4-3.7 5 5 0 00-3.5-1.2c-1.3 0-2.3.3-3.3 1-.9.6-1.7 1.6-2.4 3a57.4 57.4 0 00-1.6 21.1 22 22 0 001.4 5.8 10 10 0 002.4 3.6 5 5 0 003.5 1.1c1.3 0 2.4-.3 3.3-.9 1-.6 1.7-1.6 2.4-3a54.4 54.4 0 001.7-21zm57.7 6.3l.2-2-.4 1.4-9 19.3H351l-9.5-19.3V220h-11v-55.2h10.9l11.4 23.7 1 3.6 1-3.8 10.7-23.5H376V220h-11.6v-28.5zm-8.9-2.8l10.4-22.9h9V219h-9.5v-27.4l1-10.2h-.3l-2.8 9.1-8.7 18.7h-3.2l-9.2-18.8-2.8-9.2h-.5l1.5 10.3V219h-9v-53.2h9.1l11.1 23 1.9 6.6h.3l1.7-6.7zm33.7-23.9H401V220h-11.6v-55.2zm57.2 52.4l-.5.4a13.3 13.3 0 01-5.7 2.7c-2.3.5-4.5.8-6.8.8-2.8 0-5.5-.5-8-1.5s-4.7-2.7-6.6-5a24.8 24.8 0 01-4.3-9c-1-3.6-1.6-8-1.6-13.3 0-5.4.6-10 1.7-13.7a25 25 0 014.7-8.7c2-2.3 4.2-3.9 6.8-4.8a22 22 0 017.6-1.4 31 31 0 0111.4 2l.7.4-2.3 10.5-1.2-.6a18.8 18.8 0 00-7.5-1.5 8 8 0 00-7.2 4.1 27.1 27.1 0 00-2.7 13.8c0 2.7.2 5.2.6 7.5.5 2.2 1.1 4 2 5.6a10 10 0 003.2 3.5c1.3.8 2.8 1.2 4.7 1.2 1.7 0 3-.2 4.2-.6 1.2-.5 2.3-1 3.2-1.6l1.2-.8 2.4 10zm-6.4-6.6c-1.3.4-2.8.6-4.6.6-2 0-3.8-.4-5.2-1.3a11 11 0 01-3.6-3.9c-1-1.7-1.6-3.6-2-6a45 45 0 01-.7-7.6 28 28 0 012.8-14.3 9 9 0 018.1-4.5 19.8 19.8 0 018 1.5l1.9-8.4a30.1 30.1 0 00-11-2 21 21 0 00-7.3 1.3c-2.3.9-4.5 2.4-6.3 4.5a24 24 0 00-4.5 8.4c-1.1 3.6-1.7 8-1.7 13.4 0 5.2.5 9.5 1.5 13.1 1 3.5 2.4 6.4 4.2 8.6 1.8 2.2 3.8 3.7 6.2 4.7 2.3 1 4.9 1.4 7.6 1.4 2.2 0 4.4-.3 6.6-.8 2.2-.5 4-1.3 5.3-2.4l-2-8a16.7 16.7 0 01-3.3 1.7zm39.3 8.4l-3.2-12h-12.6l-3 12H451l15.4-53.6h7.6l15.5 53.6h-10zm-15-11l-3.1 12h-11.6l16-55.6h9l16.1 55.6h-12.1l-3.3-12h-11zm6-21.1l-.3-2.8-.5 2.9-2.7 11h6.3l-2.7-11.1zm4.1 12.2h-8.8l3-12.3 1.2-8.5h.3l1.3 8.4 3 12.4zm55.1 20.9h-30.3v-55.2H511v44.4h18.7V220zm-19.7-9.8v-44.4h-9.6V219h28.3v-8.8H510zm59.5 9.8h-30.3v-55.2h11.6v44.4h18.7V220zm-19.7-9.8v-44.4h-9.6V219h28.3v-8.8h-18.7zm42-11V219h-9.5v-19.8L568 165.8h11.4l7.4 20.1.8 5.8h.3l.9-6 7.2-19.9H606l-14.3 33.4zm-4-13.5l-7.7-20.9h-13.6l14.8 34.6V220h11.6v-20.6l14.9-34.6h-12.5l-7.5 20.7v.2zm-197.4-19.9V219h9.6v-53.2h-9.6zM127 123H94v12h426v-12h-33a193 193 0 00-360 0zm13 0h77.6a111.8 111.8 0 01174.8 0H474a181 181 0 00-334 0zm236.4 0a99.7 99.7 0 00-142.8 0h142.8zM94 251h426v12h-33a193 193 0 01-360 0H94v-12zm46 12a181 181 0 00334 0h-81.6a111.8 111.8 0 01-174.8 0H140zm93.6 0a99.7 99.7 0 00142.8 0H233.6z" fill="#000"/><path d="M195.3 81.2a2 2 0 013.7 0l2.7 6.5a2 2 0 001.7 1.3l7 .5a2 2 0 011.1 3.5l-5.3 4.6a2 2 0 00-.7 2l1.7 6.9a2 2 0 01-3 2.2l-6-3.7a2 2 0 00-2.1 0l-6 3.7a2 2 0 01-3-2.2l1.6-6.9a2 2 0 00-.6-2l-5.4-4.6a2 2 0 011.1-3.5l7-.5a2 2 0 001.8-1.3l2.7-6.5zM411.3 81.2a2 2 0 013.7 0l2.7 6.5a2 2 0 001.7 1.3l7 .5a2 2 0 011.1 3.5l-5.3 4.6a2 2 0 00-.7 2l1.7 6.9a2 2 0 01-3 2.2l-6-3.7a2 2 0 00-2.1 0l-6 3.7a2 2 0 01-3-2.2l1.6-6.9a2 2 0 00-.6-2l-5.4-4.6a2 2 0 011.1-3.5l7-.5a2 2 0 001.8-1.3l2.7-6.5zM195.3 279a2 2 0 013.7 0l2.7 6.5a2 2 0 001.7 1.3l7 .5a2 2 0 011.1 3.5l-5.3 4.6a2 2 0 00-.7 2l1.7 6.9a2 2 0 01-3 2.1l-6-3.6a2 2 0 00-2.1 0l-6 3.6a2 2 0 01-3-2.1l1.6-6.9a2 2 0 00-.6-2l-5.4-4.6a2 2 0 011.1-3.5l7-.5a2 2 0 001.8-1.3l2.7-6.5zM411.3 279a2 2 0 013.7 0l2.7 6.5a2 2 0 001.7 1.3l7 .5a2 2 0 011.1 3.5l-5.3 4.6a2 2 0 00-.7 2l1.7 6.9a2 2 0 01-3 2.1l-6-3.6a2 2 0 00-2.1 0l-6 3.6a2 2 0 01-3-2.1l1.6-6.9a2 2 0 00-.6-2l-5.4-4.6a2 2 0 011.1-3.5l7-.5a2 2 0 001.8-1.3l2.7-6.5zM242.8 343.1l-7.4-3.4 2.7-35.4 6.7 3.1-2.4 22.3-1 6.8 4.4-5.2 15.3-16.5 6.5 3-24.8 25.3zM282.4 346.1l-12.6-2.5-4.3 7.5-7-1.4 18.5-30.4 8.2 1.6 5.4 35.1-7.1-1.4-1.1-8.5zm-.7-5.4l-1.2-9.8-.5-5.3h-.1l-2.4 4.6-5 8.7 9.2 1.8zM327.1 349.7l.2 5.6-24.6 1-1.4-33.3 7-.3 1.2 27.7 17.6-.7zM345.5 351.4l-6.8 1.5-7.2-32.6 6.8-1.5 7.2 32.6zM371.2 311c3.8 1.5 6.8 4.7 8.9 9.5 2.2 4.9 2.5 9.2 1.1 13-1.4 3.8-4.6 6.8-9.3 8.9l-11.8 5.2-13.5-30.5 11.8-5.2c4.7-2.1 9-2.4 12.8-.9zm3.5 21c.7-2.4.3-5.2-1.1-8.5-1.5-3.3-3.3-5.5-5.5-6.6-2.2-1.1-4.8-1-7.7.3l-5.1 2.3 9 20.4 5.1-2.3c2.8-1.3 4.6-3.2 5.3-5.6zM254.6 75.5l-7.5 3.6L221 53.8l6.8-3.3 15.9 16.4 4.7 5.2-1.1-6.8-3-22.8 6.6-3.2 3.7 36.2zM284.9 57.8L272 60.5l-1 8.7-7.1 1.5 5.2-36 8.3-1.7 19.2 30.8-7.2 1.5-4.5-7.5zm-2.8-4.8l-5.1-8.8-2.6-4.7h-.1l-.4 5.3-1.2 10.2 9.4-2zM327.1 59.6l-.3 5.7-25.1-1.2 1.6-34.1 7.1.3-1.3 28.4 18 .9zM340 68.9l-6.9-1.7L341 34l6.9 1.7-7.9 33.2zM385 55.2c1.4 3.9.9 8.4-1.5 13.3s-5.5 8.1-9.4 9.5c-3.9 1.4-8.3 1-13.1-1.3L349.1 71l14.7-30.8 11.9 5.7c4.8 2.2 7.9 5.3 9.3 9.3zm-14.1 16.6c2.3-1 4.3-3.2 5.9-6.6 1.6-3.3 2.1-6.2 1.4-8.7-.6-2.5-2.4-4.4-5.3-5.8l-5.1-2.5-9.8 20.5 5.1 2.5c2.9 1.5 5.5 1.7 7.8.6z" fill="#000"/><path fill-rule="evenodd" clip-rule="evenodd" d="M302.3 29l9.1.3-1.3 28.5 18 .9-.4 7.6-27-1.2 1.6-36.1zm2 2l-1.6 32.1 23.2 1.2.1-3.8-18-.9 1.4-28.3-5.1-.3zm-26.4.9l20.3 32.6-9.3 2-4.5-7.6-11.5 2.4-1 8.7-9.2 2 5.5-38.1 9.7-2zm-8 3.6l-4.8 34 5-1.1 1-8.7 14.3-3 4.5 7.5 5-1-18-29-7 1.3zm70.4-2.7L349 35 340.7 70 332 68l8.4-35.1zm1.4 2.4l-7.4 31.3 5 1.2 7.4-31.3-5-1.2zm-90 2.6l4 38.3-8.8 4.2-27.6-26.8 8.7-4.2 16.4 17 2.5 2.6-.6-3.5-3-23.5 8.4-4.1zm-6.3 5.3l2.9 22 1.6 10.2-7-7.7-15.3-15.9-4.9 2.4 24.6 23.8 6.2-3-3.4-34-4.7 2.2zm28-4.6h1.6l2.9 5.2 5.8 10-12.2 2.6 1.4-11.6.5-6.2zm1.7 4.3l-.2 2.1-1 8.8 6.6-1.4-4.4-7.6-1-2zm88.2-4l12.8 6.2c5 2.3 8.3 5.6 9.8 9.9 1.6 4.2 1 9-1.5 14s-5.7 8.5-10 10c-4.2 1.6-8.9 1-13.8-1.3l-12.8-6.1 15.5-32.6zm1 2.7l-13.9 29 11 5.3c4.7 2.2 8.8 2.5 12.4 1.3 3.5-1.3 6.5-4.3 8.8-9 2.3-4.8 2.7-9 1.5-12.6-1.3-3.7-4.2-6.6-8.8-8.7l-11-5.3zm3 5.4l6 2.9c3.1 1.5 5.2 3.6 5.9 6.4.8 2.9.2 6-1.5 9.4-1.7 3.5-3.8 6-6.4 7.1-2.6 1.3-5.6 1-8.7-.6l-6-3L367.4 47zm1 2.6l-9 18.7 4.3 2.1c2.7 1.4 5 1.5 6.9.6 2-.9 3.9-2.8 5.4-6.1 1.5-3.2 2-5.9 1.3-8-.5-2.2-2-3.9-4.7-5.2l-4.2-2zm-131 253.3l8.6 4-2.5 23-.5 3.4 2.2-2.6 15.8-17 8.4 3.9-26.3 26.8-8.7-4 3-37.5zm1.7 3l-2.6 33.3 6.2 2.8 23.3-23.8-4.6-2-14.8 15.9-6.6 7.8 1.5-10.2 2.3-21.6-4.7-2.2zm131.8 6.1a15.2 15.2 0 00-12 1l-10.9 4.7 12.7 28.7 10.9-4.8m0 0c4.5-2 7.5-4.9 8.8-8.3 1.3-3.5 1-7.6-1.1-12.3-2-4.6-4.9-7.6-8.4-9m-12.8-1c4.9-2 9.5-2.5 13.6-.8 4 1.6 7.2 5 9.4 10 2.3 5 2.6 9.6 1.1 13.7-1.5 4.2-5 7.3-9.8 9.5l-12.7 5.6-14.3-32.3L358 311zm2 5.4c3-1.4 6-1.6 8.5-.3s4.5 3.7 6 7v.1c1.5 3.4 2 6.5 1.2 9.2a10 10 0 01-5.9 6.2l-6 2.7L354 319l6-2.7zm.8 1.8c2.7-1.2 5-1.2 6.9-.3 1.9 1 3.5 3 5 6.1 1.3 3.2 1.6 5.7 1 7.8-.6 2-2.1 3.8-4.7 5l-4.2 1.9-8.2-18.6 4.2-1.9zm-21.7-.5l7.6 34.6-8.8 1.9-7.6-34.6 8.8-1.9zm-6.4 3.5l6.8 30.6 4.8-1-6.8-30.7-4.8 1zm-56.2-3l9.6 2 5.7 37.2-9.2-1.9-1.1-8.5-11.2-2.2-4.3 7.5-9.1-1.8 19.6-32.2zm1 2.3L260 349l4.9 1 4.3-7.5 14 2.8 1.1 8.5 5 1-5-33-7-1.4zm31.8 1.3l1.2 27.7 17.6-.7.2 7.6-26.6 1-1.4-35.3 9-.3zm-7 2.3l1.4 31.3 22.6-1-.2-3.6-17.6.7-1.2-27.7-5 .3zm-23 .6h1.6l.6 6.2 1.4 11.1-12-2.3 5.7-9.9 2.7-5.1zm0 4.3l-1 1.8-4.2 7.5 6.4 1.3-1-8.5-.2-2.1z" fill="#000"/></svg>