<svg viewBox="0 0 426 386" fill="none" xmlns="http://www.w3.org/2000/svg"><path d="M70.6 193.5H87V217a17 17 0 01-6.6 4c-2.5.7-5 1-7.4 1-3 0-5.7-.5-8.2-1.5-2.4-1.1-4.5-2.7-6.2-5-1.7-2.3-3-5.1-4-8.6-.9-3.5-1.3-7.6-1.3-12.5 0-5 .5-9.3 1.7-12.8a25 25 0 014.4-8.6c1.8-2.2 4-3.8 6.4-4.7 2.5-1 5.1-1.6 7.9-1.6a29.5 29.5 0 0111.6 2.2l-2 8.2a18.5 18.5 0 00-8.4-1.5 9.5 9.5 0 00-8.5 4.4 19 19 0 00-2.3 5.9c-.5 2.4-.8 5.2-.8 8.6 0 6.4 1 11.1 2.9 14.2a9 9 0 0010.6 4.1c1-.3 1.8-.8 2.6-1.5v-10.8l-8.8-1.2v-5.8zm29.6-25.7h26.6v8.8h-17v13h15.5v8.9h-15.5v13.7h17.4v8.8h-27v-53.2zm40.3.5a51.7 51.7 0 0119.2-.6c2.1.4 4 1.2 5.5 2.4 1.6 1 3 2.6 3.9 4.6 1 2 1.5 4.4 1.5 7.4 0 4.3-.8 7.8-2.4 10.6a12.3 12.3 0 01-6.6 5.5l3 2.4 9.9 20.4h-11l-9.3-21-4.1-1v22h-9.6v-52.7zm9.6 24.2h3.2c2.4 0 4.2-.7 5.4-2.1 1.3-1.5 1.9-3.8 1.9-6.8 0-2.3-.5-4.1-1.6-5.5-1-1.5-2.6-2.2-4.7-2.2a35.2 35.2 0 00-4.2.3v16.3zm70.3 1l1-10.1h-.3l-2.9 9.1-8.6 18.7h-3.2l-9.2-18.8-2.8-9.2h-.5l1.5 10.3V221h-9v-53.2h9.1l11.1 23 1.8 6.6h.3l1.8-6.7 10.4-22.9h9V221h-9.5v-27.4zm45.5 15.5h-12.5l-3.2 12h-9.5l15.5-53.6h7.5l15.5 53.6h-10l-3.3-12zm-10.5-8h8.8l-3-12.3-1.2-8.4h-.3l-1.3 8.5-3 12.3zm46.4-6.1l-3.5-9.4h-.4l1.2 9.2V221h-9v-53.6h7.3l15.3 26.8 3.3 9.2h.4l-1.2-9v-26.6h9v53.6H317l-15.1-26.5zm47.5 6.3L335 167.8h11.4l7.4 20.1.7 5.8h.4l.8-6 7.3-19.9h10.2L359 201.2V221h-9.6v-19.8z" fill="#000"/><path d="M70.6 193.5v-1h-1v1h1zm16.4 0h1v-1h-1v1zm0 23.5l.7.8.3-.3v-.5h-1zm-6.6 4l.3.9-.3-1zm-21.8-5.5l-.8.6.8-.6zm-4-8.6l-1 .3 1-.3zm.4-25.3l-1-.3 1 .3zm4.4-8.6l-.8-.6.8.6zm6.4-4.7l.4.9-.4-1zm14.5-.9l-.3 1 .3-1zm5 1.5l1 .2.1-.8-.7-.4-.4 1zm-2 8.2l-.4 1 1.1.5.3-1.2-1-.3zm-3.6-1l-.2.9.2-1zm-9.7.5l-.4-.9.4 1zm-3.6 3.4l-.9-.6.9.6zm-2.3 5.9l-1-.2 1 .2zm2.1 22.8l-.8.5.8-.5zm10.6 4l-.3-.9.3 1zm2.6-1.4l.6.8.4-.3v-.5h-1zm0-10.8h1v-.9l-1-.1v1zm-8.8-1.2h-1v.8l.9.2.1-1zm0-4.8H87v-2H70.6v2zm15.4-1V217h2v-23.5h-2zm.3 22.8a16 16 0 01-6.2 3.7l.6 1.9a18 18 0 007-4.1l-1.4-1.5zm-6.2 3.7c-2.4.7-4.8 1-7.1 1v2c2.6 0 5.1-.3 7.7-1.1l-.6-2zm-7.1 1a19 19 0 01-7.8-1.4l-.8 1.8A21 21 0 0073 223v-2zm-7.8-1.4c-2.2-1-4.2-2.6-5.8-4.7l-1.6 1.2c1.8 2.4 4 4.1 6.6 5.3l.8-1.8zm-5.8-4.7c-1.6-2.1-2.8-4.9-3.8-8.2l-2 .5c1 3.5 2.4 6.5 4.2 9l1.6-1.3zm-3.8-8.2c-.9-3.4-1.3-7.5-1.3-12.3h-2c0 5 .4 9.2 1.4 12.8l2-.5zm-1.3-12.3c0-5 .5-9.2 1.6-12.5l-1.9-.6c-1.2 3.6-1.7 8-1.7 13.1h2zm1.6-12.5a24 24 0 014.2-8.2l-1.5-1.3a26 26 0 00-4.6 8.9l2 .6zm4.2-8.2c1.8-2.1 3.8-3.6 6-4.5l-.6-1.9c-2.6 1-5 2.8-6.9 5.1l1.5 1.3zm6.1-4.5c2.4-1 4.8-1.5 7.5-1.5v-2c-3 0-5.6.6-8.3 1.6l.8 1.9zm7.5-1.5c2.3 0 4.4.3 6.3.7l.5-2c-2-.4-4.4-.7-6.8-.7v2zm6.4.7c2 .4 3.6.9 4.8 1.4l.8-1.9-5.2-1.5-.4 2zm4.2.2l-2 8.3 2 .5 2-8.3-2-.5zm-.6 7.6c-1-.5-2.3-.9-3.8-1.2l-.4 2c1.3.3 2.5.6 3.4 1l.8-1.8zM80 175a23 23 0 00-5.1-.4v2c1.8 0 3.4.1 4.6.4l.5-2zm-5.1-.4c-2 0-3.7.3-5.3 1.1l.8 1.8a10 10 0 014.5-1v-2zm-5.3 1.1c-1.6.8-3 2-4 3.7l1.6 1.1c1-1.4 2-2.4 3.3-3l-1-1.8zm-4 3.7a20 20 0 00-2.5 6.3l2 .4a18 18 0 012.1-5.6l-1.7-1zm-2.5 6.3c-.5 2.5-.8 5.4-.8 8.8h2c0-3.3.3-6.1.8-8.4l-2-.4zm-.8 8.8c0 6.5 1 11.4 3 14.7l1.7-1a26.3 26.3 0 01-2.7-13.7h-2zm3 14.7c2.2 3.3 5 5 8.7 5v-2c-2.8 0-5.1-1.3-7-4l-1.6 1zm8.7 5a10 10 0 003.2-.5l-.7-1.9a8 8 0 01-2.5.4v2zm3.1-.5c1.1-.3 2.1-.9 3-1.6l-1.4-1.5c-.6.6-1.3 1-2.2 1.2l.6 2zm3.3-2.4v-10.8h-2v10.8h2zm-1-11.8l-8.7-1.2-.2 2 8.7 1.2.3-2zm-7.8-.2v-5.8h-2v5.8h2zm28.6-31.5v-1h-1v1h1zm26.6 0h1v-1h-1v1zm0 8.8v1h1v-1h-1zm-17 0v-1h-1v1h1zm0 13h-1v1h1v-1zm15.5 0h1v-1h-1v1zm0 8.9v1h1v-1h-1zm-15.5 0v-1h-1v1h1zm0 13.7h-1v1h1v-1zm17.4 0h1v-1h-1v1zm0 8.8v1h1v-1h-1zm-27 0h-1v1h1v-1zm0-52.2h26.6v-2h-26.6v2zm25.6-1v8.8h2v-8.8h-2zm1 7.8h-17v2h17v-2zm-18 1v13h2v-13h-2zm1 14h15.5v-2h-15.5v2zm14.5-1v8.9h2v-8.8h-2zm1 7.9h-15.5v2h15.5v-2zm-16.5 1v13.7h2v-13.7h-2zm1 14.7h17.4v-2h-17.4v2zm16.4-1v8.8h2v-8.8h-2zm1 7.8h-27v2h27v-2zm-26 1v-53.2h-2V221h2zm39.3-52.7l-.2-1-.8.2v.8h1zm6.7-1v-1 1zm12.5.4l-.2 1 .2-1zm5.5 2.4l-.6.8.6-.8zm3.9 4.6l-1 .5 1-.5zm-1 18l-.8-.6.9.6zm-6.5 5.5l-.3-1-1.7.7 1.4 1 .6-.7zm3 2.4l1-.4-.1-.2-.2-.1-.6.7zm9.9 20.4v1h1.6l-.7-1.4-1 .4zm-11 0l-1 .4.3.6h.7v-1zm-9.3-21l.9-.4-.2-.4-.5-.1-.2 1zm-4.1-1l.2-1-1.2-.2v1.2h1zm0 22v1h1v-1h-1zm-9.6 0h-1v1h1v-1zm9.6-28.5h-1v1h1v-1zm8.6-2.1l.8.6-.8-.6zm.3-12.3l-.8.5.8-.5zm-7.1-2.2v-1 1zm-1.8.3l-.3-1-.7.3v.7h1zm-9.4-6.9c2-.4 4.2-.8 6.6-1l-.2-2-6.8 1 .4 2zm6.6-1l6-.3v-2l-6.2.3.2 2zm6-.3c2.2 0 4.2.3 6.2.7l.4-2c-2.1-.4-4.3-.7-6.6-.7v2zm6.2.7c2 .4 3.7 1.1 5.1 2.2l1.2-1.6a14.3 14.3 0 00-5.9-2.6l-.4 2zm5.1 2.2c1.5 1 2.7 2.4 3.6 4.3l1.8-1c-1-2-2.4-3.7-4.2-5l-1.2 1.7zm3.6 4.3c1 1.7 1.4 4 1.4 6.9h2c0-3.1-.5-5.7-1.6-7.8l-1.8.9zm1.4 6.9c0 4.2-.8 7.5-2.3 10l1.7 1c1.8-2.9 2.6-6.6 2.6-11h-2zm-2.3 10a11.3 11.3 0 01-6 5.2l.7 1.8c3-1 5.3-3 7-6l-1.7-1zM161 199l3 2.4 1.3-1.5-3-2.5-1.3 1.6zm2.8 2l9.8 20.4 1.8-.8-9.8-20.4-1.8.9zm10.7 19h-11v2h11v-2zm-10.1.6l-9.3-21-1.8.8 9.2 21 1.9-.8zm-10-21.5l-4-1-.6 2 4.1.9.5-2zm-5.3 0V221h2v-22h-2zm1 20.9h-9.6v2h9.6v-2zm-8.6 1v-52.7h-2V221h2zm8.6-27.5h3.2v-2h-3.2v2zm3.2 0c2.6 0 4.7-.8 6.2-2.5l-1.5-1.3c-1 1.2-2.5 1.8-4.7 1.8v2zm6.2-2.5c1.4-1.7 2-4.2 2-7.4h-2c0 3-.5 5-1.5 6.1l1.5 1.3zm2-7.4c0-2.4-.5-4.5-1.6-6.1l-1.7 1.1a8.3 8.3 0 011.4 5h2zm-1.6-6.1c-1.3-1.8-3.2-2.6-5.6-2.6v2c1.9 0 3.1.6 4 1.7l1.6-1.1zm-5.6-2.6h-2.5l.2 2h2.3v-2zm-2.5 0c-.8 0-1.5.2-2 .4l.6 1.9 1.6-.3-.2-2zm-2.7 1.3v16.3h2v-16.3h-2zm71.3 17.4l-1-.1h1zm1-10.2h1l.1-1h-1v1zm-.3 0v-1h-.8l-.2.7 1 .3zm-2.9 9.1l1 .4v-.1l-1-.3zm-8.6 18.7v1h.6l.3-.6-1-.4zm-3.2 0l-1 .4.4.6h.6v-1zm-9.2-18.8l-1 .3.1.2.9-.5zm-2.8-9.2l1-.3-.3-.7h-.7v1zm-.5 0v-1h-1.1l.1 1.2 1-.2zm1.5 10.3h1v-.2l-1 .2zm0 27.5v1h1v-1h-1zm-9 0h-1v1h1v-1zm0-53.2v-1h-1v1h1zm9.1 0l1-.4-.3-.6h-.7v1zm11.1 23l1-.2v-.2l-1 .4zm1.8 6.6l-1 .3.3.7h.7v-1zm.3 0v1h.8l.2-.7-1-.3zm1.8-6.7l-1-.4v.1l1 .3zm10.4-22.9v-1h-.6l-.3.6 1 .4zm9 0h1v-1h-1v1zm0 53.2v1h1v-1h-1zm-9.5 0h-1v1h1v-1zm1-27.3l1-10.2-2-.2-1 10.2 2 .2zm0-11.3h-.3v2h.3v-2zm-1.3.7l-2.8 9.1 1.9.6 2.8-9.1-1.9-.6zm-2.8 9l-8.6 18.7 1.8.8 8.7-18.7-1.9-.8zm-7.7 18.1h-3.2v2h3.2v-2zm-2.3.6L198 192l-1.8.9 9.2 18.7 1.8-.8zm-9.1-18.7l-2.9-9.2-1.9.6 2.8 9.2 2-.6zm-3.8-9.9h-.5v2h.5v-2zm-1.5 1.2l1.5 10.2 2-.3-1.5-10.2-2 .3zm1.5 10V221h2v-27.5h-2zm1 26.6h-9v2h9v-2zm-8 1v-53.2h-2V221h2zm-1-52.2h9.1v-2h-9.2v2zm8.2-.6l11.1 23 1.8-.8-11-23-1.9.8zm11 22.9l1.9 6.6 2-.5-2-6.6-1.8.5zm2.8 7.3h.3v-2h-.3v2zm1.3-.7l1.8-6.8-2-.5-1.7 6.8 2 .5zm1.7-6.6l10.4-22.9-1.8-.8-10.4 22.9 1.8.8zm9.5-22.3h9v-2h-9v2zm8-1V221h2v-53.2h-2zm1 52.2h-9.5v2h9.5v-2zm-8.5 1v-27.4h-2V221h2zm44.5-12l1-.3-.2-.7h-.8v1zm-12.5 0v-1h-.8l-.2.7 1 .3zm-3.2 12v1h.8l.2-.7-1-.3zm-9.5 0l-1-.3-.3 1.3h1.3v-1zm15.5-53.6v-1h-.8l-.2.7 1 .3zm7.5 0l1-.3-.2-.7h-.8v1zm15.5 53.6v1h1.3l-.3-1.3-1 .3zm-10 0l-1 .3.2.7h.8v-1zm-13.8-20l-1-.1-.3 1.2h1.3v-1zm8.8 0v1h1.3l-.3-1.2-1 .3zm-3-12.3l-1 .1v.1l1-.2zm-1.2-8.4l1-.1-.2-.9h-.8v1zm-.3 0v-1h-.9l-.1.9 1 .1zm-1.3 8.5l1 .2-1-.2zm7.5 19.2h-12.5v2h12.5v-2zm-13.5.7l-3.1 12 2 .6 3-12-2-.6zm-2.2 11.3h-9.5v2h9.5v-2zm-8.5 1.3l15.4-53.6-1.9-.6-15.4 53.6 2 .6zm14.5-52.9h7.5v-2h-7.5v2zm6.5-.7l15.5 53.6 2-.6-15.5-53.6-2 .6zm16.5 52.3h-10v2h10v-2zm-9 .7l-3.3-12-2 .6 3.3 12 2-.6zm-14.8-18.6h8.8v-2h-8.8v2zm9.8-1.3l-3-12.3-2 .4 3 12.4 2-.5zm-3-12.2l-1.2-8.4-2 .3 1.2 8.3 2-.2zm-2.2-9.3h-.3v2h.3v-2zm-1.3.9l-1.3 8.4 2 .3 1.3-8.4-2-.3zm-1.3 8.3l-3 12.4 2 .4 3-12.3-2-.5zm44.4 6.4l-1 .3.1.2.9-.5zm-3.5-9.4l1-.3-.3-.7h-.7v1zm-.4 0v-1h-1.1l.1 1.1h1zm1.2 9.2h1v-.1l-1 .1zm0 26.3v1h1v-1h-1zm-9 0h-1v1h1v-1zm0-53.6v-1h-1v1h1zm7.3 0l1-.5-.4-.5h-.6v1zm15.3 26.8l1-.4-.1-.1-.9.5zm3.3 9.2l-1 .3.3.7h.7v-1zm.4 0v1h1.2l-.2-1.2-1 .2zm-1.2-9h-1 1zm0-26.6v-1h-1v1h1zm9 0h1v-1h-1v1zm0 53.6v1h1v-1h-1zm-7.3 0l-.9.5.3.5h.6v-1zm-14.2-26.9l-3.5-9.3-1.9.7 3.5 9.3 2-.7zm-4.4-10h-.4v2h.4v-2zm-1.4 1.1l1.2 9.2 2-.2-1.2-9.2-2 .2zm1.2 9.1V221h2v-26.3h-2zm1 25.3h-9v2h9v-2zm-8 1v-53.6h-2V221h2zm-1-52.6h7.3v-2h-7.3v2zm6.5-.5l15.2 26.8 1.8-1-15.3-26.8-1.7 1zm15.2 26.6l3.2 9.2 2-.7-3.3-9.2-2 .7zm4.2 9.9h.4v-2h-.4v2zm1.4-1.2l-1.2-9-2 .3 1.3 9 2-.3zm-1.2-8.9v-26.5h-2v26.5h2zm-1-25.5h9v-2h-9v2zm8-1v53.6h2v-53.6h-2zm1 52.6H317v2h7.4v-2zm-6.4.5l-15.2-26.5-1.7 1 15.1 26.5 1.8-1zm31.5-19.7h1v-.2l-.1-.2-1 .4zM335 167.8v-1h-1.5l.6 1.4.9-.4zm11.4 0l1-.3-.3-.7h-.7v1zm7.4 20.1h1v-.2l-.1-.1-1 .3zm.7 5.8l-1 .1.1 1h1v-1zm.4 0v1h.9v-.8l-.9-.2zm.8-6l-.9-.3v.2l1 .2zm7.3-19.9v-1h-.7l-.3.7 1 .3zm10.2 0l1 .4.5-1.4h-1.5v1zM359 201.2l-1-.4v.4h1zm0 19.8v1h1v-1h-1zm-9.6 0h-1v1h1v-1zm.9-20.2l-14.3-33.4-1.8.8 14.3 33.4 1.8-.8zm-15.2-32h11.4v-2H335v2zm10.4-.7l7.4 20.2 1.9-.7-7.4-20.1-1.9.6zm7.4 20l.7 5.7 2-.2-.7-5.8-2 .3zm1.7 6.6h.4v-2h-.4v2zm1.4-.8l.8-6-2-.3-.8 6 2 .3zm.8-5.8l7.2-20-1.9-.6-7.2 20 1.9.6zm6.3-19.3h10.2v-2H363v2zm9.3-1.4l-14.4 33.4 1.9.8 14.3-33.4-1.8-.8zm-14.4 33.8V221h2v-19.8h-2zm1 18.8h-9.6v2h9.6v-2zm-8.6 1v-19.8h-2V221h2z" fill="#000"/><path d="M0 129h37.2m388.8 0h-37.2M426 257h-37.2M0 257h37.2m0-128a187 187 0 01351.6 0m-351.6 0h89.3M37.2 257a187 187 0 00351.6 0m-351.6 0h89.3m262.3 0h-93.3m93.3-128h-93.3m0 0a105.8 105.8 0 00-169 0m169 0h-169m0 128a105.8 105.8 0 00169 0m-169 0h169" stroke="#000" stroke-width="12"/><path d="M129.2 333.8l-5-3.8 10.5-14 6.1-7.6-.1-.1-23.8 16.2-4.6-3.4 9-27.3-.1-.1-5.6 8-10.5 14-5.1-3.8 20.1-26.8 8.1 6.1-6.2 18.2-2.8 7.3.1.1 6.3-4.7 15.8-11 7.9 5.9-20.1 26.8zM165.3 340.2l-12.1-4.4-5.4 6.7-6.7-2.5 23-27.2 7.9 2.9-.1 35.7-6.8-2.5.2-8.7zm.2-5.5l.3-9.9.3-5.3h-.1l-3 4.2-6.3 7.8 8.8 3.2zM212 327c2.6 3.2 3.7 7.4 3.2 12.7-.5 5.3-2.3 9.3-5.4 11.9a16.8 16.8 0 01-12.5 3.3l-12.9-1.1 3-33.4 12.9 1.2c5.2.4 9.1 2.3 11.7 5.4zm-7.1 20.1c1.8-1.8 2.8-4.4 3.1-8 .3-3.6-.2-6.4-1.7-8.5-1.4-2-3.7-3.2-6.9-3.5l-5.6-.5-2 22.2 5.6.5c3.2.3 5.7-.4 7.5-2.2zM252.8 345.7l.9 5.6-25.5 4.2-5.4-33 24.8-4.1.9 5.6-17.9 2.9 1.3 8.2 14.1-2.3.9 5.3-14.1 2.3 1.4 8.4 18.6-3.1zM290.3 336.4l-6.2 3.2-15.1-29.9 6.2-3.2 15.1 29.9zM326.1 311.4l-6.3 5-21.4-8.2-5.8-2.6 3.8 4.5 12 15.2-4.9 3.9-20.8-26.2 6.2-4.9 21.4 8.1 5.8 2.7.1-.1-3.8-4.5-12-15.2 4.9-3.9 20.8 26.2zM146.4 80.6l-5 4-11.3-13.7L124 63l-.1.1 10.2 27.5-4.5 3.7-24.8-15.7-.1.1 6.6 7.5 11.3 13.8-5 4.1L96 77.6l8-6.5 16.6 10.5 6.5 4.6.1-.1-3.1-7.3-7.1-18.3 7.8-6.3 21.6 26.4zM169.2 62.3L157 67.1l.4 8.8-6.8 2.6-.8-36.3 7.9-3.1 24 27.3-6.9 2.7-5.6-6.8zm-3.6-4.3l-6.5-7.8-3.3-4.3h-.1l.5 5.2.5 10.3 8.9-3.4zM209.3 33.6c3.2 2.7 5 6.7 5.5 12.2.5 5.4-.6 9.7-3.2 13a16.6 16.6 0 01-11.9 5.6l-13.1 1.1-3.2-34 13.2-1.2c5.3-.5 9.5.6 12.7 3.3zm-3.4 21.5c1.4-2.1 2-5 1.7-8.6-.3-3.7-1.4-6.4-3.2-8.2-1.8-1.8-4.3-2.5-7.6-2.2l-5.7.5 2.1 22.7 5.7-.5c3.2-.4 5.5-1.6 7-3.7zM250.5 62.5l-1 5.7-25.9-4.6 6-33.6 25.2 4.5-1 5.7-18.2-3.2-1.5 8.4 14.3 2.5-1 5.4-14.3-2.5-1.5 8.6 18.9 3.1zM277.4 81.1l-6.3-3.4 16.5-29.9 6.3 3.4-16.5 29.9zM307.7 104.7l-6.2-5.4 4.2-23 1.5-6.3-3.8 4.7-13 14.9-4.8-4.2L308 59.6l6.1 5.3-4.1 22.9-1.6 6.3.1.1 3.8-4.7 13-14.9 4.8 4.2-22.4 25.9z" fill="#000" stroke="#000" stroke-width="2" stroke-miterlimit="10"/></svg>