<svg width="434" height="394" viewBox="0 0 434 394" fill="none" xmlns="http://www.w3.org/2000/svg">
<path d="M74.6109 195.488H91.0269V219.048C89.1522 220.821 86.9482 222.113 84.4149 222.924C81.9322 223.684 79.4496 224.064 76.9669 224.064C73.9776 224.064 71.2669 223.532 68.8349 222.468C66.4029 221.404 64.3256 219.757 62.6029 217.528C60.9309 215.248 59.6136 212.385 58.6509 208.94C57.7389 205.444 57.2829 201.264 57.2829 196.4C57.2829 191.333 57.8402 187.052 58.9549 183.556C60.0696 180.06 61.5389 177.223 63.3629 175.044C65.2376 172.815 67.3909 171.219 69.8229 170.256C72.3056 169.243 74.9149 168.736 77.6509 168.736C80.0829 168.736 82.2869 168.964 84.2629 169.42C86.2896 169.825 87.9616 170.307 89.2789 170.864L87.3029 179.148C86.2896 178.692 85.0989 178.312 83.7309 178.008C82.4136 177.704 80.7922 177.552 78.8669 177.552C77.0936 177.552 75.4722 177.907 74.0029 178.616C72.5842 179.325 71.3682 180.44 70.3549 181.96C69.3922 183.48 68.6322 185.456 68.0749 187.888C67.5682 190.269 67.3149 193.132 67.3149 196.476C67.3149 202.911 68.2776 207.648 70.2029 210.688C72.1789 213.728 74.7629 215.248 77.9549 215.248C78.9682 215.248 79.9309 215.096 80.8429 214.792C81.8056 214.488 82.6416 214.007 83.3509 213.348V202.48L74.6109 201.264V195.488Z" fill="#1D1D1B"/>
<path d="M104.247 169.8H130.847V178.616H113.823V191.688H129.251V200.504H113.823V214.184H131.151V223H104.247V169.8Z" fill="#1D1D1B"/>
<path d="M144.504 170.332C146.581 169.876 148.81 169.547 151.192 169.344C153.573 169.141 155.625 169.04 157.348 169.04C159.526 169.04 161.654 169.268 163.732 169.724C165.809 170.129 167.633 170.915 169.204 172.08C170.825 173.195 172.117 174.74 173.08 176.716C174.093 178.641 174.6 181.099 174.6 184.088C174.6 188.395 173.789 191.916 172.168 194.652C170.597 197.337 168.418 199.187 165.632 200.2L168.672 202.632L178.476 223H167.456L158.184 202.024L154.08 201.036V223H144.504V170.332ZM154.08 194.5H157.348C159.729 194.5 161.528 193.791 162.744 192.372C163.96 190.903 164.568 188.648 164.568 185.608C164.568 183.328 164.061 181.479 163.048 180.06C162.034 178.591 160.438 177.856 158.26 177.856C157.449 177.856 156.664 177.881 155.904 177.932C155.144 177.983 154.536 178.084 154.08 178.236V194.5Z" fill="#1D1D1B"/>
<path d="M224.374 195.564L225.438 185.38H225.058L222.246 194.5L213.582 213.196H210.39L201.194 194.424L198.382 185.228H197.926L199.37 195.488V223H190.326V169.8H199.522L210.618 192.828L212.442 199.44H212.746L214.494 192.676L224.906 169.8H233.95V223H224.374V195.564Z" fill="#1D1D1B"/>
<path d="M269.903 210.992H257.363L254.247 223H244.747L260.175 169.42H267.699L283.203 223H273.171L269.903 210.992ZM259.415 203.088H268.231L265.191 190.7L263.975 182.34H263.671L262.379 190.776L259.415 203.088Z" fill="#1D1D1B"/>
<path d="M305.773 196.856L302.277 187.508H301.897L303.113 196.704V223H294.069V169.42H301.441L316.717 196.172L319.985 205.368H320.441L319.225 196.324V169.8H328.269V223.38H320.897L305.773 196.856Z" fill="#1D1D1B"/>
<path d="M353.276 203.24L338.988 169.8H350.388L357.76 189.94L358.52 195.716H358.9L359.736 189.788L366.956 169.8H377.216L362.852 203.164V223H353.276V203.24Z" fill="#1D1D1B"/>
<path fill-rule="evenodd" clip-rule="evenodd" d="M73.6109 194.488H92.0269V219.479L91.7141 219.774C89.7271 221.654 87.3913 223.021 84.7197 223.876L84.7076 223.88C82.1345 224.668 79.5532 225.064 76.9669 225.064C73.857 225.064 71.0075 224.51 68.4341 223.384C65.839 222.249 63.6303 220.493 61.8116 218.139L61.8039 218.13L61.7965 218.119C60.0372 215.72 58.6746 212.741 57.6878 209.209L57.6855 209.201L57.6833 209.192C56.7438 205.591 56.2829 201.322 56.2829 196.4C56.2829 191.266 56.8468 186.876 58.0022 183.252C59.1453 179.667 60.6684 176.705 62.5961 174.402L62.5975 174.4C64.5653 172.06 66.849 170.359 69.45 169.328C72.0536 168.266 74.7898 167.736 77.6509 167.736C80.1383 167.736 82.4145 167.969 84.4734 168.442C86.5336 168.855 88.2714 169.352 89.6685 169.943L90.448 170.273L87.9951 180.556L86.8925 180.06C85.955 179.638 84.8318 179.277 83.514 178.984L83.506 178.982C82.2862 178.701 80.7456 178.552 78.8669 178.552C77.2334 178.552 75.7646 178.877 74.4439 179.514C73.2087 180.133 72.1221 181.115 71.1935 182.505C70.3137 183.897 69.591 185.752 69.0514 188.104C68.5646 190.395 68.3149 193.182 68.3149 196.476C68.3149 202.847 69.2748 207.35 71.0447 210.148C72.8651 212.946 75.1538 214.248 77.9549 214.248C78.8666 214.248 79.722 214.112 80.5267 213.843L80.5342 213.841L80.5418 213.838C81.2261 213.622 81.8265 213.306 82.3509 212.89V203.35L73.6109 202.134V194.488ZM83.3509 202.48V213.348C82.6416 214.007 81.8056 214.488 80.8429 214.792C79.9309 215.096 78.9682 215.248 77.9549 215.248C74.7629 215.248 72.1789 213.728 70.2029 210.688C68.2776 207.648 67.3149 202.911 67.3149 196.476C67.3149 193.132 67.5682 190.269 68.0749 187.888C68.6322 185.456 69.3922 183.48 70.3549 181.96C71.3682 180.44 72.5842 179.325 74.0029 178.616C75.4722 177.907 77.0936 177.552 78.8669 177.552C80.7922 177.552 82.4136 177.704 83.7309 178.008C84.6978 178.223 85.5761 178.476 86.3658 178.766C86.6934 178.887 87.0058 179.014 87.3029 179.148L89.2789 170.864C87.9616 170.307 86.2896 169.825 84.2629 169.42C82.2869 168.964 80.0829 168.736 77.6509 168.736C74.9149 168.736 72.3056 169.243 69.8229 170.256C67.3909 171.219 65.2376 172.815 63.3629 175.044C61.5389 177.223 60.0696 180.06 58.9549 183.556C57.8402 187.052 57.2829 191.333 57.2829 196.4C57.2829 201.264 57.7389 205.444 58.6509 208.94C59.6136 212.385 60.9309 215.248 62.6029 217.528C64.3256 219.757 66.4029 221.404 68.8349 222.468C71.2669 223.532 73.9776 224.064 76.9669 224.064C79.4496 224.064 81.9322 223.684 84.4149 222.924C86.9482 222.113 89.1522 220.821 91.0269 219.048V195.488H74.6109V201.264L83.3509 202.48ZM103.247 168.8H131.847V179.616H114.823V190.688H130.251V201.504H114.823V213.184H132.151V224H103.247V168.8ZM113.823 214.184V200.504H129.251V191.688H113.823V178.616H130.847V169.8H104.247V223H131.151V214.184H113.823ZM143.504 169.528L144.289 169.355C146.414 168.889 148.687 168.554 151.107 168.348C153.506 168.143 155.588 168.04 157.348 168.04C159.593 168.04 161.789 168.275 163.935 168.745C166.135 169.176 168.091 170.013 169.785 171.266C171.554 172.486 172.946 174.164 173.972 176.264C175.079 178.374 175.6 181.001 175.6 184.088C175.6 188.511 174.768 192.224 173.029 195.159C171.652 197.513 169.823 199.286 167.549 200.453L169.474 201.993L180.067 224H166.804L157.469 202.88L155.08 202.305V224H143.504V169.528ZM154.08 201.036L158.184 202.024L167.456 223H178.476L168.672 202.632L165.632 200.2C165.993 200.068 166.345 199.923 166.686 199.763C168.974 198.692 170.801 196.989 172.168 194.652C173.789 191.916 174.6 188.395 174.6 184.088C174.6 181.099 174.093 178.641 173.08 176.716C172.117 174.74 170.825 173.195 169.204 172.08C167.633 170.915 165.809 170.129 163.732 169.724C161.654 169.268 159.526 169.04 157.348 169.04C155.625 169.04 153.573 169.141 151.192 169.344C148.81 169.547 146.581 169.876 144.504 170.332V223H154.08V201.036ZM162.229 180.635L162.224 180.628C161.44 179.49 160.192 178.856 158.26 178.856C157.47 178.856 156.707 178.881 155.97 178.93C155.628 178.953 155.332 178.986 155.08 179.026V193.5H157.348C159.519 193.5 161.002 192.863 161.979 191.728C162.977 190.517 163.568 188.54 163.568 185.608C163.568 183.473 163.094 181.845 162.234 180.641L162.229 180.635ZM162.744 192.372C161.528 193.791 159.729 194.5 157.348 194.5H154.08V178.236C154.536 178.084 155.144 177.983 155.904 177.932C156.664 177.881 157.449 177.856 158.26 177.856C160.438 177.856 162.034 178.591 163.048 180.06C164.061 181.479 164.568 183.328 164.568 185.608C164.568 188.648 163.96 190.903 162.744 192.372ZM223.374 195.512L223.576 193.581L223.182 194.859L214.221 214.196H209.767L200.291 194.853L200.37 195.418V224H189.326V168.8H200.15L211.558 192.475L212.568 196.134L213.548 192.341L224.263 168.8H234.95V224H223.374V195.512ZM214.494 192.676L224.906 169.8H233.95V223H224.374V195.564L225.438 185.38H225.058L222.246 194.5L213.582 213.196H210.39L201.194 194.424L198.382 185.228H197.926L199.37 195.488V223H190.326V169.8H199.522L210.618 192.828L212.442 199.44H212.746L214.494 192.676ZM273.171 223L269.903 210.992H257.363L254.247 223H244.747L260.175 169.42H267.699L283.203 223H273.171ZM258.137 211.992L255.021 224H243.418L259.422 168.42H268.451L284.533 224H272.407L269.139 211.992H258.137ZM264.208 190.892L263.801 188.094L263.361 190.969L260.684 202.088H266.956L264.208 190.892ZM268.231 203.088H259.415L262.379 190.776L263.671 182.34H263.975L265.191 190.7L268.231 203.088ZM304.865 197.282L303.834 194.525L304.113 196.638V224H293.069V168.42H302.022L317.63 195.753L318.45 198.061L318.225 196.391V168.8H329.269V224.38H320.316L304.865 197.282ZM320.441 205.368H319.985L316.717 196.172L301.441 169.42H294.069V223H303.113V196.704L301.897 187.508H302.277L305.773 196.856L320.897 223.38H328.269V169.8H319.225V196.324L320.441 205.368ZM362.852 203.164V223H353.276V203.24L338.988 169.8H350.388L357.76 189.94L358.52 195.716H358.9L359.736 189.788L366.956 169.8H377.216L362.852 203.164ZM358.738 189.705L358.737 189.7L351.087 168.8H337.473L352.276 203.445V224H363.852V203.37L378.735 168.8H366.254L358.76 189.546L358.738 189.705Z" fill="#1D1D1B"/>
<path fill-rule="evenodd" clip-rule="evenodd" d="M37.0878 127H4V139H430V127H396.912C368.887 55.0224 298.909 4 217 4C135.091 4 65.1129 55.0224 37.0878 127ZM50.0311 127H127.565C148.082 101.405 179.626 85 215 85C250.374 85 281.918 101.405 302.435 127H383.969C356.596 61.7875 292.138 16 217 16C141.862 16 77.4035 61.7875 50.0311 127ZM286.415 127C268.26 108.479 242.971 97 215 97C187.029 97 161.74 108.479 143.585 127H286.415ZM4 255H430V267H396.912C368.887 338.978 298.909 390 217 390C135.091 390 65.1129 338.978 37.0878 267H4V255ZM50.0311 267C77.4035 332.213 141.862 378 217 378C292.138 378 356.596 332.213 383.969 267H302.435C281.918 292.595 250.374 309 215 309C179.626 309 148.082 292.595 127.565 267H50.0311ZM143.585 267C161.74 285.521 187.029 297 215 297C242.971 297 268.26 285.521 286.415 267H143.585Z" fill="#1D1D1B"/>
<path d="M74.6109 195.488H91.0269V219.048C89.1522 220.821 86.9482 222.113 84.4149 222.924C81.9322 223.684 79.4496 224.064 76.9669 224.064C73.9776 224.064 71.2669 223.532 68.8349 222.468C66.4029 221.404 64.3256 219.757 62.6029 217.528C60.9309 215.248 59.6136 212.385 58.6509 208.94C57.7389 205.444 57.2829 201.264 57.2829 196.4C57.2829 191.333 57.8402 187.052 58.9549 183.556C60.0696 180.06 61.5389 177.223 63.3629 175.044C65.2376 172.815 67.3909 171.219 69.8229 170.256C72.3056 169.243 74.9149 168.736 77.6509 168.736C80.0829 168.736 82.2869 168.964 84.2629 169.42C86.2896 169.825 87.9616 170.307 89.2789 170.864L87.3029 179.148C86.2896 178.692 85.0989 178.312 83.7309 178.008C82.4136 177.704 80.7922 177.552 78.8669 177.552C77.0936 177.552 75.4722 177.907 74.0029 178.616C72.5842 179.325 71.3682 180.44 70.3549 181.96C69.3922 183.48 68.6322 185.456 68.0749 187.888C67.5682 190.269 67.3149 193.132 67.3149 196.476C67.3149 202.911 68.2776 207.648 70.2029 210.688C72.1789 213.728 74.7629 215.248 77.9549 215.248C78.9682 215.248 79.9309 215.096 80.8429 214.792C81.8056 214.488 82.6416 214.007 83.3509 213.348V202.48L74.6109 201.264V195.488Z" fill="#1D1D1B"/>
<path d="M104.247 169.8H130.847V178.616H113.823V191.688H129.251V200.504H113.823V214.184H131.151V223H104.247V169.8Z" fill="#1D1D1B"/>
<path d="M144.504 170.332C146.581 169.876 148.81 169.547 151.192 169.344C153.573 169.141 155.625 169.04 157.348 169.04C159.526 169.04 161.654 169.268 163.732 169.724C165.809 170.129 167.633 170.915 169.204 172.08C170.825 173.195 172.117 174.74 173.08 176.716C174.093 178.641 174.6 181.099 174.6 184.088C174.6 188.395 173.789 191.916 172.168 194.652C170.597 197.337 168.418 199.187 165.632 200.2L168.672 202.632L178.476 223H167.456L158.184 202.024L154.08 201.036V223H144.504V170.332ZM154.08 194.5H157.348C159.729 194.5 161.528 193.791 162.744 192.372C163.96 190.903 164.568 188.648 164.568 185.608C164.568 183.328 164.061 181.479 163.048 180.06C162.034 178.591 160.438 177.856 158.26 177.856C157.449 177.856 156.664 177.881 155.904 177.932C155.144 177.983 154.536 178.084 154.08 178.236V194.5Z" fill="#1D1D1B"/>
<path d="M224.374 195.564L225.438 185.38H225.058L222.246 194.5L213.582 213.196H210.39L201.194 194.424L198.382 185.228H197.926L199.37 195.488V223H190.326V169.8H199.522L210.618 192.828L212.442 199.44H212.746L214.494 192.676L224.906 169.8H233.95V223H224.374V195.564Z" fill="#1D1D1B"/>
<path d="M269.903 210.992H257.363L254.247 223H244.747L260.175 169.42H267.699L283.203 223H273.171L269.903 210.992ZM259.415 203.088H268.231L265.191 190.7L263.975 182.34H263.671L262.379 190.776L259.415 203.088Z" fill="#1D1D1B"/>
<path d="M305.773 196.856L302.277 187.508H301.897L303.113 196.704V223H294.069V169.42H301.441L316.717 196.172L319.985 205.368H320.441L319.225 196.324V169.8H328.269V223.38H320.897L305.773 196.856Z" fill="#1D1D1B"/>
<path d="M353.276 203.24L338.988 169.8H350.388L357.76 189.94L358.52 195.716H358.9L359.736 189.788L366.956 169.8H377.216L362.852 203.164V223H353.276V203.24Z" fill="#1D1D1B"/>
<path fill-rule="evenodd" clip-rule="evenodd" d="M73.6109 194.488H92.0269V219.479L91.7141 219.774C89.7271 221.654 87.3913 223.021 84.7197 223.876L84.7076 223.88C82.1345 224.668 79.5532 225.064 76.9669 225.064C73.857 225.064 71.0075 224.51 68.4341 223.384C65.839 222.249 63.6303 220.493 61.8116 218.139L61.8039 218.13L61.7965 218.119C60.0372 215.72 58.6746 212.741 57.6878 209.209L57.6855 209.201L57.6833 209.192C56.7438 205.591 56.2829 201.322 56.2829 196.4C56.2829 191.266 56.8468 186.876 58.0022 183.252C59.1453 179.667 60.6684 176.705 62.5961 174.402L62.5975 174.4C64.5653 172.06 66.849 170.359 69.45 169.328C72.0536 168.266 74.7898 167.736 77.6509 167.736C80.1383 167.736 82.4145 167.969 84.4734 168.442C86.5336 168.855 88.2714 169.352 89.6685 169.943L90.448 170.273L87.9951 180.556L86.8925 180.06C85.955 179.638 84.8318 179.277 83.514 178.984L83.506 178.982C82.2862 178.701 80.7456 178.552 78.8669 178.552C77.2334 178.552 75.7646 178.877 74.4439 179.514C73.2087 180.133 72.1221 181.115 71.1935 182.505C70.3137 183.897 69.591 185.752 69.0514 188.104C68.5646 190.395 68.3149 193.182 68.3149 196.476C68.3149 202.847 69.2748 207.35 71.0447 210.148C72.8651 212.946 75.1538 214.248 77.9549 214.248C78.8666 214.248 79.722 214.112 80.5267 213.843L80.5342 213.841L80.5418 213.838C81.2261 213.622 81.8265 213.306 82.3509 212.89V203.35L73.6109 202.134V194.488ZM83.3509 202.48V213.348C82.6416 214.007 81.8056 214.488 80.8429 214.792C79.9309 215.096 78.9682 215.248 77.9549 215.248C74.7629 215.248 72.1789 213.728 70.2029 210.688C68.2776 207.648 67.3149 202.911 67.3149 196.476C67.3149 193.132 67.5682 190.269 68.0749 187.888C68.6322 185.456 69.3922 183.48 70.3549 181.96C71.3682 180.44 72.5842 179.325 74.0029 178.616C75.4722 177.907 77.0936 177.552 78.8669 177.552C80.7922 177.552 82.4136 177.704 83.7309 178.008C84.6978 178.223 85.5761 178.476 86.3658 178.766C86.6934 178.887 87.0058 179.014 87.3029 179.148L89.2789 170.864C87.9616 170.307 86.2896 169.825 84.2629 169.42C82.2869 168.964 80.0829 168.736 77.6509 168.736C74.9149 168.736 72.3056 169.243 69.8229 170.256C67.3909 171.219 65.2376 172.815 63.3629 175.044C61.5389 177.223 60.0696 180.06 58.9549 183.556C57.8402 187.052 57.2829 191.333 57.2829 196.4C57.2829 201.264 57.7389 205.444 58.6509 208.94C59.6136 212.385 60.9309 215.248 62.6029 217.528C64.3256 219.757 66.4029 221.404 68.8349 222.468C71.2669 223.532 73.9776 224.064 76.9669 224.064C79.4496 224.064 81.9322 223.684 84.4149 222.924C86.9482 222.113 89.1522 220.821 91.0269 219.048V195.488H74.6109V201.264L83.3509 202.48ZM103.247 168.8H131.847V179.616H114.823V190.688H130.251V201.504H114.823V213.184H132.151V224H103.247V168.8ZM113.823 214.184V200.504H129.251V191.688H113.823V178.616H130.847V169.8H104.247V223H131.151V214.184H113.823ZM143.504 169.528L144.289 169.355C146.414 168.889 148.687 168.554 151.107 168.348C153.506 168.143 155.588 168.04 157.348 168.04C159.593 168.04 161.789 168.275 163.935 168.745C166.135 169.176 168.091 170.013 169.785 171.266C171.554 172.486 172.946 174.164 173.972 176.264C175.079 178.374 175.6 181.001 175.6 184.088C175.6 188.511 174.768 192.224 173.029 195.159C171.652 197.513 169.823 199.286 167.549 200.453L169.474 201.993L180.067 224H166.804L157.469 202.88L155.08 202.305V224H143.504V169.528ZM154.08 201.036L158.184 202.024L167.456 223H178.476L168.672 202.632L165.632 200.2C165.993 200.068 166.345 199.923 166.686 199.763C168.974 198.692 170.801 196.989 172.168 194.652C173.789 191.916 174.6 188.395 174.6 184.088C174.6 181.099 174.093 178.641 173.08 176.716C172.117 174.74 170.825 173.195 169.204 172.08C167.633 170.915 165.809 170.129 163.732 169.724C161.654 169.268 159.526 169.04 157.348 169.04C155.625 169.04 153.573 169.141 151.192 169.344C148.81 169.547 146.581 169.876 144.504 170.332V223H154.08V201.036ZM162.229 180.635L162.224 180.628C161.44 179.49 160.192 178.856 158.26 178.856C157.47 178.856 156.707 178.881 155.97 178.93C155.628 178.953 155.332 178.986 155.08 179.026V193.5H157.348C159.519 193.5 161.002 192.863 161.979 191.728C162.977 190.517 163.568 188.54 163.568 185.608C163.568 183.473 163.094 181.845 162.234 180.641L162.229 180.635ZM162.744 192.372C161.528 193.791 159.729 194.5 157.348 194.5H154.08V178.236C154.536 178.084 155.144 177.983 155.904 177.932C156.664 177.881 157.449 177.856 158.26 177.856C160.438 177.856 162.034 178.591 163.048 180.06C164.061 181.479 164.568 183.328 164.568 185.608C164.568 188.648 163.96 190.903 162.744 192.372ZM223.374 195.512L223.576 193.581L223.182 194.859L214.221 214.196H209.767L200.291 194.853L200.37 195.418V224H189.326V168.8H200.15L211.558 192.475L212.568 196.134L213.548 192.341L224.263 168.8H234.95V224H223.374V195.512ZM214.494 192.676L224.906 169.8H233.95V223H224.374V195.564L225.438 185.38H225.058L222.246 194.5L213.582 213.196H210.39L201.194 194.424L198.382 185.228H197.926L199.37 195.488V223H190.326V169.8H199.522L210.618 192.828L212.442 199.44H212.746L214.494 192.676ZM273.171 223L269.903 210.992H257.363L254.247 223H244.747L260.175 169.42H267.699L283.203 223H273.171ZM258.137 211.992L255.021 224H243.418L259.422 168.42H268.451L284.533 224H272.407L269.139 211.992H258.137ZM264.208 190.892L263.801 188.094L263.361 190.969L260.684 202.088H266.956L264.208 190.892ZM268.231 203.088H259.415L262.379 190.776L263.671 182.34H263.975L265.191 190.7L268.231 203.088ZM304.865 197.282L303.834 194.525L304.113 196.638V224H293.069V168.42H302.022L317.63 195.753L318.45 198.061L318.225 196.391V168.8H329.269V224.38H320.316L304.865 197.282ZM320.441 205.368H319.985L316.717 196.172L301.441 169.42H294.069V223H303.113V196.704L301.897 187.508H302.277L305.773 196.856L320.897 223.38H328.269V169.8H319.225V196.324L320.441 205.368ZM362.852 203.164V223H353.276V203.24L338.988 169.8H350.388L357.76 189.94L358.52 195.716H358.9L359.736 189.788L366.956 169.8H377.216L362.852 203.164ZM358.738 189.705L358.737 189.7L351.087 168.8H337.473L352.276 203.445V224H363.852V203.37L378.735 168.8H366.254L358.76 189.546L358.738 189.705Z" fill="#1D1D1B"/>
<path fill-rule="evenodd" clip-rule="evenodd" d="M37.0878 127H4V139H430V127H396.912C368.887 55.0224 298.909 4 217 4C135.091 4 65.1129 55.0224 37.0878 127ZM50.0311 127H127.565C148.082 101.405 179.626 85 215 85C250.374 85 281.918 101.405 302.435 127H383.969C356.596 61.7875 292.138 16 217 16C141.862 16 77.4035 61.7875 50.0311 127ZM286.415 127C268.26 108.479 242.971 97 215 97C187.029 97 161.74 108.479 143.585 127H286.415ZM4 255H430V267H396.912C368.887 338.978 298.909 390 217 390C135.091 390 65.1129 338.978 37.0878 267H4V255ZM50.0311 267C77.4035 332.213 141.862 378 217 378C292.138 378 356.596 332.213 383.969 267H302.435C281.918 292.595 250.374 309 215 309C179.626 309 148.082 292.595 127.565 267H50.0311ZM143.585 267C161.74 285.521 187.029 297 215 297C242.971 297 268.26 285.521 286.415 267H143.585Z" fill="#1D1D1B"/>
<path d="M95.1785 297.2C96.0785 296.3 97.0785 295.5 98.2785 295C99.3785 294.4 100.678 294.1 101.878 293.9C103.178 293.7 104.478 293.7 105.878 293.8C107.278 293.9 108.678 294.1 110.078 294.5C110.278 293.1 110.578 291.7 110.978 290.5C111.378 289.3 112.078 288.2 112.978 287.2C113.578 286.6 114.278 286.1 115.178 285.7C116.078 285.3 116.978 285.1 117.978 285.1C118.978 285.1 120.078 285.3 121.178 285.8C122.278 286.3 123.478 287.1 124.578 288.2C125.678 289.3 126.578 290.4 127.078 291.5C127.578 292.6 127.878 293.6 127.978 294.5C128.078 295.4 127.878 296.3 127.578 297.1C127.278 297.9 126.778 298.6 126.178 299.2C125.178 300.2 123.778 300.9 121.978 301.3C120.178 301.7 117.878 301.6 115.178 300.9C114.778 303.1 114.378 305.2 114.178 307.1C113.978 309.1 113.878 311.1 113.878 313.2C115.078 313.1 116.278 312.9 117.678 312.4C119.078 311.9 120.378 311.4 121.678 310.7L123.378 316C122.778 316.3 122.078 316.6 121.378 316.9C120.578 317.2 119.778 317.4 118.978 317.7C118.178 317.9 117.278 318.2 116.478 318.3C115.678 318.5 114.978 318.6 114.378 318.7C114.478 320.2 114.578 321.4 114.778 322.4C114.978 323.4 115.178 324.4 115.478 325.3L109.378 326.4C108.978 325.4 108.678 324.3 108.478 323C108.278 321.8 108.178 320.4 108.078 319C106.378 319 104.578 318.6 102.578 317.9C100.578 317.2 98.6785 315.9 96.6785 314C95.3785 312.7 94.3785 311.4 93.5785 309.9C92.7785 308.5 92.2785 307 92.0785 305.5C91.8785 304 92.0785 302.6 92.4785 301.1C93.1785 299.7 93.9785 298.4 95.1785 297.2ZM108.278 313.1C108.278 310.6 108.378 308.1 108.678 305.8C108.878 303.5 109.178 301.4 109.578 299.4C107.478 299.2 105.678 299.2 104.278 299.4C102.778 299.7 101.578 300.3 100.578 301.4C99.3785 302.7 98.8785 304.1 99.0785 305.7C99.2785 307.3 100.178 308.9 101.678 310.4C102.678 311.4 103.778 312.1 105.078 312.5C106.178 313 107.278 313.2 108.278 313.1ZM117.678 292.1C116.678 293.1 115.978 294.7 115.778 296.8C117.378 297.1 118.578 297.2 119.578 297.1C120.578 297 121.278 296.7 121.778 296.2C122.378 295.6 122.678 295 122.678 294.3C122.678 293.6 122.278 292.9 121.578 292.2C120.878 291.5 120.278 291.2 119.578 291.3C118.878 291.2 118.178 291.5 117.678 292.1Z" fill="#1D1D1B"/>
<path d="M149.578 308.8L168.978 318.3L166.178 324L153.178 317.7L149.278 325.8L161.278 331.6L158.478 337.3L146.478 331.5L140.078 344.7L133.678 341.6L149.578 308.8Z" fill="#1D1D1B"/>
<path d="M176.278 321.3C177.078 321.3 177.978 321.4 178.878 321.4C179.778 321.5 180.678 321.6 181.678 321.7C182.578 321.8 183.478 322 184.378 322.1C185.278 322.2 185.978 322.4 186.778 322.5C188.478 322.8 190.078 323.3 191.578 324C193.078 324.6 194.478 325.5 195.578 326.5C196.678 327.5 197.478 328.7 197.978 330.2C198.478 331.7 198.478 333.4 198.078 335.4C197.478 338.3 196.278 340.6 194.578 342.1C192.878 343.6 190.778 344.5 188.378 344.8L190.578 346.9L195.878 362.2L187.878 360.5L182.678 344.9L179.178 343.5L176.178 358.1L169.178 356.6L176.278 321.3ZM185.778 328.8C185.078 328.7 184.378 328.5 183.678 328.4C182.978 328.3 182.378 328.2 182.078 328.3L179.878 338.6L182.878 339.2C184.778 339.6 186.478 339.5 187.778 338.8C189.078 338.2 189.978 336.8 190.378 334.8C190.678 333.3 190.478 332 189.678 330.9C188.978 329.9 187.678 329.2 185.778 328.8Z" fill="#1D1D1B"/>
<path d="M227.178 354.1L215.978 354.6L213.578 362.8L206.478 363.1L217.978 325.9L223.178 325.7L237.878 361.8L230.378 362.1L227.178 354.1ZM217.578 348.8L225.378 348.5L222.278 340.5L220.978 334.8H220.678L219.878 340.6L217.578 348.8Z" fill="#1D1D1B"/>
<path d="M255.978 337.8L251.478 333.3L251.278 333.4L253.878 338.6L259.778 356.6L253.378 358.7L241.878 323.9L246.778 322.3L265.978 336.4L270.378 340.8L270.578 340.7L268.078 335.7L262.078 317.5L268.478 315.4L279.978 350.2L275.078 351.8L255.978 337.8Z" fill="#1D1D1B"/>
<path d="M316.178 326.7C315.678 328 314.778 329.2 313.578 330.5C312.378 331.7 310.978 332.8 309.478 333.8C307.678 335 305.778 335.9 303.778 336.4C301.778 336.9 299.778 337 297.678 336.5C295.578 336 293.578 335.1 291.478 333.6C289.378 332.1 287.478 329.9 285.578 327C283.578 324 282.378 321.3 281.878 318.7C281.378 316.1 281.378 313.8 281.878 311.7C282.378 309.6 283.278 307.7 284.478 306.1C285.778 304.5 287.178 303.2 288.778 302.1C290.478 301 292.078 300.1 293.378 299.5C294.778 298.9 295.878 298.6 296.878 298.4L299.078 304.2C298.178 304.3 297.278 304.6 296.278 305.1C295.278 305.6 294.078 306.2 292.778 307.1C290.378 308.7 288.978 310.8 288.678 313.5C288.378 316.2 289.378 319.3 291.778 322.9C292.778 324.5 293.978 325.8 295.178 326.8C296.378 327.9 297.678 328.6 298.978 329.1C300.278 329.6 301.678 329.7 303.078 329.5C304.478 329.3 305.878 328.8 307.278 327.8C308.578 326.9 309.578 326.1 310.278 325.2C310.978 324.3 311.578 323.5 311.978 322.7L316.178 326.7Z" fill="#1D1D1B"/>
<path d="M302.278 292.5L316.978 276.7L321.678 281L311.878 291.6L318.078 297.4L326.978 287.7L331.678 292L322.778 301.7L329.278 307.7L339.278 296.9L343.978 301.2L329.178 317.2L302.278 292.5Z" fill="#1D1D1B"/>
<path d="M126.578 79.4L122.378 73.3L122.178 73.5L124.378 79.4L127.478 94.9L125.678 96.4L110.378 91.4L104.778 88.5L104.578 88.7L110.178 93.5L122.778 108L117.578 112.5L93.3784 84.7L98.3784 80.4L116.878 86.7L120.978 88.7L121.178 88.6L119.578 84.3L115.678 65.5L120.578 61.2L144.778 89.1L139.278 93.8L126.578 79.4Z" fill="#1D1D1B"/>
<path d="M167.178 69.9L156.678 74.3L157.278 82.9L150.578 85.7L148.378 46.3L153.278 44.2L179.978 73.3L172.978 76.2L167.178 69.9ZM156.178 68.2L163.478 65.1L157.778 58.6L154.478 53.7L154.278 53.8L155.478 59.6L156.178 68.2Z" fill="#1D1D1B"/>
<path d="M182.978 35.1C183.678 34.9 184.478 34.7 185.478 34.6C186.378 34.4 187.278 34.3 188.278 34.1C189.278 34 190.178 33.8 191.078 33.7C191.978 33.6 192.878 33.5 193.578 33.4C196.878 33 199.678 33.2 202.078 33.8C204.478 34.4 206.478 35.5 208.078 37C209.678 38.5 210.978 40.3 211.878 42.5C212.778 44.7 213.378 47.2 213.678 49.9C213.978 52.4 213.878 54.8 213.478 57.2C213.078 59.6 212.278 61.7 210.978 63.7C209.678 65.7 207.978 67.3 205.678 68.6C203.378 69.9 200.478 70.8 196.978 71.2C196.378 71.3 195.678 71.3 194.778 71.4C193.878 71.5 192.878 71.5 191.878 71.6C190.878 71.7 189.878 71.7 188.978 71.8C188.078 71.8 187.378 71.9 186.878 71.8L182.978 35.1ZM194.878 39.8C194.078 39.9 193.378 40 192.578 40.1C191.778 40.2 191.178 40.3 190.878 40.5L193.578 65.1C193.678 65.1 193.978 65.1 194.278 65.1C194.578 65.1 194.978 65.1 195.378 65C195.778 65 196.178 65 196.478 64.9C196.878 64.9 197.078 64.9 197.278 64.8C199.278 64.6 200.978 64 202.178 63.2C203.478 62.3 204.378 61.3 205.078 60C205.778 58.7 206.178 57.3 206.278 55.7C206.378 54.1 206.378 52.5 206.178 50.9C205.978 49.5 205.678 48 205.278 46.6C204.878 45.2 204.178 43.9 203.278 42.9C202.378 41.8 201.278 41 199.878 40.4C198.578 39.7 196.878 39.6 194.878 39.8Z" fill="#1D1D1B"/>
<path d="M230.778 33L252.378 36.5L251.378 42.9L236.878 40.6L235.478 49.1L248.678 51.2L247.678 57.6L234.478 55.5L233.078 64.4L247.778 66.8L246.778 73.2L224.878 69.7L230.778 33Z" fill="#1D1D1B"/>
<path d="M291.678 51.5L297.978 55L280.078 87.3L273.778 83.8L291.678 51.5Z" fill="#1D1D1B"/>
<path d="M309.778 84.8L311.478 78.5L311.278 78.3L307.978 83.2L295.078 97.5L289.978 92.9L314.878 65.3L318.778 68.8L315.978 92.8L314.278 98.9L314.478 99.1L317.578 94.3L330.578 79.9L335.678 84.5L310.778 112.1L306.878 108.6L309.778 84.8Z" fill="#1D1D1B"/>
<path fill-rule="evenodd" clip-rule="evenodd" d="M229.95 31.8527L253.52 35.6719L252.212 44.0447L237.704 41.7434L236.629 48.2704L249.82 50.3691L248.512 58.7451L235.311 56.645L234.221 63.5733L248.92 65.9731L247.612 74.3458L223.732 70.5295L229.95 31.8527ZM231.607 34.1473L226.025 68.8705L245.945 72.0542L246.637 67.6269L231.936 65.2267L233.646 54.355L246.845 56.4549L247.536 52.0309L234.328 49.9296L236.053 39.4566L250.545 41.7553L251.237 37.3281L231.607 34.1473ZM193.709 34.3915C192.995 34.4932 192.088 34.594 191.201 34.6925L191.189 34.6939C190.799 34.7372 190.407 34.8009 189.975 34.871L189.876 34.8871C189.428 34.9598 188.942 35.0368 188.427 35.0901C187.969 35.1805 187.532 35.2512 187.125 35.3171C187.083 35.3238 187.042 35.3305 187.001 35.3371C186.538 35.4122 186.114 35.4832 185.695 35.5762L185.637 35.5891L185.578 35.595C185.014 35.6515 184.518 35.7424 184.064 35.8487L187.782 70.8367C187.854 70.8339 187.932 70.8305 188.015 70.8269C188.279 70.8153 188.593 70.8015 188.923 70.8001C189.391 70.7503 189.875 70.7251 190.34 70.7013L190.366 70.6999C190.85 70.6752 191.316 70.6513 191.779 70.605C192.291 70.5537 192.8 70.5277 193.27 70.5036L193.315 70.5013C193.807 70.4761 194.252 70.4523 194.668 70.4061C195.093 70.3589 195.476 70.3328 195.806 70.3103C195.846 70.3076 195.884 70.305 195.922 70.3024C196.289 70.2771 196.568 70.2546 196.814 70.2136L196.839 70.2094L196.865 70.2065C200.262 69.8183 203.027 68.9501 205.186 67.7294C207.354 66.5044 208.932 65.0133 210.14 63.155C211.362 61.2753 212.114 59.3058 212.492 57.0356C212.878 54.7183 212.973 52.4143 212.686 50.0191L212.685 50.0104C212.393 47.3863 211.812 44.9789 210.953 42.8786C210.111 40.8201 208.897 39.1378 207.394 37.7295C205.925 36.3515 204.079 35.3308 201.836 34.7701C199.569 34.2033 196.896 34.0063 193.709 34.3915ZM193.458 32.4073C196.867 31.9941 199.791 32.1973 202.321 32.8299C204.878 33.4692 207.032 34.6485 208.762 36.2705C210.46 37.8622 211.846 39.7799 212.804 42.1214C213.744 44.4199 214.363 47.011 214.672 49.7853C214.984 52.3885 214.878 54.8831 214.465 57.3644C214.043 59.8942 213.195 62.1247 211.817 64.245C210.425 66.3867 208.603 68.0956 206.17 69.4706C203.736 70.8468 200.709 71.7775 197.116 72.1907C196.77 72.2468 196.409 72.2735 196.06 72.2976C196.021 72.3003 195.982 72.303 195.943 72.3056C195.61 72.3284 195.269 72.3517 194.889 72.3939C194.404 72.4477 193.9 72.4739 193.417 72.4987L193.39 72.5001C192.907 72.5248 192.441 72.5487 191.978 72.595C191.466 72.6463 190.957 72.6723 190.487 72.6964L190.442 72.6987C189.95 72.7239 189.504 72.7477 189.089 72.7939L189.034 72.8H188.978C188.675 72.8 188.409 72.8117 188.143 72.8234C188.034 72.8281 187.925 72.8329 187.814 72.8369C187.467 72.8493 187.06 72.8561 186.682 72.7806L185.962 72.6365L181.895 34.3695L182.704 34.1385C183.419 33.9341 184.264 33.7212 185.32 33.611C185.781 33.5105 186.238 33.4348 186.681 33.3629L186.802 33.3433C187.228 33.2743 187.645 33.2068 188.082 33.1194L188.13 33.1098L188.179 33.105C188.645 33.0583 189.093 32.9879 189.556 32.9129L189.664 32.8954C190.085 32.8269 190.525 32.7553 190.968 32.7061C191.873 32.6055 192.756 32.5074 193.437 32.4101L193.448 32.4085L193.458 32.4073ZM200.312 39.498C201.818 40.1497 203.037 41.0316 204.037 42.2486C205.041 43.3695 205.804 44.801 206.24 46.3253C206.655 47.7765 206.963 49.3219 207.168 50.7586L207.17 50.7673L207.171 50.776C207.381 52.4565 207.379 54.1224 207.276 55.7624C207.168 57.5003 206.73 59.0416 205.959 60.4741C205.18 61.92 204.171 63.037 202.748 64.0222L202.74 64.0272L202.733 64.0321C201.404 64.9181 199.594 65.5524 197.524 65.7797C197.195 65.895 196.872 65.9013 196.613 65.9005C196.22 65.9961 195.793 66.0004 195.491 66.0002C195.018 66.1003 194.572 66.1001 194.303 66.1L192.682 66.1L189.818 40.005L190.324 39.6679C190.637 39.4594 191.015 39.3534 191.328 39.2853C191.663 39.2125 192.052 39.158 192.454 39.1077C192.85 39.0583 193.221 39.0088 193.596 38.9588L193.597 38.9586C193.972 38.9087 194.35 38.8583 194.754 38.8077L194.767 38.8062L194.779 38.805C196.811 38.6017 198.747 38.6717 200.312 39.498ZM194.99 40.7938C194.599 40.8427 194.232 40.8917 193.861 40.9412L193.86 40.9414C193.485 40.9913 193.107 41.0417 192.702 41.0923C192.411 41.1287 192.166 41.1629 191.961 41.1991L194.475 64.0989C194.709 64.0954 194.928 64.0818 195.136 64.0299L195.255 64H195.378C195.835 64 196.05 63.9888 196.162 63.9513L196.316 63.9H196.478C196.581 63.9 196.658 63.9 196.724 63.8986C196.789 63.8973 196.829 63.895 196.854 63.8925C196.855 63.8923 196.857 63.8922 196.858 63.892L196.996 63.8233L197.179 63.805C199.043 63.6185 200.577 63.0636 201.617 62.3726C202.789 61.5593 203.578 60.6775 204.198 59.5259C204.827 58.3584 205.189 57.0997 205.28 55.6376C205.378 54.0806 205.376 52.5494 205.187 51.0328C204.992 49.6719 204.701 48.2207 204.317 46.8747C203.955 45.607 203.324 44.4455 202.535 43.569L202.519 43.5515L202.504 43.5332C201.717 42.5704 200.752 41.8626 199.484 41.3191L199.444 41.3016L199.404 41.2805C198.379 40.7282 196.934 40.6006 194.99 40.7938ZM153.536 43.0016L181.681 73.6769L172.716 77.3912L166.918 71.0934L157.726 74.9453L158.326 83.5461L149.659 87.1681L147.341 45.6567L153.536 43.0016ZM149.416 46.9433L151.498 84.2319L156.231 82.254L155.631 73.6547L167.439 68.7066L173.241 75.0088L178.275 72.9231L153.021 45.3984L149.416 46.9433ZM291.289 50.1397L299.337 54.611L280.468 88.6603L272.42 84.189L291.289 50.1397ZM292.068 52.8603L275.137 83.411L279.689 85.9397L296.62 55.389L292.068 52.8603ZM154.817 52.4126L158.572 57.9886L165.142 65.4801L155.294 69.662L154.487 59.7424L153.143 53.2495L154.817 52.4126ZM156.169 57.9997L156.47 59.4576L157.063 66.738L161.815 64.7199L156.985 59.2114L156.169 57.9997ZM120.675 59.785L146.194 89.2058L139.18 95.1998L125.789 80.0165L125.412 79.4694L128.576 95.2873L125.894 97.5224L110.563 92.5122L110.885 92.7886L124.191 108.1L117.479 113.909L91.9636 84.5978L98.1597 79.2691L117.26 85.7737L119.459 86.8461L118.615 84.5775L114.581 65.1327L120.675 59.785ZM116.776 65.8673L120.542 84.0225L122.429 89.0928L120.984 89.8153L116.497 87.6263L98.5971 81.5309L94.7932 84.8022L117.678 111.091L121.366 107.9L109.472 94.2114L103.108 88.7565L104.589 87.2756L110.766 90.4747L125.463 95.2776L126.381 94.5127L123.414 79.6745L121.017 73.2473L122.521 71.7434L127.368 78.7835L139.377 92.4002L143.363 88.9942L120.482 62.615L116.776 65.8673ZM314.804 63.8896L319.832 68.4016L316.963 92.9933L316.758 93.7267L316.782 93.6897L330.506 78.488L337.091 84.4273L310.853 113.51L305.823 108.996L308.794 84.6083L309.168 83.2239L308.768 83.8173L295.151 98.9123L288.566 92.9727L314.804 63.8896ZM314.953 66.7104L291.391 92.8273L295.006 96.0877L307.189 82.5827L311.127 76.7345L312.595 78.202L310.762 84.9917L307.934 108.204L310.704 110.69L334.266 84.5727L330.651 81.312L318.375 94.9102L314.647 100.683L313.158 99.1941L314.994 92.6066L317.725 69.1984L314.953 66.7104ZM316.922 275.293L323.095 280.941L313.288 291.549L318.024 295.98L326.917 286.288L333.092 291.938L324.189 301.641L329.223 306.288L339.22 295.491L345.395 301.141L329.236 318.61L300.861 292.556L316.922 275.293ZM317.035 278.107L303.696 292.444L329.121 315.789L342.562 301.259L339.337 298.309L329.334 309.112L321.368 301.758L330.265 292.062L327.04 289.112L318.133 298.82L310.469 291.651L320.262 281.059L317.035 278.107ZM117.978 286.1C117.124 286.1 116.362 286.268 115.585 286.614C114.808 286.959 114.215 287.382 113.704 287.889C112.883 288.805 112.272 289.782 111.927 290.816C111.551 291.944 111.263 293.282 111.068 294.641L110.906 295.776L109.804 295.461C108.489 295.086 107.161 294.894 105.807 294.797C104.452 294.7 103.234 294.704 102.036 294.887C100.865 295.083 99.7037 295.362 98.7573 295.878L98.7114 295.903L98.6631 295.923C97.6303 296.353 96.7374 297.055 95.8856 297.907C94.814 298.978 94.08 300.146 93.4188 301.456C93.0559 302.845 92.8974 304.076 93.0697 305.368C93.2524 306.738 93.7102 308.115 94.4467 309.404L94.4539 309.416L94.4608 309.429C95.2053 310.825 96.139 312.045 97.3761 313.283C99.313 315.122 101.092 316.32 102.909 316.956C104.851 317.636 106.533 318 108.078 318H109.01L109.076 318.929C109.177 320.341 109.274 321.691 109.465 322.835L109.467 322.848C109.606 323.752 109.794 324.544 110.03 325.266L114.213 324.512C114.055 323.882 113.927 323.241 113.804 322.628L113.798 322.596C113.583 321.523 113.48 320.26 113.381 318.766L113.32 317.862L114.214 317.713C114.318 317.696 114.422 317.679 114.528 317.662C115.056 317.576 115.61 317.486 116.236 317.33L116.295 317.315L116.354 317.308C116.843 317.246 117.342 317.108 117.898 316.954C118.146 316.885 118.406 316.813 118.681 316.743C119.089 316.593 119.492 316.467 119.868 316.349L119.88 316.345C120.277 316.221 120.644 316.107 121.006 315.971C121.406 315.8 121.794 315.634 122.158 315.47L121.083 312.116C120.072 312.588 119.058 312.969 118.015 313.342C116.514 313.877 115.226 314.091 113.962 314.196L112.878 314.287V313.2C112.878 311.067 112.98 309.034 113.183 307L113.184 306.995C113.368 305.246 113.717 303.336 114.074 301.384C114.114 301.163 114.154 300.942 114.195 300.721L114.387 299.662L115.429 299.932C118.03 300.606 120.162 300.679 121.762 300.324C123.431 299.953 124.641 299.323 125.471 298.493C125.995 297.969 126.403 297.386 126.642 296.749C126.911 296.032 127.061 295.298 126.985 294.61C126.899 293.844 126.638 292.948 126.168 291.914C125.743 290.978 124.943 289.979 123.871 288.907C122.854 287.89 121.753 287.16 120.765 286.71C119.803 286.273 118.845 286.1 117.978 286.1ZM114.772 284.786C115.795 284.331 116.833 284.1 117.978 284.1C119.112 284.1 120.354 284.327 121.592 284.889C122.804 285.44 124.102 286.31 125.286 287.493C126.414 288.621 127.414 289.822 127.989 291.086C128.519 292.252 128.858 293.356 128.972 294.389C129.096 295.502 128.846 296.568 128.515 297.451C128.154 298.414 127.562 299.231 126.886 299.907C125.716 301.077 124.126 301.847 122.195 302.276C120.448 302.664 118.344 302.617 115.973 302.115C115.641 303.938 115.338 305.641 115.173 307.201C115.013 308.808 114.918 310.416 114.888 312.078C115.664 311.96 116.46 311.773 117.342 311.458C118.731 310.962 119.973 310.482 121.204 309.819L122.263 309.249L124.593 316.511L123.826 316.894C123.199 317.208 122.476 317.517 121.788 317.812L121.772 317.819L121.751 317.828L121.73 317.836C121.304 317.996 120.881 318.128 120.489 318.251L120.477 318.254C120.073 318.381 119.699 318.498 119.33 318.636L119.276 318.656L119.221 318.67C119.036 318.716 118.825 318.775 118.597 318.838C117.999 319.003 117.29 319.199 116.664 319.284C116.226 319.392 115.814 319.472 115.44 319.538C115.521 320.609 115.613 321.472 115.759 322.204C115.962 323.217 116.15 324.154 116.427 324.984L116.792 326.079L108.753 327.529L108.45 326.771C108.019 325.695 107.701 324.522 107.491 323.158C107.327 322.172 107.229 321.065 107.146 319.964C105.581 319.847 103.963 319.444 102.248 318.844C100.068 318.081 98.0494 316.681 95.9897 314.725L95.9804 314.716L95.9714 314.707C94.6168 313.352 93.5553 311.978 92.7029 310.383C91.8437 308.876 91.3039 307.257 91.0872 305.632C90.8635 303.954 91.0934 302.413 91.5122 300.842L91.5385 300.744L91.584 300.653C92.3108 299.199 93.1677 297.796 94.4714 296.493C95.4084 295.556 96.5005 294.668 97.8456 294.097C99.0865 293.431 100.502 293.115 101.714 292.913L101.726 292.911C103.126 292.696 104.507 292.699 105.95 292.802C107.042 292.88 108.149 293.018 109.265 293.264C109.459 292.19 109.713 291.134 110.03 290.184C110.483 288.825 111.265 287.608 112.235 286.531L112.253 286.511L112.271 286.493C112.956 285.808 113.758 285.237 114.772 284.786ZM119.578 290.293C120.667 290.191 121.525 290.732 122.286 291.493C123.06 292.267 123.678 293.209 123.678 294.3C123.678 295.339 123.213 296.179 122.486 296.907C121.776 297.617 120.832 297.979 119.678 298.095C118.54 298.209 117.232 298.09 115.594 297.783L114.696 297.614L114.783 296.705C114.996 294.466 115.748 292.634 116.94 291.424C117.598 290.655 118.555 290.198 119.578 290.293ZM119.437 292.29C119.129 292.246 118.758 292.366 118.447 292.74L118.418 292.775L118.386 292.807C117.727 293.466 117.174 294.518 116.902 295.976C117.981 296.137 118.801 296.173 119.479 296.105C120.325 296.02 120.781 295.783 121.071 295.493C121.543 295.021 121.678 294.661 121.678 294.3C121.678 293.991 121.497 293.532 120.871 292.907C120.265 292.3 119.963 292.255 119.72 292.29L119.578 292.31L119.437 292.29ZM297.513 297.253L300.471 305.051L299.189 305.194C298.439 305.277 297.655 305.53 296.726 305.994C295.726 306.494 294.583 307.067 293.348 307.922L293.34 307.927L293.333 307.932C291.144 309.391 289.935 311.243 289.672 313.61C289.409 315.978 290.273 318.839 292.611 322.345L292.619 322.357L292.626 322.37C293.565 323.872 294.693 325.093 295.819 326.032L295.837 326.047L295.854 326.063C296.94 327.058 298.124 327.7 299.337 328.167C300.451 328.595 301.675 328.69 302.937 328.51C304.188 328.331 305.435 327.888 306.697 326.986L306.703 326.982L306.709 326.978C307.995 326.088 308.888 325.359 309.489 324.586C310.196 323.677 310.735 322.951 311.084 322.253L311.689 321.043L317.351 326.436L317.112 327.059C316.544 328.536 315.542 329.847 314.313 331.178L314.3 331.193L314.286 331.207C313.028 332.464 311.574 333.605 310.033 334.632C308.156 335.884 306.151 336.837 304.021 337.37C301.892 337.902 299.727 338.016 297.447 337.473C295.212 336.941 293.095 335.983 290.897 334.414C288.657 332.814 286.678 330.502 284.743 327.55C282.696 324.478 281.428 321.655 280.896 318.889C280.376 316.18 280.366 313.734 280.906 311.468C281.437 309.238 282.395 307.212 283.678 305.5L283.69 305.484L283.702 305.469C285.059 303.799 286.529 302.433 288.212 301.276L288.223 301.268L288.235 301.26C289.962 300.143 291.605 299.217 292.959 298.592L292.972 298.586L292.985 298.581C294.455 297.95 295.622 297.631 296.682 297.419L297.513 297.253ZM296.251 299.566C295.531 299.749 294.733 300.008 293.785 300.414C292.544 300.987 290.996 301.857 289.333 302.932C287.826 303.97 286.503 305.196 285.267 306.715C284.157 308.2 283.319 309.969 282.851 311.931C282.391 313.866 282.381 316.019 282.86 318.511C283.328 320.943 284.46 323.519 286.41 326.445L286.415 326.452C288.28 329.298 290.1 331.386 292.06 332.786C294.062 334.217 295.945 335.059 297.91 335.527C299.83 335.984 301.665 335.897 303.536 335.43C305.406 334.962 307.201 334.116 308.924 332.968C310.377 331.999 311.717 330.944 312.857 329.807C313.813 328.77 314.519 327.853 314.979 326.939L312.196 324.288C311.853 324.796 311.466 325.302 311.068 325.814C310.27 326.84 309.165 327.71 307.852 328.619C306.317 329.714 304.767 330.269 303.22 330.49C301.682 330.709 300.106 330.605 298.619 330.033C297.239 329.502 295.829 328.748 294.52 327.553C293.255 326.496 291.993 325.126 290.938 323.442C288.482 319.754 287.348 316.418 287.685 313.389C288.021 310.36 289.61 308.013 292.216 306.273C293.572 305.335 294.821 304.71 295.818 304.212L295.831 304.205C296.476 303.883 297.101 303.629 297.725 303.452L296.251 299.566ZM104.137 298.41C105.643 298.195 107.529 298.2 109.673 298.404L110.776 298.509L110.559 299.596C110.167 301.557 109.872 303.621 109.675 305.886L109.673 305.908L109.67 305.929C109.378 308.17 109.278 310.623 109.278 313.1V314.005L108.378 314.095C107.194 314.213 105.939 313.979 104.723 313.437C103.276 312.98 102.057 312.192 100.971 311.107C99.3701 309.506 98.3222 307.712 98.0862 305.824C97.845 303.894 98.4708 302.21 99.8416 300.724C101.009 299.441 102.414 298.753 104.082 298.419L104.11 298.414L104.137 298.41ZM104.448 300.386C103.131 300.653 102.144 301.164 101.318 302.073L101.313 302.078C100.285 303.192 99.912 304.306 100.071 305.576C100.235 306.888 100.987 308.294 102.386 309.693C103.285 310.592 104.247 311.198 105.373 311.544L105.434 311.563L105.492 311.589C106.115 311.872 106.719 312.038 107.284 312.098C107.309 309.914 107.419 307.733 107.684 305.692C107.851 303.783 108.085 302.007 108.389 300.308C106.828 300.208 105.5 300.238 104.448 300.386ZM149.117 307.46L170.317 317.842L166.637 325.333L153.645 319.037L150.613 325.334L162.62 331.137L158.938 338.633L146.943 332.835L140.542 346.036L132.342 342.064L149.117 307.46ZM150.04 310.139L135.015 341.136L139.615 343.364L146.014 330.165L158.019 335.967L159.937 332.062L147.944 326.266L152.712 316.363L165.719 322.666L167.639 318.758L150.04 310.139ZM269.115 314.139L281.243 350.839L274.901 352.91L255.326 338.561L254.629 337.864L254.806 338.218L261.04 357.238L252.742 359.961L240.614 323.261L246.956 321.19L266.632 335.639L267.228 336.235L267.151 336.082L260.815 316.862L269.115 314.139ZM263.342 318.138L269.005 335.318L271.92 341.147L270.181 342.017L265.325 337.161L246.601 323.41L243.143 324.539L254.015 357.439L258.517 355.961L252.951 338.981L249.937 332.953L251.676 332.083L256.631 337.038L275.256 350.69L278.714 349.561L267.842 316.661L263.342 318.138ZM175.46 320.3H176.278C176.696 320.3 177.133 320.325 177.547 320.349L177.598 320.351C178.039 320.377 178.461 320.4 178.878 320.4H178.934L178.989 320.406C179.889 320.506 180.784 320.605 181.778 320.705L181.789 320.706C182.267 320.759 182.74 320.838 183.182 320.912L183.193 320.913C183.648 320.989 184.071 321.059 184.489 321.106C184.982 321.161 185.416 321.243 185.806 321.318L185.887 321.334C186.25 321.404 186.567 321.466 186.902 321.508L186.927 321.511L186.952 321.515C188.725 321.828 190.401 322.35 191.976 323.082C193.581 323.728 195.072 324.688 196.251 325.76C197.477 326.874 198.372 328.22 198.927 329.884C199.501 331.605 199.479 333.496 199.059 335.596L199.058 335.602C198.427 338.649 197.146 341.168 195.24 342.85C193.862 344.066 192.25 344.915 190.462 345.406L191.444 346.344L197.403 363.546L187.111 361.359L181.876 345.656L179.917 344.872L176.955 359.289L168.003 357.371L175.46 320.3ZM177.092 322.326L170.354 355.829L175.402 356.911L178.44 342.127L183.48 344.144L188.646 359.641L194.354 360.854L189.713 347.456L186.164 344.069L188.254 343.808C190.475 343.53 192.382 342.704 193.917 341.35C195.41 340.032 196.529 337.952 197.099 335.2C197.478 333.302 197.456 331.793 197.03 330.516C196.584 329.18 195.88 328.126 194.906 327.24C193.891 326.318 192.593 325.483 191.207 324.928L191.181 324.918L191.156 324.906C189.745 324.248 188.237 323.775 186.629 323.489C186.233 323.438 185.861 323.366 185.517 323.299L185.426 323.282C185.041 323.207 184.675 323.139 184.268 323.094C183.79 323.041 183.317 322.962 182.875 322.888L182.864 322.886C182.411 322.811 181.988 322.741 181.571 322.694C180.588 322.596 179.701 322.497 178.822 322.4C178.358 322.398 177.901 322.372 177.484 322.348L177.461 322.347C177.334 322.34 177.211 322.333 177.092 322.326ZM223.84 324.674L239.342 362.742L229.712 363.127L226.514 355.131L216.737 355.567L214.337 363.769L205.104 364.159L217.232 324.928L223.84 324.674ZM218.725 326.872L207.853 362.041L212.82 361.831L215.22 353.633L227.843 353.069L231.045 361.072L236.415 360.858L222.517 326.726L218.725 326.872ZM183.655 327.386C183.71 327.394 183.766 327.402 183.82 327.41C184.204 327.465 184.582 327.546 184.922 327.619L184.938 327.622C185.294 327.698 185.61 327.766 185.92 327.81L185.952 327.814L185.984 327.821C187.989 328.243 189.58 329.022 190.492 330.319C191.488 331.693 191.7 333.291 191.359 334.996C190.928 337.149 189.913 338.902 188.226 339.695C186.647 340.533 184.694 340.603 182.679 340.18C182.677 340.179 182.675 340.179 182.672 340.178L178.689 339.382L181.22 327.532L181.762 327.351C182.132 327.228 182.549 327.254 182.819 327.279C183.077 327.302 183.372 327.345 183.655 327.386ZM182.888 329.299L181.068 337.818L183.075 338.219L183.084 338.221C184.856 338.594 186.289 338.466 187.304 337.919L187.331 337.905L187.359 337.892C188.255 337.479 189.031 336.439 189.398 334.604C189.656 333.311 189.469 332.313 188.87 331.488L188.864 331.481L188.859 331.473C188.373 330.779 187.376 330.163 185.603 329.785C185.231 329.73 184.865 329.652 184.535 329.581L184.519 329.578C184.163 329.501 183.847 329.434 183.537 329.39C183.473 329.381 183.411 329.372 183.351 329.363C183.179 329.338 183.026 329.316 182.888 329.299ZM219.807 333.8H221.776L223.237 340.206L226.817 349.445L216.245 349.852L218.897 340.396L219.807 333.8ZM221.034 339.541L220.86 340.804L218.912 347.748L223.94 347.554L221.32 340.793L221.034 339.541Z" fill="#1D1D1B"/>
</svg>
