<svg width="1353" height="402" xmlns="http://www.w3.org/2000/svg">

 <g>
  <title>background</title>
  <rect fill="none" id="canvas_background" height="404" width="1355" y="-1" x="-1"/>
 </g>
 <g>
  <title>Layer 1</title>
  <path id="svg_1" fill="black" d="m1336.781404,201.671c2.59,-1.298 5.19,-2.597 6.81,-5.193c4.55,-4.545 7.47,-10.387 7.47,-16.879c0,-6.492 -2.27,-12.334 -6.82,-16.554c-4.22,-4.22 -9.09,-6.492 -14.6,-7.465l-20.13,0l0,69.137l11.04,0l0,-21.423l5.84,0l13.63,21.423l12.66,0l-15.9,-23.046zm-10.72,-8.439l-6.81,0l0,-27.915l6.81,0c3.58,0 6.82,1.299 9.09,4.22c2.6,2.272 4.22,5.842 4.22,9.737c0,3.571 -1.3,7.466 -4.22,10.063c-2.27,2.596 -5.19,3.895 -9.09,3.895z"/>
  <path id="svg_5" fill="black" d="m479.217404,180.574c-2.272,-0.974 -4.22,-2.272 -5.843,-3.571c-1.298,-1.298 -1.947,-3.246 -1.947,-5.193c0,-1.948 0.324,-3.571 1.947,-5.194c1.948,-2.272 5.518,-2.596 7.79,-0.324c0.325,0 0.325,0.324 0.325,0.324c0.974,1.299 1.947,2.597 2.272,4.545l0,1.298l10.062,-3.57l0,-0.974c-0.974,-2.597 -2.272,-5.518 -4.219,-7.466c-3.246,-3.246 -7.791,-5.193 -12.335,-5.193c-4.544,0 -9.088,1.947 -12.334,5.193c-3.246,2.597 -5.193,6.817 -5.193,11.361c0,4.544 1.947,8.764 5.193,11.36c3.246,3.246 7.465,5.518 12.01,6.817c3.246,1.298 5.842,3.246 8.114,5.842c2.272,2.272 3.571,5.194 3.571,8.115c0,3.246 -1.299,6.492 -3.571,8.764c-2.272,2.272 -5.193,3.246 -8.114,3.246c-2.922,0 -5.843,-0.974 -8.115,-3.246c-2.272,-2.597 -3.571,-5.843 -3.571,-9.738l0,-1.947l-10.386,3.57l0,1.299c0.324,5.193 2.596,9.737 5.842,12.658c4.22,4.545 10.062,6.817 15.905,6.817c5.843,0 11.361,-2.272 15.905,-6.492c4.219,-4.22 6.492,-9.738 6.492,-15.58c0,-5.843 -2.273,-11.361 -6.492,-15.256c-2.921,-3.57 -7.79,-6.167 -13.308,-7.465z"/>
  <path id="svg_6" fill="black" d="m541.537404,165.318l15.905,0l0,59.724l11.036,0l0,-59.724l15.58,0l0,-9.413l-42.521,0l0,9.413z"/>
  <path id="svg_7" fill="black" d="m644.431404,155.905l-25.317,69.137l11.36,0l10.387,-27.914l16.55,0l10.07,27.914l11.36,0l-25.32,-69.137l-9.09,0l0,0zm0,31.485l4.545,-12.659l5.195,12.659l-9.74,0z"/>
  <path id="svg_8" fill="black" d="m756.091404,196.154c4.54,-4.544 6.82,-10.387 7.46,-16.879c0,-6.491 -2.59,-12.334 -7.46,-16.554c-4.22,-4.219 -9.09,-6.491 -14.61,-7.465l-20.12,0l0,69.137l11.03,0l0,-21.423l5.85,0l14.28,21.423l12.66,0l-15.58,-23.695c2.27,-0.649 4.87,-2.272 6.49,-4.544zm-16.88,-2.921l-7.47,0l0,-27.915l7.47,0c3.57,0 6.82,1.298 9.09,4.22c2.6,2.596 4.22,5.842 3.57,9.737c0,3.571 -1.3,7.466 -4.22,10.062c-1.62,2.597 -4.87,3.896 -8.44,3.896z"/>
  <path id="svg_9" fill="black" d="m867.751404,155.905l-20.13,0l0,69.137l11.04,0l0,-21.423l6.81,0c6.5,0 12.66,-2.596 17.53,-7.465c4.55,-4.544 6.82,-10.387 6.82,-16.879c0,-6.491 -2.27,-12.334 -6.82,-16.554c-4.22,-3.895 -9.73,-6.491 -15.25,-6.816zm7.14,33.757c-2.27,2.272 -5.84,4.22 -9.09,3.571l-6.82,0l0,-27.915l6.82,0c3.57,0 6.82,1.298 9.09,4.22c2.59,2.272 4.22,5.842 4.22,9.737c-0.33,3.895 -1.63,7.466 -4.22,10.387z"/>
  <path id="svg_10" fill="black" d="m969.021404,154.931c-19.15,-0.325 -35.71,15.256 -35.71,34.731c0,0.324 0,0.324 0,0.974c0,9.088 3.57,18.176 10.39,24.668c6.82,6.817 15.91,11.036 25.64,10.387c9.74,0 18.83,-3.57 25.65,-10.387c6.81,-6.492 11.03,-15.58 10.38,-24.668c0,-9.738 -3.57,-18.827 -10.38,-25.318c-7.15,-6.817 -16.23,-10.387 -25.97,-10.387zm17.85,53.557c-4.54,4.544 -11.04,7.465 -17.85,7.465c-6.49,0 -12.66,-2.596 -17.53,-7.465c-5.19,-4.544 -7.47,-11.361 -7.47,-18.177c0,-6.816 2.6,-13.308 7.47,-18.177c4.54,-4.544 11.04,-7.465 17.53,-7.465c6.81,0 13.31,2.596 17.85,7.465c4.54,5.193 7.47,11.361 7.47,18.177c0,7.141 -2.93,13.633 -7.47,18.177z"/>
  <path id="svg_11" fill="black" d="m1072.561404,180.574c-2.27,-0.974 -4.22,-2.272 -5.84,-3.571c-1.3,-1.298 -1.95,-3.246 -1.95,-5.193c0,-1.948 0.33,-3.571 1.95,-5.194c1.95,-2.272 5.52,-2.596 7.79,-0.324c0.32,0 0.32,0.324 0.32,0.324c0.98,1.299 1.95,2.597 2.28,4.545l0,1.298l10.06,-3.57l0,-0.974c-0.98,-2.597 -2.27,-5.518 -4.22,-7.466c-3.25,-3.246 -7.79,-5.193 -12.34,-5.193c-4.54,0 -9.08,1.947 -12.33,5.193c-3.25,2.597 -5.19,6.817 -5.19,11.361c0,4.544 1.94,8.764 5.19,11.36c3.25,3.246 7.47,5.518 12.01,6.817c3.25,1.298 5.84,3.246 8.11,5.842c2.28,2.272 3.57,5.194 3.57,8.115c0,3.246 -1.29,6.492 -3.57,8.764c-4.54,4.544 -11.36,4.544 -15.9,0c-2.27,-2.597 -3.57,-5.843 -3.57,-9.738l0,-1.947l-10.39,3.57l0,1.299c0.33,12.334 11.04,22.071 23.37,21.098c12.34,-0.325 22.07,-11.036 21.1,-23.371c0,-5.842 -2.27,-11.36 -6.49,-15.255c-3.9,-3.895 -8.44,-6.492 -13.96,-7.79z"/>
  <path id="svg_12" fill="black" d="m1134.231404,165.318l16.23,0l0,59.724l11.04,0l0,-59.724l15.9,0l0,-9.413l-43.17,0l0,9.413z"/>
  <path id="svg_13" fill="black" d="m1221.221404,225.042l38.95,0l0,-9.737l-27.91,0l0,-20.125l27.91,0l0,-9.738l-27.91,0l0,-20.124l27.91,0l0,-9.413l-38.95,0l0,69.137z"/>
  <path id="svg_14" fill="black" d="m396.607,249.907c-16.168,12.934 -34.099,23.222 -53.206,30.865c-15.286,6.173 -31.453,10.289 -47.915,12.346l-38.214,-65.552c2.058,-1.764 3.233,-4.409 3.233,-7.349c0,-1.176 -0.294,-2.351 -0.881,-3.527l11.17,4.115l2.058,0c2.645,0 4.703,-1.764 5.585,-4.115l3.821,-10.583c0.882,-2.939 -0.588,-6.467 -3.527,-7.642l-16.756,-5.88l-1.176,0l-20.871,-7.642c0,-0.294 0,-0.294 -0.293,-0.294l-60.261,-42.33c-1.176,-0.882 -2.646,-0.588 -3.822,0.294l-1.176,0.588c-6.173,6.467 -12.64,20.577 -14.403,24.692c-3.822,9.995 -6.174,20.283 -6.761,30.866c0,0.587 0,1.175 0.294,1.763c0.587,1.176 1.763,1.764 2.939,1.764l74.371,3.527l1.176,0.588l11.758,4.41c-3.234,1.763 -5.291,5.291 -5.291,9.112c0,2.352 0.882,4.41 2.057,6.467l-30.277,58.791c-58.791,-17.931 -105.824,-61.73 -128.1647,-118.758c-19.401,-48.796 -18.8131,-103.472 1.7638,-151.6807l5.2912,-12.34612l-10.5824,8.52471c-71.13729,57.02741 -96.4175,153.73911 -62.9065,238.39811c10.5824,27.338 27.0439,52.324 48.2087,72.607c0,0.588 0.5879,0.882 0.8819,1.176l0.2939,0c58.4971,56.733 144.9201,73.783 220.7611,44.093c52.324,-20.283 94.359,-61.143 115.818,-113.173l5.291,-12.64l-10.288,8.525zm-139.629,44.387l-3.822,-60.261l34.981,59.967c-10.288,0.882 -20.871,0.882 -31.159,0.294zm-7.643,-70.549c-2.058,0 -3.527,-1.47 -3.527,-3.528c-0.294,-2.057 1.175,-3.527 3.233,-3.821l0.294,0c2.058,0 3.821,1.764 3.821,3.821c0,2.058 -1.469,3.528 -3.527,3.528c0,0 -0.294,0 -0.294,0zm22.635,-10.289l-10.877,-3.821l2.94,-8.525l10.876,4.116l-2.939,8.23zm-93.772,-63.494l54.088,37.92c0,0.294 -0.294,0.588 -0.294,0.882l-3.822,9.995l0,0.587l-67.61,-3.233c0.882,-8.525 2.94,-17.049 6.174,-25.28c2.939,-7.349 6.761,-14.404 11.464,-20.871zm60.261,42.036l15.285,5.585l-2.939,8.23l-15.286,-5.585l2.94,-8.23zm7.643,38.802l3.821,62.906c-11.17,-1.176 -22.341,-3.233 -33.217,-6.173l29.396,-56.733zm37.038,129.928c-49.679,19.695 -105.236,18.813 -154.327,-2.646c-21.458,-9.406 -40.8596,-22.34 -57.909,-38.508l4.9973,-7.937c0.8818,-1.763 0.2939,-3.821 -1.1759,-4.703c-1.7637,-0.882 -3.8214,-0.294 -4.7032,1.176l-4.1154,6.761l-5.8791,-6.467l8.5247,-14.11c0.8818,-1.47 0.5879,-3.527 -0.8819,-4.409c-1.4698,-0.882 -3.5275,-0.588 -4.7033,0.882l-7.6428,12.052l-6.1731,-7.643l12.3461,-19.989c1.4698,-1.176 1.7638,-3.527 0.588,-4.997c-1.1759,-1.47 -3.5275,-1.764 -4.9973,-0.588c-0.5879,0.294 -0.8819,0.882 -1.1758,1.764l-11.1703,17.931c-1.7638,-2.646 -3.5275,-4.997 -5.2912,-7.937l15.8736,-24.986c0.8818,-1.764 0.2939,-3.822 -1.1758,-4.703c-1.4698,-1.176 -3.5275,-0.882 -4.4094,0.587c0,0 0,0.294 -0.2939,0.294l-13.8159,22.341l-5.2912,-9.407l17.6373,-27.925c0.8819,-1.47 0.5879,-3.528 -0.8819,-4.41c0,0 -0.2939,0 -0.2939,-0.294c-1.4698,-1.175 -3.5275,-0.881 -4.4094,0.588c0,0 0,0.294 -0.2939,0.294l-15.2857,24.693l-4.4094,-9.995l19.6951,-31.453c0.8818,-1.764 0.2939,-3.528 -1.1758,-4.703c-1.4698,-0.882 -3.5275,-0.588 -4.4094,0.881c0,0 0,0.294 -0.2939,0.294l-16.7555,26.75c-27.04392,-75.84 -6.1731,-160.7934 53.206,-215.1752c-37.6264,108.7632 20.2829,227.5212 129.0462,264.8542c21.165,7.349 43.506,11.17 66.14,11.464l0.882,38.214c0.294,1.764 1.764,3.234 3.528,3.234c2.057,0 3.527,-1.47 3.527,-3.528l-1.176,-37.92l8.819,0l0.882,33.805c0,1.764 1.47,3.233 3.233,3.233l0.294,0c1.764,0 3.234,-1.469 3.234,-3.233l0,-0.294l-0.882,-33.805l0,-0.588l9.113,-1.176l0.881,29.984c-0.294,1.764 1.176,3.233 2.94,3.527l0.294,0l0.294,0c1.764,-0.294 3.233,-1.763 3.233,-3.527l-0.882,-30.866l8.525,-1.763l0.588,23.222c0,1.764 1.47,3.234 3.234,3.234l0.294,0c1.763,-0.294 3.233,-1.764 3.233,-3.528l-0.588,-24.692c3.234,-0.588 6.173,-1.47 9.113,-2.646l0.588,14.404c-0.294,1.764 1.176,3.234 2.939,3.528l0.294,0c1.764,0 3.528,-1.764 3.528,-3.528l-0.588,-16.461l8.525,-2.94l0,8.231c0,1.764 1.469,3.233 3.233,3.233l0.294,0c1.764,0 3.233,-1.469 3.233,-3.233l0,-0.294l0,-10.876c13.228,-5.586 25.575,-12.64 37.333,-20.871c-22.047,44.681 -60.261,79.368 -106.706,97.299z"/>
  <path id="svg_15" fill="black" d="m81.4864,318.986c-1.7637,0 -3.2335,1.47 -3.2335,3.234c0,1.764 1.4698,3.234 3.2335,3.234c1.7638,0 3.2335,-1.47 3.2335,-3.234c0,-1.764 -1.4697,-3.234 -3.2335,-3.234z"/>
  <path id="svg_16" fill="black" d="m361.038,291.648c1.47,0.882 3.528,0.588 4.703,-0.881c0.882,-1.47 0.588,-3.528 -1.175,-4.704c-1.47,-0.882 -3.528,-0.294 -4.41,1.176c-0.882,1.176 -0.882,3.234 0.882,4.409z"/>
  <path id="svg_17" fill="black" d="m103.827,132.913l-19.1071,8.231l20.8711,-1.47c2.057,-0.294 4.409,0.882 4.997,2.939c2.352,6.174 5.291,12.347 8.231,19.402c-0.588,-7.055 -0.882,-12.935 -1.47,-18.814c-0.588,-5.879 0.588,-6.761 4.703,-8.23l17.638,-7.349l-21.165,1.469c-2.058,0.588 -4.409,-0.587 -4.997,-2.645c-2.352,-6.467 -5.292,-12.64 -8.231,-19.401c0.294,7.055 0.882,14.11 1.47,20.871c0.588,2.057 -0.882,4.409 -2.94,4.997z"/>
  <path id="svg_18" fill="black" d="m209.063,75.5913l23.223,-12.934c2.351,-1.7638 5.585,-1.4698 7.348,0.8818c6.173,5.8791 12.64,11.4643 19.695,17.6374c-4.115,-7.3489 -7.642,-14.4039 -11.758,-20.8709c-4.115,-6.467 -2.645,-7.9368 1.176,-11.7582c3.821,-3.8214 10.582,-11.1703 16.462,-17.9313l-23.517,13.228c-2.352,1.4698 -5.291,1.1758 -7.055,-0.8819c-6.173,-5.8791 -12.934,-11.4642 -19.989,-17.9313c4.41,8.2308 8.525,15.8736 12.934,23.2225c1.764,2.3517 1.47,5.5852 -0.882,7.3489l-17.637,19.989z"/>
  <path id="svg_19" fill="black" d="m344.87,79.1191c0.588,4.9972 1.47,10.2884 2.352,15.8736c0.882,-5.5852 2.058,-10.8764 2.94,-15.8736c0,-1.7638 1.469,-3.2336 3.233,-3.2336l15.874,-2.3516l-14.11,-2.6456c-2.646,0.2939 -4.997,-2.0577 -5.291,-4.7033l0,-0.2939c-0.294,-4.7033 -1.176,-9.1127 -1.764,-14.6978c-1.176,6.173 -2.352,11.1703 -3.234,16.1675c0,1.4698 -1.469,2.9396 -2.939,2.9396l-16.168,2.3516l15.874,3.2335c1.764,0 3.233,1.4698 3.233,3.2336z"/>
  <path id="svg_20" fill="black" d="m341.343,212.28c4.115,-3.527 7.643,-6.467 10.876,-9.701c1.47,-2.351 4.704,-2.645 7.055,-1.175l0.294,0.294l12.934,7.349c-4.115,-4.704 -7.349,-8.525 -11.17,-12.347c-1.176,-1.175 -1.176,-2.939 -0.294,-4.409l7.937,-14.404l-12.052,10.877c-1.176,1.469 -3.234,1.763 -4.704,0.587c-4.703,-2.939 -9.406,-5.585 -14.11,-7.936c3.822,4.115 7.055,8.23 10.877,12.052c1.176,1.176 1.47,3.233 0.294,4.703l-7.937,14.11z"/>
  <path id="svg_21" fill="black" d="m187.016,237.267c0,-1.764 -1.469,-3.233 -3.233,-3.233c-1.764,0 -3.234,1.469 -3.234,3.233c0,1.764 1.47,3.234 3.234,3.234c1.764,0 3.233,-1.47 3.233,-3.234z"/>
  <path id="svg_22" fill="black" d="m234.343,134.088c-0.882,2.94 1.176,6.173 4.116,7.055c2.939,0.588 5.879,-1.176 6.761,-4.115c0.588,-2.94 -1.176,-5.879 -4.116,-6.761c-2.939,-0.588 -5.879,0.882 -6.761,3.821z"/>
  <path id="svg_23" fill="black" d="m329.879,244.91c2.939,0.588 5.879,-1.176 6.761,-4.116c0.588,-2.939 -1.176,-5.879 -4.116,-6.761c-2.939,-0.588 -5.879,1.176 -6.467,3.822c-0.882,2.939 0.882,6.173 3.822,7.055c0,0 -0.294,0 0,0z"/>
  <path id="svg_24" fill="black" d="m157.033,7.98145c1.47,-1.76374 1.47,-4.11538 0,-5.87912c-1.764,-1.46978 -4.115,-1.46978 -5.879,0c-1.47,1.76374 -1.47,4.11538 0,5.87912c1.764,1.46977 4.115,1.46977 5.879,0z"/>
  <path id="svg_25" fill="black" d="m304.011,122.919c1.175,0 2.351,-1.176 2.351,-2.352c0.294,-1.176 -0.882,-2.351 -2.057,-2.645l-0.294,0c-1.47,0 -2.646,1.175 -2.646,2.645c0.294,1.47 1.176,2.352 2.646,2.352z"/>
  <path id="svg_26" fill="black" d="m187.604,169.951l32.629,20.871c1.764,0.588 3.822,-0.294 4.41,-2.352c0.294,-1.175 0,-2.351 -0.588,-3.233l-32.629,-20.871c-1.47,-1.176 -3.528,-0.882 -4.41,0.588c0,0 0,0.294 -0.294,0.294c-1.175,1.47 -0.881,3.527 0.882,4.703c0,0 -0.294,0 0,0z"/>
  <path id="svg_27" fill="black" d="m181.431,164.953c1.764,0.294 3.528,-1.176 3.822,-2.94c0,-1.763 -1.47,-3.527 -3.234,-3.821c-2.058,0.294 -3.233,2.352 -2.939,4.115c0.293,1.176 1.175,2.352 2.351,2.646z"/>
 </g>
</svg>