<svg width="613" height="394" viewBox="0 0 613 394" fill="none" xmlns="http://www.w3.org/2000/svg">
<path d="M31.0769 210.992H18.5369L15.4209 223H5.92086L21.3489 169.42H28.8729L44.3769 223H34.3449L31.0769 210.992ZM20.5889 203.088H29.4049L26.3649 190.7L25.1489 182.34H24.8449L23.5529 190.776L20.5889 203.088Z" fill="black"/>
<path d="M73.8631 209.32C73.8631 207.699 73.3817 206.331 72.4191 205.216C71.4564 204.051 70.2404 202.961 68.7711 201.948C67.3524 200.935 65.7817 199.896 64.0591 198.832C62.3871 197.768 60.8164 196.527 59.3471 195.108C57.9284 193.689 56.7377 192.017 55.7751 190.092C54.8124 188.167 54.3311 185.811 54.3311 183.024C54.3311 180.44 54.7111 178.261 55.4711 176.488C56.2817 174.664 57.3711 173.195 58.7391 172.08C60.1071 170.915 61.7284 170.079 63.6031 169.572C65.4777 169.015 67.4791 168.736 69.6071 168.736C72.1911 168.736 74.5977 168.989 76.8271 169.496C79.0564 170.003 80.9057 170.687 82.3751 171.548L79.4111 179.984C78.5497 179.376 77.2577 178.819 75.5351 178.312C73.8631 177.805 72.0391 177.552 70.0631 177.552C68.0871 177.552 66.5671 177.957 65.5031 178.768C64.4391 179.579 63.9071 180.769 63.9071 182.34C63.9071 183.759 64.3884 185.025 65.3511 186.14C66.3137 187.204 67.5044 188.243 68.9231 189.256C70.3924 190.269 71.9631 191.333 73.6351 192.448C75.3577 193.512 76.9284 194.779 78.3471 196.248C79.8164 197.667 81.0324 199.364 81.9951 201.34C82.9577 203.265 83.4391 205.571 83.4391 208.256C83.4391 210.941 83.0337 213.272 82.2231 215.248C81.4631 217.224 80.3484 218.871 78.8791 220.188C77.4604 221.455 75.7377 222.417 73.7111 223.076C71.6844 223.735 69.4297 224.064 66.9471 224.064C63.8057 224.064 61.0444 223.76 58.6631 223.152C56.3324 222.544 54.5337 221.86 53.2671 221.1L56.3831 212.512C57.3964 213.12 58.7897 213.728 60.5631 214.336C62.3364 214.944 64.2364 215.248 66.2631 215.248C71.3297 215.248 73.8631 213.272 73.8631 209.32Z" fill="black"/>
<path d="M128.162 178.616H115.622V223H106.046V178.616H93.4295V169.8H128.162V178.616Z" fill="black"/>
<path d="M139.763 170.332C141.841 169.876 144.07 169.547 146.451 169.344C148.833 169.141 150.885 169.04 152.607 169.04C154.786 169.04 156.914 169.268 158.991 169.724C161.069 170.129 162.893 170.915 164.463 172.08C166.085 173.195 167.377 174.74 168.339 176.716C169.353 178.641 169.859 181.099 169.859 184.088C169.859 188.395 169.049 191.916 167.427 194.652C165.857 197.337 163.678 199.187 160.891 200.2L163.931 202.632L173.735 223H162.715L153.443 202.024L149.339 201.036V223H139.763V170.332ZM149.339 194.5H152.607C154.989 194.5 156.787 193.791 158.003 192.372C159.219 190.903 159.827 188.648 159.827 185.608C159.827 183.328 159.321 181.479 158.307 180.06C157.294 178.591 155.698 177.856 153.519 177.856C152.709 177.856 151.923 177.881 151.163 177.932C150.403 177.983 149.795 178.084 149.339 178.236V194.5Z" fill="black"/>
<path d="M182.366 196.4C182.366 187.381 183.911 180.516 187.002 175.804C190.093 171.092 194.805 168.736 201.138 168.736C204.431 168.736 207.269 169.395 209.65 170.712C212.031 171.979 213.982 173.828 215.502 176.26C217.022 178.641 218.137 181.555 218.846 185C219.606 188.395 219.986 192.195 219.986 196.4C219.986 205.419 218.39 212.284 215.198 216.996C212.057 221.708 207.37 224.064 201.138 224.064C197.794 224.064 194.931 223.431 192.55 222.164C190.219 220.847 188.294 218.997 186.774 216.616C185.254 214.184 184.139 211.271 183.43 207.876C182.721 204.431 182.366 200.605 182.366 196.4ZM192.398 196.4C192.398 199.085 192.55 201.593 192.854 203.924C193.158 206.204 193.665 208.18 194.374 209.852C195.083 211.524 195.97 212.841 197.034 213.804C198.149 214.767 199.517 215.248 201.138 215.248C204.077 215.248 206.281 213.753 207.75 210.764C209.219 207.775 209.954 202.987 209.954 196.4C209.954 193.816 209.802 191.384 209.498 189.104C209.194 186.773 208.687 184.772 207.978 183.1C207.319 181.377 206.433 180.035 205.318 179.072C204.203 178.059 202.81 177.552 201.138 177.552C195.311 177.552 192.398 183.835 192.398 196.4Z" fill="black"/>
<path d="M244.894 196.856L241.398 187.508H241.018L242.234 196.704V223H233.19V169.42H240.562L255.838 196.172L259.106 205.368H259.562L258.346 196.324V169.8H267.39V223.38H260.018L244.894 196.856Z" fill="black"/>
<path d="M280.617 196.4C280.617 187.381 282.162 180.516 285.253 175.804C288.344 171.092 293.056 168.736 299.389 168.736C302.682 168.736 305.52 169.395 307.901 170.712C310.282 171.979 312.233 173.828 313.753 176.26C315.273 178.641 316.388 181.555 317.097 185C317.857 188.395 318.237 192.195 318.237 196.4C318.237 205.419 316.641 212.284 313.449 216.996C310.308 221.708 305.621 224.064 299.389 224.064C296.045 224.064 293.182 223.431 290.801 222.164C288.47 220.847 286.545 218.997 285.025 216.616C283.505 214.184 282.39 211.271 281.681 207.876C280.972 204.431 280.617 200.605 280.617 196.4ZM290.649 196.4C290.649 199.085 290.801 201.593 291.105 203.924C291.409 206.204 291.916 208.18 292.625 209.852C293.334 211.524 294.221 212.841 295.285 213.804C296.4 214.767 297.768 215.248 299.389 215.248C302.328 215.248 304.532 213.753 306.001 210.764C307.47 207.775 308.205 202.987 308.205 196.4C308.205 193.816 308.053 191.384 307.749 189.104C307.445 186.773 306.938 184.772 306.229 183.1C305.57 181.377 304.684 180.035 303.569 179.072C302.454 178.059 301.061 177.552 299.389 177.552C293.562 177.552 290.649 183.835 290.649 196.4Z" fill="black"/>
<path d="M365.489 195.564L366.553 185.38H366.173L363.361 194.5L354.697 213.196H351.505L342.309 194.424L339.497 185.228H339.041L340.485 195.488V223H331.441V169.8H340.637L351.733 192.828L353.557 199.44H353.861L355.609 192.676L366.021 169.8H375.065V223H365.489V195.564Z" fill="black"/>
<path d="M390.345 169.8H399.921V223H390.345V169.8Z" fill="black"/>
<path d="M445.391 220.872C444.074 221.987 442.3 222.797 440.071 223.304C437.892 223.811 435.714 224.064 433.535 224.064C430.799 224.064 428.24 223.608 425.859 222.696C423.528 221.733 421.476 220.163 419.703 217.984C417.93 215.805 416.536 212.943 415.523 209.396C414.51 205.849 414.003 201.492 414.003 196.324C414.003 190.953 414.56 186.495 415.675 182.948C416.84 179.401 418.335 176.589 420.159 174.512C422.034 172.384 424.162 170.889 426.543 170.028C428.924 169.167 431.331 168.736 433.763 168.736C436.246 168.736 438.399 168.939 440.223 169.344C442.098 169.749 443.618 170.205 444.783 170.712L442.883 179.148C441.92 178.641 440.78 178.261 439.463 178.008C438.196 177.704 436.676 177.552 434.903 177.552C431.407 177.552 428.722 179.072 426.847 182.112C424.972 185.152 424.035 189.915 424.035 196.4C424.035 199.187 424.238 201.745 424.643 204.076C425.099 206.356 425.783 208.332 426.695 210.004C427.658 211.676 428.848 212.968 430.267 213.88C431.736 214.792 433.484 215.248 435.511 215.248C437.284 215.248 438.804 215.02 440.071 214.564C441.338 214.057 442.478 213.475 443.491 212.816L445.391 220.872Z" fill="black"/>
<path d="M476.167 210.992H463.627L460.511 223H451.011L466.439 169.42H473.963L489.467 223H479.435L476.167 210.992ZM465.679 203.088H474.495L471.455 190.7L470.239 182.34H469.935L468.643 190.776L465.679 203.088Z" fill="black"/>
<path d="M528.605 223H500.333V169.8H509.909V214.184H528.605V223Z" fill="black"/>
<path d="M568.416 223H540.144V169.8H549.72V214.184H568.416V223Z" fill="black"/>
<path d="M582.206 203.24L567.918 169.8H579.318L586.69 189.94L587.45 195.716H587.83L588.666 189.788L595.886 169.8H606.146L591.782 203.164V223H582.206V203.24Z" fill="black"/>
<path fill-rule="evenodd" clip-rule="evenodd" d="M34.3449 223L31.0769 210.992H18.5369L15.4209 223H5.92086L21.3489 169.42H28.8729L44.3769 223H34.3449ZM19.3105 211.992L16.1945 224H4.59229L20.5962 168.42H29.6245L45.7072 224H33.5806L30.3126 211.992H19.3105ZM25.3822 190.892L24.9753 188.094L24.535 190.969L21.8582 202.088H28.1298L25.3822 190.892ZM29.4049 203.088H20.5889L23.5529 190.776L24.8449 182.34H25.1489L26.3649 190.7L29.4049 203.088ZM71.6551 205.861L71.6481 205.853C70.7537 204.77 69.61 203.741 68.2033 202.771L68.1965 202.767L68.1898 202.762C66.7919 201.763 65.2402 200.737 63.5336 199.683L63.5222 199.676C61.7918 198.575 60.1686 197.291 58.6525 195.827L58.6462 195.821L58.64 195.815C57.1399 194.315 55.8879 192.554 54.8806 190.539C53.8312 188.44 53.3311 185.922 53.3311 183.024C53.3311 180.348 53.7238 178.026 54.5519 176.094L54.5572 176.082C55.4215 174.137 56.5981 172.537 58.0989 171.312C59.5835 170.049 61.3331 169.151 63.33 168.61C65.3015 168.025 67.3955 167.736 69.6071 167.736C72.2562 167.736 74.7379 167.996 77.0487 168.521C79.346 169.043 81.2987 169.758 82.8808 170.685L83.5917 171.102L79.9158 181.564L78.8344 180.801C78.1041 180.285 76.9334 179.766 75.2529 179.271L75.2451 179.269C73.6785 178.794 71.9535 178.552 70.0631 178.552C68.2059 178.552 66.9333 178.935 66.1091 179.563C65.3384 180.151 64.9071 181.02 64.9071 182.34C64.9071 183.505 65.2932 184.54 66.1006 185.478C67.0034 186.474 68.1325 187.462 69.4977 188.438C70.9561 189.443 72.5153 190.5 74.1756 191.606C75.959 192.71 77.5855 194.022 79.0543 195.541C80.607 197.043 81.885 198.832 82.8918 200.897C83.9374 202.991 84.4391 205.455 84.4391 208.256C84.4391 211.035 84.0206 213.497 83.1524 215.618C82.3398 217.726 81.1397 219.504 79.5466 220.933L79.5451 220.934C78.0112 222.304 76.1628 223.331 74.0202 224.027C71.8788 224.723 69.5178 225.064 66.9471 225.064C63.7442 225.064 60.8966 224.754 58.4157 224.121L58.4106 224.12C56.038 223.501 54.1359 222.787 52.7526 221.957L52.046 221.534L55.857 211.03L56.8976 211.655C57.8264 212.212 59.1466 212.793 60.8874 213.39C62.5482 213.959 64.3378 214.248 66.2631 214.248C68.6939 214.248 70.3329 213.769 71.348 212.977C72.3159 212.223 72.8631 211.066 72.8631 209.32C72.8631 207.913 72.4519 206.784 71.6623 205.87L71.6551 205.861ZM81.9951 201.34C81.0324 199.364 79.8164 197.667 78.3471 196.248C76.9284 194.779 75.3577 193.512 73.6351 192.448C71.9631 191.333 70.3924 190.269 68.9231 189.256C67.5044 188.243 66.3137 187.204 65.3511 186.14C64.3884 185.025 63.9071 183.759 63.9071 182.34C63.9071 180.769 64.4391 179.579 65.5031 178.768C66.5671 177.957 68.0871 177.552 70.0631 177.552C72.0391 177.552 73.8631 177.805 75.5351 178.312C76.7492 178.669 77.7494 179.051 78.5357 179.459C78.865 179.629 79.1568 179.805 79.4111 179.984L82.3751 171.548C80.9057 170.687 79.0564 170.003 76.8271 169.496C74.5977 168.989 72.1911 168.736 69.6071 168.736C67.4791 168.736 65.4777 169.015 63.6031 169.572C61.7284 170.079 60.1071 170.915 58.7391 172.08C57.3711 173.195 56.2817 174.664 55.4711 176.488C54.7111 178.261 54.3311 180.44 54.3311 183.024C54.3311 185.811 54.8124 188.167 55.7751 190.092C56.7377 192.017 57.9284 193.689 59.3471 195.108C60.8164 196.527 62.3871 197.768 64.0591 198.832C65.7817 199.896 67.3524 200.935 68.7711 201.948C70.2404 202.961 71.4564 204.051 72.4191 205.216C73.3817 206.331 73.8631 207.699 73.8631 209.32C73.8631 213.272 71.3297 215.248 66.2631 215.248C64.2364 215.248 62.3364 214.944 60.5631 214.336C59.2608 213.89 58.1635 213.443 57.2711 212.997C56.9483 212.835 56.6523 212.674 56.3831 212.512L53.2671 221.1C54.5337 221.86 56.3324 222.544 58.6631 223.152C61.0444 223.76 63.8057 224.064 66.9471 224.064C69.4297 224.064 71.6844 223.735 73.7111 223.076C75.7377 222.417 77.4604 221.455 78.8791 220.188C80.3484 218.871 81.4631 217.224 82.2231 215.248C83.0337 213.272 83.4391 210.941 83.4391 208.256C83.4391 205.571 82.9577 203.265 81.9951 201.34ZM129.162 179.616H116.622V224H105.046V179.616H92.4295V168.8H129.162V179.616ZM106.046 178.616V223H115.622V178.616H128.162V169.8H93.4295V178.616H106.046ZM138.763 169.528L139.549 169.355C141.674 168.889 143.947 168.554 146.367 168.348C148.766 168.143 150.848 168.04 152.607 168.04C154.852 168.04 157.049 168.275 159.194 168.745C161.395 169.176 163.351 170.013 165.045 171.266C166.814 172.486 168.206 174.164 169.232 176.264C170.338 178.374 170.859 181.001 170.859 184.088C170.859 188.511 170.028 192.224 168.289 195.159C166.912 197.513 165.082 199.286 162.809 200.453L164.734 201.993L175.327 224H162.064L152.729 202.88L150.339 202.305V224H138.763V169.528ZM149.339 201.036L153.443 202.024L162.715 223H173.735L163.931 202.632L160.891 200.2C161.253 200.068 161.605 199.923 161.946 199.763C164.234 198.692 166.061 196.989 167.427 194.652C169.049 191.916 169.859 188.395 169.859 184.088C169.859 181.099 169.353 178.641 168.339 176.716C167.377 174.74 166.085 173.195 164.463 172.08C162.893 170.915 161.069 170.129 158.991 169.724C156.914 169.268 154.786 169.04 152.607 169.04C150.885 169.04 148.833 169.141 146.451 169.344C144.07 169.547 141.841 169.876 139.763 170.332V223H149.339V201.036ZM157.489 180.635L157.484 180.628C156.7 179.49 155.452 178.856 153.519 178.856C152.73 178.856 151.966 178.881 151.23 178.93C150.888 178.953 150.592 178.986 150.339 179.026V193.5H152.607C154.779 193.5 156.262 192.863 157.238 191.728C158.237 190.517 158.827 188.54 158.827 185.608C158.827 183.473 158.353 181.845 157.494 180.641L157.489 180.635ZM158.003 192.372C156.787 193.791 154.989 194.5 152.607 194.5H149.339V178.236C149.795 178.084 150.403 177.983 151.163 177.932C151.923 177.881 152.709 177.856 153.519 177.856C155.698 177.856 157.294 178.591 158.307 180.06C159.321 181.479 159.827 183.328 159.827 185.608C159.827 188.648 159.219 190.903 158.003 192.372ZM192.069 223.041L192.058 223.035C189.577 221.632 187.534 219.665 185.931 217.154L185.926 217.146C184.332 214.596 183.18 211.567 182.451 208.081L182.451 208.078C181.725 204.555 181.366 200.66 181.366 196.4C181.366 187.293 182.922 180.201 186.166 175.256C189.467 170.223 194.517 167.736 201.138 167.736C204.562 167.736 207.571 168.421 210.127 169.833C212.669 171.187 214.743 173.16 216.348 175.726C217.945 178.229 219.096 181.259 219.824 184.79C220.602 188.267 220.986 192.139 220.986 196.4C220.986 205.509 219.379 212.605 216.028 217.554C212.681 222.573 207.664 225.064 201.138 225.064C197.669 225.064 194.637 224.407 192.081 223.047L192.069 223.041ZM215.198 216.996C218.39 212.284 219.986 205.419 219.986 196.4C219.986 192.195 219.606 188.395 218.846 185C218.137 181.555 217.022 178.641 215.502 176.26C213.982 173.828 212.031 171.979 209.65 170.712C207.269 169.395 204.431 168.736 201.138 168.736C194.805 168.736 190.093 171.092 187.002 175.804C183.911 180.516 182.366 187.381 182.366 196.4C182.366 200.605 182.721 204.431 183.43 207.876C184.139 211.271 185.254 214.184 186.774 216.616C188.294 218.997 190.219 220.847 192.55 222.164C194.931 223.431 197.794 224.064 201.138 224.064C207.37 224.064 212.057 221.708 215.198 216.996ZM208.507 189.236L208.507 189.233C208.211 186.968 207.723 185.059 207.058 183.491L207.051 183.474L207.044 183.457C206.43 181.851 205.626 180.66 204.665 179.829L204.655 179.82L204.645 179.812C203.736 178.985 202.591 178.552 201.138 178.552C199.873 178.552 198.806 178.889 197.898 179.542C196.98 180.202 196.167 181.226 195.49 182.685C194.126 185.627 193.398 190.163 193.398 196.4C193.398 199.047 193.548 201.51 193.845 203.792C194.141 206.005 194.628 207.891 195.295 209.461C195.96 211.029 196.768 212.212 197.696 213.055C198.609 213.839 199.735 214.248 201.138 214.248C202.429 214.248 203.515 213.923 204.434 213.299C205.36 212.671 206.176 211.7 206.853 210.323C208.216 207.549 208.954 202.955 208.954 196.4C208.954 193.855 208.804 191.467 208.507 189.236ZM197.034 213.804C195.97 212.841 195.083 211.524 194.374 209.852C193.665 208.18 193.158 206.204 192.854 203.924C192.55 201.593 192.398 199.085 192.398 196.4C192.398 183.835 195.311 177.552 201.138 177.552C202.81 177.552 204.203 178.059 205.318 179.072C206.433 180.035 207.319 181.377 207.978 183.1C208.687 184.772 209.194 186.773 209.498 189.104C209.802 191.384 209.954 193.816 209.954 196.4C209.954 202.987 209.219 207.775 207.75 210.764C206.281 213.753 204.077 215.248 201.138 215.248C199.517 215.248 198.149 214.767 197.034 213.804ZM243.985 197.282L242.955 194.525L243.234 196.638V224H232.19V168.42H241.142L256.75 195.753L257.57 198.061L257.346 196.391V168.8H268.39V224.38H259.437L243.985 197.282ZM259.562 205.368H259.106L255.838 196.172L240.562 169.42H233.19V223H242.234V196.704L241.018 187.508H241.398L244.894 196.856L260.018 223.38H267.39V169.8H258.346V196.324L259.562 205.368ZM290.32 223.041L290.309 223.035C287.828 221.632 285.785 219.665 284.182 217.154L284.177 217.146C282.583 214.596 281.431 211.567 280.702 208.081L280.701 208.078C279.976 204.555 279.617 200.66 279.617 196.4C279.617 187.293 281.173 180.201 284.417 175.256C287.718 170.223 292.768 167.736 299.389 167.736C302.813 167.736 305.822 168.421 308.378 169.833C310.919 171.187 312.993 173.159 314.598 175.725C316.195 178.228 317.347 181.258 318.075 184.789C318.852 188.267 319.237 192.139 319.237 196.4C319.237 205.51 317.629 212.607 314.278 217.555C310.93 222.574 305.914 225.064 299.389 225.064C295.92 225.064 292.888 224.407 290.331 223.047L290.32 223.041ZM313.449 216.996C316.641 212.284 318.237 205.419 318.237 196.4C318.237 192.195 317.857 188.395 317.097 185C316.388 181.555 315.273 178.641 313.753 176.26C312.233 173.828 310.282 171.979 307.901 170.712C305.52 169.395 302.682 168.736 299.389 168.736C293.056 168.736 288.344 171.092 285.253 175.804C282.162 180.516 280.617 187.381 280.617 196.4C280.617 200.605 280.972 204.431 281.681 207.876C282.39 211.271 283.505 214.184 285.025 216.616C286.545 218.997 288.47 220.847 290.801 222.164C293.182 223.431 296.045 224.064 299.389 224.064C305.621 224.064 310.308 221.708 313.449 216.996ZM306.229 183.1C305.57 181.377 304.684 180.035 303.569 179.072C302.454 178.059 301.061 177.552 299.389 177.552C293.562 177.552 290.649 183.835 290.649 196.4C290.649 199.085 290.801 201.593 291.105 203.924C291.409 206.204 291.916 208.18 292.625 209.852C293.334 211.524 294.221 212.841 295.285 213.804C296.4 214.767 297.768 215.248 299.389 215.248C302.328 215.248 304.532 213.753 306.001 210.764C307.47 207.775 308.205 202.987 308.205 196.4C308.205 193.816 308.053 191.384 307.749 189.104C307.445 186.773 306.938 184.772 306.229 183.1ZM306.758 189.236L306.757 189.233C306.462 186.968 305.974 185.059 305.308 183.491L305.301 183.474L305.295 183.457C304.681 181.851 303.877 180.66 302.915 179.829L302.906 179.82L302.896 179.812C301.986 178.985 300.842 178.552 299.389 178.552C298.123 178.552 297.057 178.889 296.149 179.542C295.231 180.202 294.417 181.226 293.741 182.685C292.377 185.627 291.649 190.163 291.649 196.4C291.649 199.047 291.799 201.51 292.096 203.792C292.391 206.005 292.879 207.891 293.546 209.461C294.211 211.029 295.019 212.212 295.947 213.054C296.86 213.839 297.986 214.248 299.389 214.248C300.68 214.248 301.765 213.923 302.685 213.299C303.611 212.671 304.426 211.7 305.103 210.323C306.467 207.549 307.205 202.955 307.205 196.4C307.205 193.855 307.055 191.467 306.758 189.236ZM364.489 195.512L364.69 193.581L364.296 194.859L355.336 214.196H350.881L341.405 194.853L341.485 195.418V224H330.441V168.8H341.265L352.673 192.475L353.682 196.134L354.662 192.341L365.377 168.8H376.065V224H364.489V195.512ZM355.609 192.676L366.021 169.8H375.065V223H365.489V195.564L366.553 185.38H366.173L363.361 194.5L354.697 213.196H351.505L342.309 194.424L339.497 185.228H339.041L340.485 195.488V223H331.441V169.8H340.637L351.733 192.828L353.557 199.44H353.861L355.609 192.676ZM389.345 168.8H400.921V224H389.345V168.8ZM446.505 221.239L446.037 221.635C444.564 222.882 442.63 223.748 440.294 224.279C438.044 224.802 435.791 225.064 433.535 225.064C430.686 225.064 428.005 224.589 425.501 223.63L425.489 223.625L425.477 223.62C422.976 222.587 420.793 220.908 418.927 218.615C417.046 216.304 415.601 213.309 414.561 209.671C413.515 206.007 413.003 201.551 413.003 196.324C413.003 190.893 413.565 186.324 414.721 182.648L414.725 182.636C415.918 179.003 417.469 176.06 419.407 173.852L419.409 173.851C421.381 171.612 423.645 170.013 426.203 169.088C428.689 168.188 431.21 167.736 433.763 167.736C436.295 167.736 438.523 167.942 440.436 168.367C442.345 168.78 443.934 169.253 445.182 169.795L445.94 170.125L443.572 180.641L442.417 180.033C441.559 179.581 440.516 179.229 439.274 178.99L439.252 178.986L439.229 178.98C438.061 178.7 436.624 178.552 434.903 178.552C431.763 178.552 429.395 179.884 427.698 182.637C425.972 185.436 425.035 189.97 425.035 196.4C425.035 199.134 425.233 201.631 425.626 203.892C426.065 206.084 426.717 207.953 427.567 209.515C428.459 211.061 429.54 212.223 430.801 213.035C432.085 213.83 433.641 214.248 435.511 214.248C437.195 214.248 438.589 214.032 439.716 213.629C440.923 213.145 441.998 212.594 442.946 211.978L444.138 211.203L446.505 221.239ZM440.071 214.564C438.804 215.02 437.284 215.248 435.511 215.248C433.484 215.248 431.736 214.792 430.267 213.88C428.848 212.968 427.658 211.676 426.695 210.004C425.783 208.332 425.099 206.356 424.643 204.076C424.238 201.745 424.035 199.187 424.035 196.4C424.035 189.915 424.972 185.152 426.847 182.112C428.722 179.072 431.407 177.552 434.903 177.552C436.676 177.552 438.196 177.704 439.463 178.008C440.379 178.184 441.209 178.422 441.954 178.72C442.28 178.851 442.59 178.994 442.883 179.148L444.783 170.712C443.618 170.205 442.098 169.749 440.223 169.344C438.399 168.939 436.246 168.736 433.763 168.736C431.331 168.736 428.924 169.167 426.543 170.028C424.162 170.889 422.034 172.384 420.159 174.512C418.335 176.589 416.84 179.401 415.675 182.948C414.56 186.495 414.003 190.953 414.003 196.324C414.003 201.492 414.51 205.849 415.523 209.396C416.536 212.943 417.93 215.805 419.703 217.984C421.476 220.163 423.528 221.733 425.859 222.696C428.24 223.608 430.799 224.064 433.535 224.064C435.714 224.064 437.892 223.811 440.071 223.304C442.3 222.797 444.074 221.987 445.391 220.872L443.491 212.816C443.202 213.004 442.902 213.186 442.592 213.361C441.816 213.801 440.976 214.202 440.071 214.564ZM479.435 223L476.167 210.992H463.627L460.511 223H451.011L466.439 169.42H473.963L489.467 223H479.435ZM464.4 211.992L461.284 224H449.682L465.686 168.42H474.714L490.797 224H478.671L475.402 211.992H464.4ZM470.472 190.892L470.065 188.094L469.625 190.969L466.948 202.088H473.22L470.472 190.892ZM474.495 203.088H465.679L468.643 190.776L469.935 182.34H470.239L471.455 190.7L474.495 203.088ZM529.605 224H499.333V168.8H510.909V213.184H529.605V224ZM509.909 214.184V169.8H500.333V223H528.605V214.184H509.909ZM569.416 224H539.144V168.8H550.72V213.184H569.416V224ZM549.72 214.184V169.8H540.144V223H568.416V214.184H549.72ZM591.782 203.164V223H582.206V203.24L567.918 169.8H579.318L586.69 189.94L587.45 195.716H587.83L588.666 189.788L595.886 169.8H606.146L591.782 203.164ZM587.668 189.705L587.667 189.7L580.017 168.8H566.404L581.206 203.445V224H592.782V203.37L607.666 168.8H595.184L587.691 189.546L587.668 189.705ZM390.345 169.8V223H399.921V169.8H390.345Z" fill="black"/>
<path d="M242.5 329.5L240.6 335.5L240.8 335.6L244.6 330.5L260.7 314.7L267.8 318.2L238.7 344.7L233.9 342.3L237.4 303.1L245.2 307L242.5 329.5Z" fill="black"/>
<path d="M281.6 349.9L270.1 347.4L265.6 354.7L258.3 353.1L279.5 320.2L284.9 321.4L290.6 360.1L282.9 358.4L281.6 349.9ZM273.2 342.2L281.2 343.9L280.1 335.4L280.2 329.6L279.9 329.5L277.6 334.9L273.2 342.2Z" fill="black"/>
<path d="M329.4 359.6L305.2 360.6L303.7 324.2L311.2 323.9L312.4 353.9L329.1 353.2L329.4 359.6Z" fill="black"/>
<path d="M335.2 321.3L342.5 319.6L350.9 355L343.6 356.7L335.2 321.3Z" fill="black"/>
<path d="M352.1 317.4C352.7 317 353.5 316.5 354.3 316C355.1 315.5 356 315 356.9 314.6C357.8 314.2 358.7 313.7 359.5 313.2C360.4 312.8 361.1 312.4 361.8 312C364.9 310.5 367.7 309.6 370.2 309.4C372.8 309.2 375.1 309.4 377.1 310.2C379.2 311 381 312.3 382.6 314C384.2 315.7 385.6 317.8 386.8 320.2C387.9 322.4 388.6 324.7 389 327C389.4 329.3 389.3 331.6 388.7 333.9C388.1 336.2 386.9 338.3 385.1 340.4C383.3 342.5 380.8 344.3 377.5 345.9C377 346.2 376.3 346.5 375.4 346.9C374.5 347.3 373.6 347.7 372.6 348.1C371.6 348.5 370.7 348.9 369.9 349.3C369 349.7 368.4 349.9 367.9 350.1L352.1 317.4ZM365.3 317.5C364.6 317.9 363.9 318.2 363.1 318.6C362.4 319 361.9 319.3 361.5 319.5L372.2 341.4C372.3 341.4 372.6 341.3 372.9 341.1C373.2 341 373.6 340.8 373.9 340.7C374.3 340.5 374.6 340.4 375 340.2C375.3 340.1 375.6 339.9 375.7 339.9C377.6 339 379 337.9 380 336.6C381 335.3 381.5 334 381.8 332.6C382 331.2 381.9 329.7 381.6 328.2C381.2 326.7 380.7 325.2 380 323.7C379.4 322.4 378.6 321.2 377.7 320C376.8 318.8 375.8 317.9 374.6 317.2C373.4 316.5 372 316.1 370.5 316.1C368.8 316.1 367.1 316.6 365.3 317.5Z" fill="black"/>
<path d="M242.5 71.7L246.3 76.8L246.5 76.7L244.5 70.6L241 48L248 44.3L252.7 83.8L248 86.3L217.8 60.4L225.6 56.3L242.5 71.7Z" fill="black"/>
<path d="M284.5 64.2L272.9 66.9L271.9 75.5L264.5 77.2L269.8 38L275.2 36.7L297.1 69.7L289.3 71.5L284.5 64.2ZM273.5 60.8L281.6 58.9L277 51.6L274.6 46.2L274.3 46.3L274.5 52.2L273.5 60.8Z" fill="black"/>
<path d="M328.3 70.8L303.8 69.8L305.3 33L312.9 33.3L311.6 63.7L328.5 64.4L328.3 70.8Z" fill="black"/>
<path d="M345.5 37.4L352.9 39.3L343.9 75L336.5 73.1L345.5 37.4Z" fill="black"/>
<path d="M371.4 44.9C372.1 45.2 373 45.5 373.9 45.9C374.8 46.3 375.7 46.7 376.6 47.2C377.5 47.6 378.4 48.1 379.3 48.5C380.2 48.9 381 49.3 381.6 49.7C384.6 51.3 387 53 388.8 55C390.5 56.9 391.7 59 392.3 61.1C392.9 63.3 393 65.5 392.5 67.9C392.1 70.2 391.2 72.6 390 75.1C388.9 77.3 387.4 79.3 385.8 81C384.1 82.7 382.2 84.1 380 84.9C377.8 85.8 375.3 86.1 372.6 85.9C369.9 85.7 366.8 84.7 363.5 83C363 82.7 362.3 82.3 361.4 81.9C360.5 81.4 359.7 80.9 358.8 80.4C357.9 79.9 357 79.4 356.2 78.9C355.4 78.4 354.8 78 354.4 77.7L371.4 44.9ZM379.3 55.7C378.6 55.3 377.8 55 377.1 54.6C376.3 54.2 375.8 54 375.4 53.9L364 75.7C364.1 75.8 364.3 75.9 364.6 76.1C364.9 76.3 365.2 76.5 365.6 76.7C366 76.9 366.3 77.1 366.6 77.3C366.9 77.5 367.2 77.6 367.3 77.7C369.2 78.7 370.9 79.2 372.5 79.2C374.1 79.2 375.5 78.9 376.8 78.2C378.1 77.5 379.2 76.6 380.3 75.3C381.3 74.1 382.2 72.7 383 71.3C383.7 70 384.2 68.7 384.6 67.2C385 65.8 385.1 64.4 385 63C384.8 61.6 384.3 60.3 383.4 59C382.5 57.8 381.1 56.6 379.3 55.7Z" fill="black"/>
<path fill-rule="evenodd" clip-rule="evenodd" d="M304.342 31.9614L313.942 32.3404L312.642 62.7423L329.53 63.4418L329.268 71.8403L302.76 70.7584L304.342 31.9614ZM306.259 34.0386L304.84 68.8416L327.332 69.7597L327.47 65.3582L310.558 64.6577L311.858 34.2596L306.259 34.0386ZM275.646 35.564L298.731 70.3498L288.847 72.6309L284.048 65.332L273.812 67.7144L272.812 76.3166L263.315 78.4982L268.901 37.1879L275.646 35.564ZM270.699 38.8121L265.685 75.9018L270.988 74.6834L271.988 66.0856L284.953 63.068L289.753 70.3691L295.469 69.0502L274.754 37.836L270.699 38.8121ZM344.776 36.1816L354.113 38.579L344.624 76.2184L335.287 73.821L344.776 36.1816ZM346.224 38.6184L337.713 72.379L343.176 73.7816L351.687 40.021L346.224 38.6184ZM248.821 42.735L253.774 84.3615L247.867 87.5034L216.031 60.2002L225.755 55.0886L243.245 71.0255L243.856 71.8467L243.524 70.8338L239.903 47.4489L248.821 42.735ZM242.097 48.5511L245.476 70.3661L247.719 77.2085L245.998 78.0688L241.756 72.3745L225.445 57.5114L219.569 60.5998L248.133 85.0966L251.626 83.2385L247.179 45.865L242.097 48.5511ZM370.94 43.6148L371.794 43.9809C372.077 44.102 372.396 44.2237 372.759 44.3624C372.816 44.384 372.873 44.406 372.932 44.4284C373.359 44.5916 373.83 44.7746 374.306 44.9862L374.323 44.9937C375.2 45.3836 376.121 45.7927 377.047 46.3043C377.504 46.509 377.957 46.7355 378.388 46.9509L378.397 46.9556C378.851 47.1824 379.281 47.397 379.706 47.5862C380.601 47.984 381.447 48.4022 382.113 48.8401C385.152 50.4649 387.647 52.2235 389.543 54.331L389.545 54.3332C391.331 56.3286 392.614 58.5592 393.262 60.8253L393.265 60.8369C393.904 63.1804 394.012 65.5353 393.482 68.0874C393.059 70.5089 392.119 72.9966 390.902 75.5327L390.898 75.54L390.895 75.5472C389.742 77.8521 388.18 79.9307 386.528 81.6854L386.518 81.6964L386.507 81.7071C384.746 83.4685 382.732 84.9667 380.36 85.833C377.99 86.7988 375.335 87.1053 372.526 86.8973C369.649 86.6842 366.416 85.6271 363.042 83.889L363.013 83.8741L362.986 83.8575C362.505 83.569 361.843 83.1912 360.994 82.8138L360.953 82.7958L360.914 82.7742C360.454 82.5184 360.021 82.2634 359.599 82.0153L359.593 82.0119C359.167 81.7611 358.752 81.5172 358.314 81.2742L358.301 81.2664C357.41 80.7717 356.492 80.2615 355.67 79.748C354.863 79.2436 354.234 78.8258 353.8 78.5L353.122 77.9918L370.94 43.6148ZM371.871 46.1642L355.69 77.3834C355.981 77.5774 356.327 77.8001 356.73 78.052C357.504 78.5358 358.38 79.0229 359.286 79.5258C359.746 79.7816 360.18 80.0366 360.601 80.2847L360.607 80.2881C361.021 80.5316 361.424 80.7686 361.848 81.0047C362.762 81.4135 363.476 81.8204 363.986 82.1256C367.201 83.7784 370.158 84.7164 372.674 84.9027C375.258 85.0941 377.597 84.8028 379.621 83.9744L379.64 83.967L379.658 83.9602C381.674 83.2271 383.451 81.9325 385.082 80.3035C386.625 78.6625 388.057 76.7474 389.102 74.6599C390.28 72.2044 391.137 69.8999 391.515 67.7287L391.518 67.7123L391.521 67.696C391.988 65.4564 391.895 63.418 391.337 61.3682C390.784 59.4372 389.669 57.471 388.057 55.669C386.362 53.7863 384.071 52.1513 381.129 50.5824L381.086 50.5593L381.045 50.5321C380.518 50.1801 379.78 49.8076 378.894 49.4138C378.423 49.2045 377.956 48.9709 377.512 48.7491L377.503 48.7444C377.049 48.5176 376.62 48.303 376.194 48.1138L376.153 48.0957L376.114 48.0742C375.259 47.5991 374.399 47.2162 373.494 46.8138C373.07 46.6254 372.641 46.4584 372.218 46.2966C372.162 46.2753 372.107 46.254 372.051 46.2327C371.991 46.2099 371.931 46.1871 371.871 46.1642ZM275.145 44.9642L277.885 51.1279L283.194 59.5533L272.342 62.0987L273.498 52.159L273.275 45.5875L275.145 44.9642ZM275.445 50.5637L275.502 52.241L274.658 59.5013L280.006 58.2467L276.116 52.0721L275.445 50.5637ZM374.879 52.7389L375.643 52.9299C376.151 53.0569 376.729 53.2965 377.547 53.7056L377.572 53.718L377.596 53.7318C377.904 53.9077 378.241 54.0656 378.623 54.2438L378.64 54.2518C378.996 54.4179 379.393 54.6032 379.772 54.8178C381.687 55.7799 383.203 57.071 384.2 58.4L384.211 58.4152L384.222 58.4308C385.208 59.8544 385.767 61.3001 385.99 62.8586L385.995 62.8935L385.998 62.9288C386.104 64.4221 385.999 65.9385 385.564 67.4658C385.147 69.0292 384.62 70.4006 383.881 71.7741L383.875 71.7852L383.868 71.7961C383.053 73.2226 382.12 74.6778 381.068 75.9402L381.063 75.9459C379.891 77.3318 378.695 78.3153 377.274 79.0805C375.802 79.8731 374.233 80.2 372.5 80.2C370.687 80.2 368.826 79.6329 366.834 78.5849L366.7 78.5143L366.658 78.4725C366.639 78.4628 366.614 78.4499 366.578 78.4319L366.567 78.4264C366.445 78.3653 366.248 78.2669 366.045 78.132C365.745 77.9319 365.491 77.7637 365.153 77.5944C364.697 77.3665 364.354 77.1377 364.057 76.9395L364.045 76.932C363.946 76.8661 363.866 76.8163 363.783 76.7653C363.754 76.7474 363.725 76.7294 363.695 76.7105L363.687 76.7057C363.6 76.6509 363.432 76.5464 363.293 76.4071L362.773 75.8876L374.879 52.7389ZM375.884 55.1318L365.303 75.3664C365.543 75.5247 365.766 75.6648 366.047 75.8056C366.503 76.0335 366.846 76.2623 367.144 76.4605L367.155 76.4679C367.246 76.5289 367.343 76.5786 367.472 76.6431C367.528 76.6708 367.61 76.7114 367.684 76.7534C367.72 76.774 367.78 76.8088 367.848 76.8583C369.621 77.7802 371.134 78.2 372.5 78.2C373.967 78.2 375.198 77.9269 376.326 77.3195C377.504 76.6852 378.508 75.8695 379.534 74.6569C380.479 73.523 381.343 72.1835 382.125 70.8151C382.782 69.5946 383.253 68.3714 383.634 66.9423L383.636 66.9338L383.639 66.9253C383.998 65.6672 384.094 64.3983 384.005 63.1068C383.825 61.884 383.389 60.745 382.589 59.585C381.789 58.5243 380.518 57.4272 378.853 56.5944L378.828 56.582L378.804 56.5682C378.496 56.3923 378.159 56.2344 377.777 56.0562L377.76 56.0482C377.404 55.8822 377.008 55.697 376.629 55.4826C376.333 55.3348 376.089 55.2206 375.884 55.1318ZM364.668 74.9574L364.669 74.9583ZM236.534 301.549L246.277 306.42L243.482 329.712L243.143 330.782L243.844 329.84L260.506 313.489L269.558 317.952L238.866 345.901L232.843 342.89L236.534 301.549ZM238.265 304.651L234.957 341.71L238.534 343.499L266.042 318.448L260.894 315.911L245.356 331.159L241.102 336.869L239.389 336.012L241.518 329.288L244.123 307.58L238.265 304.651ZM376.729 311.128C374.922 310.406 372.791 310.204 370.28 310.397C367.957 310.583 365.293 311.424 362.267 312.885C361.592 313.271 360.878 313.678 359.97 314.085C359.156 314.591 358.236 315.1 357.306 315.514C356.459 315.89 355.601 316.366 354.83 316.848C354.325 317.163 353.828 317.474 353.384 317.758L368.401 348.838C368.704 348.721 369.046 348.585 369.473 348.395C370.297 347.984 371.216 347.576 372.229 347.172C373.209 346.78 374.092 346.387 374.994 345.986C375.094 345.941 375.191 345.898 375.285 345.857C376.062 345.512 376.599 345.274 376.985 345.042L377.024 345.02L377.064 345C380.281 343.44 382.655 341.715 384.341 339.749C386.067 337.735 387.179 335.767 387.732 333.648C388.297 331.483 388.39 329.328 388.015 327.171C387.629 324.954 386.956 322.749 385.905 320.647C384.739 318.314 383.391 316.3 381.872 314.685C380.356 313.075 378.678 311.871 376.744 311.134L376.736 311.132L376.729 311.128ZM377.463 309.268C375.273 308.394 372.808 308.196 370.123 308.403L370.12 308.403C367.451 308.617 364.525 309.57 361.364 311.1L361.334 311.115L361.304 311.132C360.603 311.532 359.943 311.909 359.094 312.286L359.03 312.315L358.97 312.352C358.199 312.834 357.341 313.31 356.494 313.686C355.541 314.11 354.599 314.634 353.77 315.152L353.76 315.158C352.968 315.653 352.158 316.16 351.545 316.568L350.821 317.051L367.405 351.375L368.271 351.028C368.397 350.978 368.542 350.924 368.707 350.861C369.118 350.706 369.651 350.505 370.306 350.214L370.327 350.205L370.347 350.194C371.118 349.809 371.992 349.42 372.971 349.028C373.988 348.622 374.902 348.216 375.797 347.818L375.806 347.814C375.908 347.768 376.009 347.724 376.108 347.68C376.83 347.36 377.479 347.073 377.974 346.781C381.339 345.145 383.952 343.276 385.859 341.051C387.732 338.865 389.02 336.633 389.668 334.152C390.303 331.717 390.41 329.272 389.985 326.829C389.571 324.446 388.843 322.051 387.694 319.753C386.461 317.286 385.009 315.1 383.328 313.315C381.646 311.527 379.726 310.132 377.463 309.268ZM364.853 316.606C366.743 315.66 368.598 315.1 370.5 315.1C372.18 315.1 373.754 315.549 375.104 316.336C376.427 317.108 377.525 318.1 378.5 319.4C379.418 320.624 380.265 321.888 380.907 323.279C381.638 324.845 382.156 326.403 382.566 327.942L382.574 327.973L382.581 328.004C382.896 329.582 383.01 331.2 382.79 332.741L382.785 332.776L382.778 332.81C382.454 334.321 381.902 335.767 380.793 337.21C379.679 338.657 378.143 339.849 376.128 340.804L375.925 340.9H375.886C375.882 340.902 375.877 340.904 375.872 340.907L375.856 340.915C375.752 340.967 375.58 341.053 375.389 341.123C375.187 341.222 375.009 341.299 374.851 341.366L374.844 341.369C374.668 341.445 374.518 341.509 374.347 341.594L374.284 341.626L374.216 341.649C374.114 341.683 373.98 341.739 373.794 341.819L373.776 341.827C373.649 341.881 373.494 341.948 373.341 342.004C373.168 342.11 372.998 342.193 372.846 342.253C372.708 342.309 372.455 342.4 372.2 342.4H371.576L360.166 319.049L361.053 318.606C361.317 318.473 361.625 318.295 362.051 318.05C362.216 317.954 362.399 317.849 362.604 317.732L362.628 317.718L362.653 317.706C362.966 317.549 363.245 317.416 363.505 317.292C363.969 317.07 364.374 316.878 364.804 316.632L364.828 316.618L364.853 316.606ZM380.907 323.279L380.908 323.281L380 323.7L380.906 323.277L380.907 323.279ZM365.771 318.382C365.288 318.657 364.778 318.901 364.277 319.14C364.039 319.254 363.802 319.367 363.572 319.482C363.409 319.575 363.253 319.665 363.104 319.751C363.005 319.808 362.909 319.864 362.817 319.917L372.685 340.115C372.732 340.096 372.785 340.075 372.845 340.05C372.894 340.029 372.947 340.006 373.006 339.981C373.15 339.919 373.336 339.839 373.513 339.776C373.714 339.677 373.892 339.601 374.048 339.534L374.056 339.531C374.232 339.455 374.382 339.391 374.553 339.306L374.616 339.274L374.684 339.251C374.755 339.228 374.842 339.186 374.978 339.118C375.01 339.102 375.054 339.08 375.1 339.058C375.13 339.043 375.162 339.029 375.193 339.015C375.212 339.007 375.235 338.997 375.262 338.987C375.291 338.976 375.323 338.964 375.359 338.953C375.361 338.952 375.364 338.951 375.367 338.951C377.102 338.115 378.337 337.122 379.207 335.99C380.09 334.843 380.538 333.699 380.815 332.425C380.987 331.184 380.902 329.825 380.625 328.427C380.238 326.978 379.758 325.546 379.094 324.123L379.092 324.119C378.534 322.911 377.781 321.775 376.9 320.6C376.075 319.5 375.173 318.692 374.096 318.064C373.046 317.451 371.82 317.1 370.5 317.1C369.009 317.1 367.471 317.535 365.771 318.382ZM343.243 318.4L352.105 355.746L342.857 357.9L333.995 320.554L343.243 318.4ZM336.405 322.046L344.343 355.5L349.695 354.254L341.757 320.8L336.405 322.046ZM279.037 319.073L285.789 320.573L291.801 361.389L282.015 359.229L280.715 350.731L270.58 348.528L266.079 355.829L256.679 353.769L279.037 319.073ZM279.963 321.327L259.92 352.431L265.121 353.571L269.62 346.272L282.484 349.069L283.785 357.571L289.399 358.811L284.011 322.227L279.963 321.327ZM312.159 322.861L313.359 352.859L330.052 352.159L330.446 360.558L304.242 361.64L302.66 323.241L312.159 322.861ZM304.74 325.159L306.158 359.56L328.354 358.642L328.148 354.241L311.441 354.941L310.241 324.939L304.74 325.159ZM279.341 328.26L281.212 328.883L281.101 335.344L282.373 345.172L271.619 342.886L276.707 334.444L279.341 328.26ZM279.126 333.869L278.493 335.356L274.781 341.514L280.027 342.628L279.099 335.456L279.126 333.869Z" fill="black"/>
<path fill-rule="evenodd" clip-rule="evenodd" d="M127.088 127H94V139H520V127H486.912C458.887 55.0224 388.909 4 307 4C225.091 4 155.113 55.0224 127.088 127ZM140.031 127H217.565C238.082 101.405 269.626 85 305 85C340.374 85 371.918 101.405 392.435 127H473.969C446.596 61.7875 382.138 16 307 16C231.862 16 167.404 61.7875 140.031 127ZM376.415 127C358.26 108.479 332.971 97 305 97C277.029 97 251.74 108.479 233.585 127H376.415ZM94 255H520V267H486.912C458.887 338.978 388.909 390 307 390C225.091 390 155.113 338.978 127.088 267H94V255ZM140.031 267C167.404 332.213 231.862 378 307 378C382.138 378 446.596 332.213 473.969 267H392.435C371.918 292.595 340.374 309 305 309C269.626 309 238.082 292.595 217.565 267H140.031ZM233.585 267C251.74 285.521 277.029 297 305 297C332.971 297 358.26 285.521 376.415 267H233.585Z" fill="black"/>
<path d="M195.273 85.2319C195.956 83.5894 198.283 83.5894 198.967 85.2319L201.676 91.7471C201.964 92.4395 202.616 92.9127 203.363 92.9726L210.397 93.5365C212.17 93.6787 212.889 95.8917 211.538 97.049L206.179 101.639C205.61 102.127 205.361 102.893 205.535 103.622L207.172 110.486C207.585 112.217 205.702 113.584 204.184 112.657L198.162 108.979C197.522 108.588 196.717 108.588 196.077 108.979L190.056 112.657C188.537 113.584 186.655 112.217 187.068 110.486L188.705 103.622C188.879 102.893 188.63 102.127 188.061 101.639L182.702 97.049C181.351 95.8917 182.07 93.6787 183.843 93.5365L190.877 92.9726C191.624 92.9127 192.275 92.4395 192.563 91.7471L195.273 85.2319Z" fill="black"/>
<path d="M411.273 85.2319C411.956 83.5894 414.283 83.5894 414.967 85.2319L417.676 91.7471C417.964 92.4395 418.616 92.9127 419.363 92.9726L426.397 93.5365C428.17 93.6787 428.889 95.8917 427.538 97.049L422.179 101.639C421.61 102.127 421.361 102.893 421.535 103.622L423.172 110.486C423.585 112.217 421.702 113.584 420.184 112.657L414.162 108.979C413.522 108.588 412.717 108.588 412.077 108.979L406.056 112.657C404.537 113.584 402.655 112.217 403.068 110.486L404.705 103.622C404.879 102.893 404.63 102.127 404.061 101.639L398.702 97.049C397.351 95.8917 398.07 93.6787 399.843 93.5365L406.877 92.9726C407.624 92.9127 408.275 92.4395 408.563 91.7471L411.273 85.2319Z" fill="black"/>
<path d="M195.273 283.024C195.956 281.381 198.283 281.381 198.967 283.024L201.676 289.539C201.964 290.232 202.616 290.705 203.363 290.765L210.397 291.328C212.17 291.471 212.889 293.684 211.538 294.841L206.179 299.431C205.61 299.919 205.361 300.685 205.535 301.414L207.172 308.278C207.585 310.008 205.702 311.376 204.184 310.449L198.162 306.771C197.522 306.38 196.717 306.38 196.077 306.771L190.056 310.449C188.537 311.376 186.655 310.008 187.068 308.278L188.705 301.414C188.879 300.685 188.63 299.919 188.061 299.431L182.702 294.841C181.351 293.684 182.07 291.471 183.843 291.328L190.877 290.765C191.624 290.705 192.275 290.232 192.563 289.539L195.273 283.024Z" fill="black"/>
<path d="M411.273 283.024C411.956 281.381 414.283 281.381 414.967 283.024L417.676 289.539C417.964 290.232 418.616 290.705 419.363 290.765L426.397 291.328C428.17 291.471 428.889 293.684 427.538 294.841L422.179 299.431C421.61 299.919 421.361 300.685 421.535 301.414L423.172 308.278C423.585 310.008 421.702 311.376 420.184 310.449L414.162 306.771C413.522 306.38 412.717 306.38 412.077 306.771L406.056 310.449C404.537 311.376 402.655 310.008 403.068 308.278L404.705 301.414C404.879 300.685 404.63 299.919 404.061 299.431L398.702 294.841C397.351 293.684 398.07 291.471 399.843 291.328L406.877 290.765C407.624 290.705 408.275 290.232 408.563 289.539L411.273 283.024Z" fill="black"/>
</svg>
