<svg width="1701" height="381" viewBox="0 0 1701 381" fill="none" xmlns="http://www.w3.org/2000/svg">
<path d="M1685.53 200.671C1688.12 199.373 1690.72 198.074 1692.34 195.478C1696.89 190.933 1699.81 185.091 1699.81 178.599C1699.81 172.107 1697.54 166.265 1692.99 162.045C1688.77 157.825 1683.9 155.553 1678.39 154.58H1658.26V223.717H1669.3V202.294H1675.14L1688.77 223.717H1701.43L1685.53 200.671ZM1674.81 192.232H1668V164.317H1674.81C1678.39 164.317 1681.63 165.616 1683.9 168.537C1686.5 170.809 1688.12 174.379 1688.12 178.274C1688.12 181.845 1686.82 185.74 1683.9 188.337C1681.63 190.933 1678.71 192.232 1674.81 192.232Z" fill="black"/>
<path d="M501.431 164.318H517.335V224.042H528.371V164.318H544.601V154.905H501.431V164.318Z" fill="black"/>
<path d="M623.8 184.443H598.482V154.905H588.095V224.042H598.482V194.18H623.8V224.042H634.836V154.905H623.8V184.443Z" fill="black"/>
<path d="M681.901 224.042H720.203V214.305H692.937V194.18H720.203V184.443H692.937V164.318H720.203V154.905H681.901V224.042Z" fill="black"/>
<path d="M827.966 179.574C825.694 178.6 823.746 177.302 822.123 176.003C820.825 174.705 820.176 172.757 820.176 170.81C820.176 168.862 820.5 167.239 822.123 165.616C824.071 163.344 827.641 163.02 829.913 165.292C830.238 165.292 830.238 165.616 830.238 165.616C831.212 166.915 832.185 168.213 832.51 170.161V171.459L842.572 167.889V166.915C841.598 164.318 840.3 161.397 838.353 159.449C835.107 156.203 830.562 154.256 826.018 154.256C821.474 154.256 816.93 156.203 813.684 159.449C810.438 162.046 808.491 166.266 808.491 170.81C808.491 175.354 810.438 179.574 813.684 182.17C816.93 185.416 821.149 187.688 825.694 188.987C828.94 190.285 831.536 192.233 833.808 194.829C836.08 197.101 837.379 200.023 837.379 202.944C837.379 206.19 836.08 209.436 833.808 211.708C831.536 213.98 828.615 214.954 825.694 214.954C822.772 214.954 819.851 213.98 817.579 211.708C815.307 209.111 814.008 205.865 814.008 201.97V200.023L803.622 203.593V204.892C803.946 210.085 806.218 214.629 809.464 217.55C813.684 222.095 819.526 224.367 825.369 224.367C831.212 224.367 836.73 222.095 841.274 217.875C845.493 213.655 847.766 208.137 847.766 202.295C847.766 196.452 845.493 190.934 841.274 187.039C838.353 183.469 833.484 180.872 827.966 179.574Z" fill="black"/>
<path d="M890.286 164.318H906.191V224.042H917.227V164.318H932.807V154.905H890.286V164.318Z" fill="black"/>
<path d="M993.18 154.905L967.863 224.042H979.223L989.61 196.128H1006.16L1016.23 224.042H1027.59L1002.27 154.905H993.18V154.905ZM993.18 186.39L997.725 173.731L1002.92 186.39H993.18Z" fill="black"/>
<path d="M1104.84 195.154C1109.38 190.61 1111.66 184.767 1112.3 178.275C1112.3 171.784 1109.71 165.941 1104.84 161.721C1100.62 157.502 1095.75 155.23 1090.23 154.256H1070.11V223.393H1081.14V201.97H1086.99L1101.27 223.393H1113.93L1098.35 199.698C1100.62 199.049 1103.22 197.426 1104.84 195.154ZM1087.96 192.233H1080.49V164.318H1087.96C1091.53 164.318 1094.78 165.616 1097.05 168.538C1099.65 171.134 1101.27 174.38 1100.62 178.275C1100.62 181.846 1099.32 185.741 1096.4 188.337C1094.78 190.934 1091.53 192.233 1087.96 192.233Z" fill="black"/>
<path d="M1216.5 154.905H1196.37V224.042H1207.41V202.619H1214.22C1220.72 202.619 1226.88 200.023 1231.75 195.154C1236.3 190.61 1238.57 184.767 1238.57 178.275C1238.57 171.784 1236.3 165.941 1231.75 161.721C1227.53 157.826 1222.02 155.23 1216.5 154.905ZM1223.64 188.662C1221.37 190.934 1217.8 192.882 1214.55 192.233H1207.73V164.318H1214.55C1218.12 164.318 1221.37 165.616 1223.64 168.538C1226.23 170.81 1227.86 174.38 1227.86 178.275C1227.53 182.17 1226.23 185.741 1223.64 188.662Z" fill="black"/>
<path d="M1317.77 153.931C1298.62 153.606 1282.06 169.187 1282.06 188.662C1282.06 188.986 1282.06 188.986 1282.06 189.636C1282.06 198.724 1285.63 207.812 1292.45 214.304C1299.27 221.121 1308.36 225.34 1318.09 224.691C1327.83 224.691 1336.92 221.121 1343.74 214.304C1350.55 207.812 1354.77 198.724 1354.12 189.636C1354.12 179.898 1350.55 170.809 1343.74 164.318C1336.59 157.501 1327.51 153.931 1317.77 153.931ZM1335.62 207.488C1331.08 212.032 1324.58 214.953 1317.77 214.953C1311.28 214.953 1305.11 212.357 1300.24 207.488C1295.05 202.944 1292.77 196.127 1292.77 189.311C1292.77 182.495 1295.37 176.003 1300.24 171.134C1304.78 166.59 1311.28 163.669 1317.77 163.669C1324.58 163.669 1331.08 166.265 1335.62 171.134C1340.16 176.327 1343.09 182.495 1343.09 189.311C1343.09 196.452 1340.16 202.944 1335.62 207.488Z" fill="black"/>
<path d="M1421.31 179.574C1419.04 178.6 1417.09 177.302 1415.47 176.003C1414.17 174.705 1413.52 172.757 1413.52 170.81C1413.52 168.862 1413.85 167.239 1415.47 165.616C1417.42 163.344 1420.99 163.02 1423.26 165.292C1423.58 165.292 1423.58 165.616 1423.58 165.616C1424.56 166.915 1425.53 168.213 1425.86 170.161V171.459L1435.92 167.889V166.915C1434.94 164.318 1433.65 161.397 1431.7 159.449C1428.45 156.203 1423.91 154.256 1419.36 154.256C1414.82 154.256 1410.28 156.203 1407.03 159.449C1403.78 162.046 1401.84 166.266 1401.84 170.81C1401.84 175.354 1403.78 179.574 1407.03 182.17C1410.28 185.416 1414.5 187.688 1419.04 188.987C1422.29 190.285 1424.88 192.233 1427.15 194.829C1429.43 197.101 1430.72 200.023 1430.72 202.944C1430.72 206.19 1429.43 209.436 1427.15 211.708C1422.61 216.252 1415.79 216.252 1411.25 211.708C1408.98 209.111 1407.68 205.865 1407.68 201.97V200.023L1397.29 203.593V204.892C1397.62 217.226 1408.33 226.963 1420.66 225.99C1433 225.665 1442.73 214.954 1441.76 202.619C1441.76 196.777 1439.49 191.259 1435.27 187.364C1431.37 183.469 1426.83 180.872 1421.31 179.574Z" fill="black"/>
<path d="M1482.98 164.318H1499.21V224.042H1510.25V164.318H1526.15V154.905H1482.98V164.318Z" fill="black"/>
<path d="M1569.97 224.042H1608.92V214.305H1581.01V194.18H1608.92V184.442H1581.01V164.318H1608.92V154.905H1569.97V224.042Z" fill="black"/>
<path d="M395.607 248.907C379.439 261.841 361.508 272.129 342.401 279.772C327.115 285.945 310.948 290.061 294.486 292.118L256.272 226.566C258.33 224.802 259.505 222.157 259.505 219.217C259.505 218.041 259.211 216.866 258.624 215.69L269.794 219.805H271.852C274.497 219.805 276.555 218.041 277.437 215.69L281.258 205.107C282.14 202.168 280.67 198.64 277.731 197.465L260.975 191.585H259.799L238.928 183.943C238.928 183.649 238.928 183.649 238.635 183.649L178.374 141.319C177.198 140.437 175.728 140.731 174.552 141.613L173.376 142.201C167.203 148.668 160.736 162.778 158.973 166.893C155.151 176.888 152.799 187.176 152.212 197.759C152.212 198.346 152.212 198.934 152.506 199.522C153.093 200.698 154.269 201.286 155.445 201.286L229.816 204.813L230.992 205.401L242.75 209.811C239.516 211.574 237.459 215.102 237.459 218.923C237.459 221.275 238.341 223.333 239.516 225.39L209.239 284.181C150.448 266.25 103.415 222.451 81.0743 165.423C61.6733 116.627 62.2612 61.951 82.8381 13.7423L88.1293 1.39618L77.5469 9.92089C6.40961 66.9483 -18.8706 163.66 14.6404 248.319C25.2228 275.657 41.6843 300.643 62.8491 320.926C62.8491 321.514 63.437 321.808 63.731 322.102H64.0249C122.522 378.835 208.945 395.885 284.786 366.195C337.11 345.912 379.145 305.052 400.604 253.022L405.895 240.382L395.607 248.907ZM255.978 293.294L252.156 233.033L287.137 293C276.849 293.882 266.266 293.882 255.978 293.294ZM248.335 222.745C246.277 222.745 244.808 221.275 244.808 219.217C244.514 217.16 245.983 215.69 248.041 215.396H248.335C250.393 215.396 252.156 217.16 252.156 219.217C252.156 221.275 250.687 222.745 248.629 222.745C248.629 222.745 248.335 222.745 248.335 222.745ZM270.97 212.456L260.093 208.635L263.033 200.11L273.909 204.226L270.97 212.456ZM177.198 148.962L231.286 186.882C231.286 187.176 230.992 187.47 230.992 187.764L227.17 197.759V198.346L159.56 195.113C160.442 186.588 162.5 178.064 165.734 169.833C168.673 162.484 172.495 155.429 177.198 148.962ZM237.459 190.998L252.744 196.583L249.805 204.813L234.519 199.228L237.459 190.998ZM245.102 229.8L248.923 292.706C237.753 291.53 226.582 289.473 215.706 286.533L245.102 229.8ZM282.14 359.728C232.461 379.423 176.904 378.541 127.813 357.082C106.355 347.676 86.9534 334.742 69.904 318.574L74.9013 310.637C75.7831 308.874 75.1952 306.816 73.7254 305.934C71.9617 305.052 69.904 305.64 69.0222 307.11L64.9068 313.871L59.0277 307.404L67.5524 293.294C68.4342 291.824 68.1403 289.767 66.6705 288.885C65.2007 288.003 63.143 288.297 61.9672 289.767L54.3244 301.819L48.1513 294.176L60.4974 274.187C61.9672 273.011 62.2612 270.66 61.0854 269.19C59.9095 267.72 57.5579 267.426 56.0881 268.602C55.5002 268.896 55.2062 269.484 54.9123 270.366L43.742 288.297C41.9782 285.651 40.2145 283.3 38.4508 280.36L54.3244 255.374C55.2062 253.61 54.6183 251.552 53.1486 250.671C51.6788 249.495 49.6211 249.789 48.7392 251.258C48.7392 251.258 48.7392 251.552 48.4453 251.552L34.6294 273.893L29.3382 264.486L46.9755 236.561C47.8574 235.091 47.5634 233.033 46.0936 232.151C46.0936 232.151 45.7997 232.151 45.7997 231.857C44.3299 230.682 42.2722 230.976 41.3903 232.445C41.3903 232.445 41.3903 232.739 41.0964 232.739L25.8107 257.432L21.4013 247.437L41.0964 215.984C41.9782 214.22 41.3903 212.456 39.9206 211.281C38.4508 210.399 36.3931 210.693 35.5112 212.162C35.5112 212.162 35.5112 212.456 35.2173 212.456L18.4618 239.206C-8.58212 163.366 12.2887 78.4126 71.6678 24.0308C34.0414 132.794 91.9507 251.552 200.714 288.885C221.879 296.234 244.22 300.055 266.854 300.349L267.736 338.563C268.03 340.327 269.5 341.797 271.264 341.797C273.321 341.797 274.791 340.327 274.791 338.269L273.615 300.349H282.434L283.316 334.154C283.316 335.918 284.786 337.387 286.549 337.387H286.843C288.607 337.387 290.077 335.918 290.077 334.154V333.86L289.195 300.055V299.467L298.308 298.291L299.189 328.275C298.895 330.039 300.365 331.508 302.129 331.802H302.423H302.717C304.481 331.508 305.95 330.039 305.95 328.275L305.068 297.409L313.593 295.646L314.181 318.868C314.181 320.632 315.651 322.102 317.415 322.102H317.709C319.472 321.808 320.942 320.338 320.942 318.574L320.354 293.882C323.588 293.294 326.527 292.412 329.467 291.236L330.055 305.64C329.761 307.404 331.231 308.874 332.994 309.168H333.288C335.052 309.168 336.816 307.404 336.816 305.64L336.228 289.179L344.753 286.239V294.47C344.753 296.234 346.222 297.703 347.986 297.703H348.28C350.044 297.703 351.513 296.234 351.513 294.47V294.176V283.3C364.741 277.714 377.088 270.66 388.846 262.429C366.799 307.11 328.585 341.797 282.14 359.728Z" fill="black"/>
<path d="M80.4864 317.986C78.7227 317.986 77.2529 319.456 77.2529 321.22C77.2529 322.984 78.7227 324.454 80.4864 324.454C82.2502 324.454 83.7199 322.984 83.7199 321.22C83.7199 319.456 82.2502 317.986 80.4864 317.986Z" fill="black"/>
<path d="M360.038 290.648C361.508 291.53 363.566 291.236 364.741 289.767C365.623 288.297 365.329 286.239 363.566 285.063C362.096 284.181 360.038 284.769 359.156 286.239C358.274 287.415 358.274 289.473 360.038 290.648Z" fill="black"/>
<path d="M102.827 131.913L83.7199 140.144L104.591 138.674C106.648 138.38 109 139.556 109.588 141.613C111.94 147.787 114.879 153.96 117.819 161.015C117.231 153.96 116.937 148.08 116.349 142.201C115.761 136.322 116.937 135.44 121.052 133.971L138.69 126.622L117.525 128.091C115.467 128.679 113.116 127.504 112.528 125.446C110.176 118.979 107.236 112.806 104.297 106.045C104.591 113.1 105.179 120.155 105.767 126.916C106.355 128.973 104.885 131.325 102.827 131.913Z" fill="black"/>
<path d="M208.063 74.5913L231.286 61.6573C233.637 59.8935 236.871 60.1875 238.634 62.5391C244.807 68.4182 251.274 74.0034 258.329 80.1765C254.214 72.8276 250.687 65.7726 246.571 59.3056C242.456 52.8386 243.926 51.3688 247.747 47.5474C251.568 43.726 258.329 36.3771 264.209 29.6161L240.692 42.8441C238.34 44.3139 235.401 44.0199 233.637 41.9622C227.464 36.0831 220.703 30.498 213.648 24.0309C218.058 32.2617 222.173 39.9045 226.582 47.2534C228.346 49.6051 228.052 52.8386 225.7 54.6023L208.063 74.5913Z" fill="black"/>
<path d="M343.87 78.1191C344.458 83.1163 345.34 88.4075 346.222 93.9927C347.104 88.4075 348.28 83.1163 349.162 78.1191C349.162 76.3553 350.631 74.8855 352.395 74.8855L368.269 72.5339L354.159 69.8883C351.513 70.1822 349.162 67.8306 348.868 65.185V64.8911C348.574 60.1878 347.692 55.7784 347.104 50.1933C345.928 56.3663 344.752 61.3636 343.87 66.3608C343.87 67.8306 342.401 69.3004 340.931 69.3004L324.763 71.652L340.637 74.8855C342.401 74.8855 343.87 76.3553 343.87 78.1191Z" fill="black"/>
<path d="M340.343 211.28C344.458 207.753 347.986 204.813 351.219 201.579C352.689 199.228 355.923 198.934 358.274 200.404L358.568 200.698L371.502 208.047C367.387 203.343 364.153 199.522 360.332 195.7C359.156 194.525 359.156 192.761 360.038 191.291L367.975 176.887L355.923 187.764C354.747 189.233 352.689 189.527 351.219 188.351C346.516 185.412 341.813 182.766 337.109 180.415C340.931 184.53 344.164 188.645 347.986 192.467C349.162 193.643 349.456 195.7 348.28 197.17L340.343 211.28Z" fill="black"/>
<path d="M186.016 236.267C186.016 234.503 184.547 233.034 182.783 233.034C181.019 233.034 179.549 234.503 179.549 236.267C179.549 238.031 181.019 239.501 182.783 239.501C184.547 239.501 186.016 238.031 186.016 236.267Z" fill="black"/>
<path d="M233.343 133.088C232.461 136.028 234.519 139.261 237.459 140.143C240.398 140.731 243.338 138.967 244.22 136.028C244.808 133.088 243.044 130.149 240.104 129.267C237.165 128.679 234.225 130.149 233.343 133.088Z" fill="black"/>
<path d="M328.879 243.91C331.818 244.498 334.758 242.734 335.64 239.794C336.228 236.855 334.464 233.915 331.524 233.033C328.585 232.445 325.645 234.209 325.057 236.855C324.175 239.794 325.939 243.028 328.879 243.91C328.879 243.91 328.585 243.91 328.879 243.91Z" fill="black"/>
<path d="M156.033 6.98145C157.503 5.21771 157.503 2.86607 156.033 1.10233C154.269 -0.367445 151.918 -0.367445 150.154 1.10233C148.684 2.86607 148.684 5.21771 150.154 6.98145C151.918 8.45122 154.269 8.45122 156.033 6.98145Z" fill="black"/>
<path d="M303.011 121.919C304.186 121.919 305.362 120.743 305.362 119.567C305.656 118.391 304.48 117.216 303.305 116.922H303.011C301.541 116.922 300.365 118.097 300.365 119.567C300.659 121.037 301.541 121.919 303.011 121.919Z" fill="black"/>
<path d="M186.604 168.951L219.233 189.822C220.997 190.41 223.055 189.528 223.643 187.47C223.937 186.295 223.643 185.119 223.055 184.237L190.426 163.366C188.956 162.19 186.898 162.484 186.016 163.954C186.016 163.954 186.016 164.248 185.722 164.248C184.547 165.718 184.841 167.775 186.604 168.951C186.604 168.951 186.31 168.951 186.604 168.951Z" fill="black"/>
<path d="M180.431 163.953C182.195 164.247 183.959 162.777 184.253 161.013C184.253 159.25 182.783 157.486 181.019 157.192C178.961 157.486 177.786 159.544 178.08 161.307C178.373 162.483 179.255 163.659 180.431 163.953Z" fill="black"/>
</svg>
